 0
SECTION
 2
ENTITIES
  0
POLYLINE
 8
Layer0
 66
     1
70
    8
 10
0.0
 20
 0.0
 30
0.0
  0
VERTEX
  8
MY3DLAYER
10
391.60988589853264
20
135.24088957328226
30
9.305889392408094e-14
 70
     32
  0
VERTEX
  8
MY3DLAYER
10
403.1098858985316
20
135.24088957328266
30
9.305889392408094e-14
 70
     32
  0
VERTEX
  8
MY3DLAYER
10
403.10988589853145
20
146.74088957328183
30
9.305889392408094e-14
 70
     32
  0
VERTEX
  8
MY3DLAYER
10
406.60988589853105
20
146.74088957328237
30
9.305889392408094e-14
 70
     32
  0
VERTEX
  8
MY3DLAYER
10
406.60988589853065
20
161.74088957328277
30
9.305889392408094e-14
 70
     32
  0
VERTEX
  8
MY3DLAYER
10
403.10988589853145
20
161.7408895732824
30
9.305889392408094e-14
 70
     32
  0
VERTEX
  8
MY3DLAYER
10
403.10988589853145
20
184.24088957328325
30
9.305889392408094e-14
 70
     32
  0
VERTEX
  8
MY3DLAYER
10
406.60988589853105
20
184.24088957328306
30
9.305889392408094e-14
 70
     32
  0
VERTEX
  8
MY3DLAYER
10
406.60988589853014
20
199.2408895732829
30
9.305889392408094e-14
 70
     32
  0
VERTEX
  8
MY3DLAYER
10
403.10988589853093
20
199.24088957328271
30
9.305889392408094e-14
 70
     32
  0
VERTEX
  8
MY3DLAYER
10
403.1098858985302
20
221.74088957328223
30
9.305889392408094e-14
 70
     32
  0
VERTEX
  8
MY3DLAYER
10
406.60988589853065
20
221.74088957328303
30
9.305889392408094e-14
 70
     32
  0
VERTEX
  8
MY3DLAYER
10
406.6098858985305
20
236.74088957328243
30
9.305889392408094e-14
 70
     32
  0
VERTEX
  8
MY3DLAYER
10
403.1098858985307
20
236.7408895732818
30
9.305889392408094e-14
 70
     32
  0
VERTEX
  8
MY3DLAYER
10
403.10988589853184
20
248.24088957328198
30
9.305889392408094e-14
 70
     32
  0
VERTEX
  8
MY3DLAYER
10
391.6098858985319
20
248.2408895732817
30
9.305889392408094e-14
 70
     32
  0
VERTEX
  8
MY3DLAYER
10
391.60988589853207
20
251.74088957328118
30
9.305889392408094e-14
 70
     32
  0
VERTEX
  8
MY3DLAYER
10
376.60988589853145
20
251.7408895732819
30
9.305889392408094e-14
 70
     32
  0
VERTEX
  8
MY3DLAYER
10
376.6098858985316
20
248.24088957328215
30
9.305889392408094e-14
 70
     32
  0
VERTEX
  8
MY3DLAYER
10
314.10988589853196
20
248.24088957328107
30
9.305889392408094e-14
 70
     32
  0
VERTEX
  8
MY3DLAYER
10
314.10988589853196
20
251.7408895732808
30
9.305889392408094e-14
 70
     32
  0
VERTEX
  8
MY3DLAYER
10
299.1098858985317
20
251.7408895732819
30
9.305889392408094e-14
 70
     32
  0
VERTEX
  8
MY3DLAYER
10
299.1098858985317
20
248.2408895732809
30
9.305889392408094e-14
 70
     32
  0
VERTEX
  8
MY3DLAYER
10
236.6098858985315
20
248.24088957328144
30
9.305889392408094e-14
 70
     32
  0
VERTEX
  8
MY3DLAYER
10
236.60988589853187
20
251.74088957328127
30
9.305889392408094e-14
 70
     32
  0
VERTEX
  8
MY3DLAYER
10
221.60988589853213
20
251.74088957328127
30
9.305889392408094e-14
 70
     32
  0
VERTEX
  8
MY3DLAYER
10
221.60988589853213
20
248.24088957328152
30
9.305889392408094e-14
 70
     32
  0
VERTEX
  8
MY3DLAYER
10
210.10988589853213
20
248.24088957328107
30
9.305889392408094e-14
 70
     32
  0
VERTEX
  8
MY3DLAYER
10
210.10988589853167
20
236.7408895732819
30
9.305889392408094e-14
 70
     32
  0
VERTEX
  8
MY3DLAYER
10
206.609885898532
20
236.74088957328215
30
9.305889392408094e-14
 70
     32
  0
VERTEX
  8
MY3DLAYER
10
206.60988589853247
20
221.74088957328178
30
9.305889392408094e-14
 70
     32
  0
VERTEX
  8
MY3DLAYER
10
210.10988589853196
20
221.7408895732815
30
9.305889392408094e-14
 70
     32
  0
VERTEX
  8
MY3DLAYER
10
210.1098858985322
20
199.24088957328192
30
9.305889392408094e-14
 70
     32
  0
VERTEX
  8
MY3DLAYER
10
206.6098858985322
20
199.24088957328226
30
9.305889392408094e-14
 70
     32
  0
VERTEX
  8
MY3DLAYER
10
206.60988589853264
20
184.2408895732808
30
9.305889392408094e-14
 70
     32
  0
VERTEX
  8
MY3DLAYER
10
210.10988589853196
20
184.2408895732819
30
9.305889392408094e-14
 70
     32
  0
VERTEX
  8
MY3DLAYER
10
210.10988589853204
20
161.7408895732815
30
9.305889392408094e-14
 70
     32
  0
VERTEX
  8
MY3DLAYER
10
206.60988589853164
20
161.74088957328223
30
9.305889392408094e-14
 70
     32
  0
VERTEX
  8
MY3DLAYER
10
206.60988589853284
20
146.74088957328158
30
9.305889392408094e-14
 70
     32
  0
VERTEX
  8
MY3DLAYER
10
210.10988589853275
20
146.74088957328158
30
9.305889392408094e-14
 70
     32
  0
VERTEX
  8
MY3DLAYER
10
210.10988589853312
20
135.24088957328152
30
9.305889392408094e-14
 70
     32
  0
VERTEX
  8
MY3DLAYER
10
221.60988589853338
20
135.24088957328104
30
9.305889392408094e-14
 70
     32
  0
VERTEX
  8
MY3DLAYER
10
221.60988589853338
20
131.7408895732822
30
9.305889392408094e-14
 70
     32
  0
VERTEX
  8
MY3DLAYER
10
236.60988589853204
20
131.74088957328186
30
9.305889392408094e-14
 70
     32
  0
VERTEX
  8
MY3DLAYER
10
236.60988589853224
20
135.24088957328027
30
9.305889392408094e-14
 70
     32
  0
VERTEX
  8
MY3DLAYER
10
299.109885898532
20
135.24088957328166
30
9.305889392408094e-14
 70
     32
  0
VERTEX
  8
MY3DLAYER
10
299.1098858985317
20
131.74088957328146
30
9.305889392408094e-14
 70
     32
  0
VERTEX
  8
MY3DLAYER
10
314.10988589853196
20
131.74088957328337
30
9.305889392408094e-14
 70
     32
  0
VERTEX
  8
MY3DLAYER
10
314.10988589853304
20
135.24088957328166
30
9.305889392408094e-14
 70
     32
  0
VERTEX
  8
MY3DLAYER
10
376.60988589853235
20
135.24088957328183
30
9.305889392408094e-14
 70
     32
  0
VERTEX
  8
MY3DLAYER
10
376.6098858985316
20
131.74088957328246
30
9.305889392408094e-14
 70
     32
  0
VERTEX
  8
MY3DLAYER
10
391.609885898533
20
131.7408895732827
30
9.305889392408094e-14
 70
     32
  0
VERTEX
  8
MY3DLAYER
10
391.60988589853264
20
135.24088957328226
30
9.305889392408094e-14
 70
     32
  0
SEQEND
  0
POLYLINE
 8
Bottom
 66
     1
70
    8
 10
0.0
 20
 0.0
 30
0.0
  0
VERTEX
  8
MY3DLAYER
10
379.1786801547997
20
230.72174874962235
30
0.04000000000009306
 70
     32
  0
VERTEX
  8
MY3DLAYER
10
379.232320001543
20
231.25559293863896
30
0.04000000000009306
 70
     32
  0
VERTEX
  8
MY3DLAYER
10
379.39323954177286
20
231.72302588883056
30
0.04000000000009306
 70
     32
  0
VERTEX
  8
MY3DLAYER
10
379.64483596578305
20
232.11893904336438
30
0.04000000000009306
 70
     32
  0
VERTEX
  8
MY3DLAYER
10
379.97050646386737
20
232.43822384540783
30
0.04000000000009306
 70
     32
  0
VERTEX
  8
MY3DLAYER
10
380.4149509083118
20
232.726218736851
30
0.04000000000009306
 70
     32
  0
VERTEX
  8
MY3DLAYER
10
380.8900466937524
20
232.9158739092648
30
0.04000000000009306
 70
     32
  0
VERTEX
  8
MY3DLAYER
10
381.45198794534883
20
233.02123789393912
30
0.04000000000009306
 70
     32
  0
VERTEX
  8
MY3DLAYER
10
382.1569687882607
20
233.0563592221639
30
0.04000000000009306
 70
     32
  0
VERTEX
  8
MY3DLAYER
10
384.3383225558214
20
233.0563592221639
30
0.04000000000009306
 70
     32
  0
VERTEX
  8
MY3DLAYER
10
384.33832255582143
20
225.4497180982814
30
0.04000000000009306
 70
     32
  0
VERTEX
  8
MY3DLAYER
10
382.320442606907
20
225.4497180982814
30
0.04000000000009306
 70
     32
  0
VERTEX
  8
MY3DLAYER
10
381.1020518023093
20
225.50335794502467
30
0.04000000000009306
 70
     32
  0
VERTEX
  8
MY3DLAYER
10
380.7042229389632
20
225.59339625920092
30
0.04000000000009306
 70
     32
  0
VERTEX
  8
MY3DLAYER
10
380.32299688532333
20
225.75623150824305
30
0.04000000000009306
 70
     32
  0
VERTEX
  8
MY3DLAYER
10
379.96922932465924
20
226.0097436410655
30
0.04000000000009306
 70
     32
  0
VERTEX
  8
MY3DLAYER
10
379.72529573589804
20
226.33094415192124
30
0.04000000000009306
 70
     32
  0
VERTEX
  8
MY3DLAYER
10
379.58353328379076
20
226.71727876239376
30
0.04000000000009306
 70
     32
  0
VERTEX
  8
MY3DLAYER
10
379.5362791330883
20
227.16619319406684
30
0.04000000000009306
 70
     32
  0
VERTEX
  8
MY3DLAYER
10
379.607160359142
20
227.67449459891995
30
0.04000000000009306
 70
     32
  0
VERTEX
  8
MY3DLAYER
10
379.81980403730284
20
228.12660187861346
30
0.04000000000009306
 70
     32
  0
VERTEX
  8
MY3DLAYER
10
380.15760735786483
20
228.50463508423283
30
0.04000000000009306
 70
     32
  0
VERTEX
  8
MY3DLAYER
10
380.60396751112154
20
228.79071426686377
30
0.04000000000009306
 70
     32
  0
VERTEX
  8
MY3DLAYER
10
380.60396751112154
20
228.83158272152534
30
0.04000000000009306
 70
     32
  0
VERTEX
  8
MY3DLAYER
10
380.00115780486357
20
229.09148055038867
30
0.04000000000009306
 70
     32
  0
VERTEX
  8
MY3DLAYER
10
379.55160480358643
20
229.50335794502467
30
0.04000000000009306
 70
     32
  0
VERTEX
  8
MY3DLAYER
10
379.27191131699635
20
230.0518892349353
30
0.04000000000009306
 70
     32
  0
VERTEX
  8
MY3DLAYER
10
379.1786801547997
20
230.72174874962235
30
0.04000000000009306
 70
     32
  0
SEQEND
  0
POLYLINE
 8
Bottom
 66
     1
70
    8
 10
0.0
 20
 0.0
 30
0.0
  0
VERTEX
  8
MY3DLAYER
10
380.58864184062344
20
227.30923278538228
30
0.04000000000009306
 70
     32
  0
VERTEX
  8
MY3DLAYER
10
380.680595863612
20
226.83158272152534
30
0.04000000000009306
 70
     32
  0
VERTEX
  8
MY3DLAYER
10
380.8006469491803
20
226.65086752356876
30
0.04000000000009306
 70
     32
  0
VERTEX
  8
MY3DLAYER
10
380.97689215990823
20
226.5122979194819
30
0.04000000000009306
 70
     32
  0
VERTEX
  8
MY3DLAYER
10
381.5235077410066
20
226.34371554400298
30
0.04000000000009306
 70
     32
  0
VERTEX
  8
MY3DLAYER
10
382.35620250473585
20
226.31306420300683
30
0.04000000000009306
 70
     32
  0
VERTEX
  8
MY3DLAYER
10
383.32682830294783
20
226.31306420300683
30
0.04000000000009306
 70
     32
  0
VERTEX
  8
MY3DLAYER
10
383.32682830294783
20
228.54039498206174
30
0.04000000000009306
 70
     32
  0
VERTEX
  8
MY3DLAYER
10
382.1774030155915
20
228.54039498206174
30
0.04000000000009306
 70
     32
  0
VERTEX
  8
MY3DLAYER
10
381.47753072951235
20
228.49186369215113
30
0.04000000000009306
 70
     32
  0
VERTEX
  8
MY3DLAYER
10
381.0126520577371
20
228.2900756972597
30
0.04000000000009306
 70
     32
  0
VERTEX
  8
MY3DLAYER
10
380.8159726196784
20
228.11893904336438
30
0.04000000000009306
 70
     32
  0
VERTEX
  8
MY3DLAYER
10
380.68570442044467
20
227.90182537797486
30
0.04000000000009306
 70
     32
  0
VERTEX
  8
MY3DLAYER
10
380.58864184062344
20
227.30923278538228
30
0.04000000000009306
 70
     32
  0
SEQEND
  0
POLYLINE
 8
Bottom
 66
     1
70
    8
 10
0.0
 20
 0.0
 30
0.0
  0
VERTEX
  8
MY3DLAYER
10
380.2310428623348
20
230.76261720428394
30
0.04000000000009306
 70
     32
  0
VERTEX
  8
MY3DLAYER
10
380.261694203331
20
230.3711740369787
30
0.04000000000009306
 70
     32
  0
VERTEX
  8
MY3DLAYER
10
380.3536482263195
20
230.0550820829557
30
0.04000000000009306
 70
     32
  0
VERTEX
  8
MY3DLAYER
10
380.5388334115047
20
229.7977385325087
30
0.04000000000009306
 70
     32
  0
VERTEX
  8
MY3DLAYER
10
380.84917823909086
20
229.58254057593146
30
0.04000000000009306
 70
     32
  0
VERTEX
  8
MY3DLAYER
10
381.37280531444213
20
229.4190667572852
30
0.04000000000009306
 70
     32
  0
VERTEX
  8
MY3DLAYER
10
382.1774030155915
20
229.38330685945635
30
0.04000000000009306
 70
     32
  0
VERTEX
  8
MY3DLAYER
10
383.32682830294783
20
229.38330685945635
30
0.04000000000009306
 70
     32
  0
VERTEX
  8
MY3DLAYER
10
383.32682830294783
20
232.19301311743848
30
0.04000000000009306
 70
     32
  0
VERTEX
  8
MY3DLAYER
10
382.50435065288394
20
232.19301311743848
30
0.04000000000009306
 70
     32
  0
VERTEX
  8
MY3DLAYER
10
381.4570965021815
20
232.13171043544614
30
0.04000000000009306
 70
     32
  0
VERTEX
  8
MY3DLAYER
10
381.09694324547655
20
232.03592499483312
30
0.04000000000009306
 70
     32
  0
VERTEX
  8
MY3DLAYER
10
380.78276700026584
20
231.87117403697872
30
0.04000000000009306
 70
     32
  0
VERTEX
  8
MY3DLAYER
10
380.53500199388014
20
231.65853035881779
30
0.04000000000009306
 70
     32
  0
VERTEX
  8
MY3DLAYER
10
380.3638653399849
20
231.4190667572852
30
0.04000000000009306
 70
     32
  0
VERTEX
  8
MY3DLAYER
10
380.2642484817473
20
231.1285175874257
30
0.04000000000009306
 70
     32
  0
VERTEX
  8
MY3DLAYER
10
380.2310428623348
20
230.76261720428394
30
0.04000000000009306
 70
     32
  0
SEQEND
  0
POLYLINE
 8
Bottom
 66
     1
70
    8
 10
0.0
 20
 0.0
 30
0.0
  0
VERTEX
  8
MY3DLAYER
10
373.55415908200274
20
230.20578450952019
30
0.04000000000009306
 70
     32
  0
VERTEX
  8
MY3DLAYER
10
373.5975818150807
20
230.88506292586754
30
0.04000000000009306
 70
     32
  0
VERTEX
  8
MY3DLAYER
10
373.7278500143144
20
231.48228514808977
30
0.04000000000009306
 70
     32
  0
VERTEX
  8
MY3DLAYER
10
373.9449636797039
20
231.99745117618684
30
0.04000000000009306
 70
     32
  0
VERTEX
  8
MY3DLAYER
10
374.2489228112492
20
232.43056101015875
30
0.04000000000009306
 70
     32
  0
VERTEX
  8
MY3DLAYER
10
374.6250403080564
20
232.7736325299544
30
0.04000000000009306
 70
     32
  0
VERTEX
  8
MY3DLAYER
10
375.05862906923136
20
233.01868361552275
30
0.04000000000009306
 70
     32
  0
VERTEX
  8
MY3DLAYER
10
375.5496890947741
20
233.16571426686372
30
0.04000000000009306
 70
     32
  0
VERTEX
  8
MY3DLAYER
10
376.09822038468474
20
233.21472448397742
30
0.04000000000009306
 70
     32
  0
VERTEX
  8
MY3DLAYER
10
376.66159841789033
20
233.16411784285353
30
0.04000000000009306
 70
     32
  0
VERTEX
  8
MY3DLAYER
10
377.16143877548933
20
233.01229791948188
30
0.04000000000009306
 70
     32
  0
VERTEX
  8
MY3DLAYER
10
377.5977414574817
20
232.75926471386248
30
0.04000000000009306
 70
     32
  0
VERTEX
  8
MY3DLAYER
10
377.97050646386737
20
232.40501822599532
30
0.04000000000009306
 70
     32
  0
VERTEX
  8
MY3DLAYER
10
378.268878111377
20
231.96392627197233
30
0.04000000000009306
 70
     32
  0
VERTEX
  8
MY3DLAYER
10
378.4820007167409
20
231.45035666788544
30
0.04000000000009306
 70
     32
  0
VERTEX
  8
MY3DLAYER
10
378.60987427995934
20
230.86430941373476
30
0.04000000000009306
 70
     32
  0
VERTEX
  8
MY3DLAYER
10
378.65249880103215
20
230.2057845095202
30
0.04000000000009306
 70
     32
  0
VERTEX
  8
MY3DLAYER
10
378.60859714075116
20
229.53049715319835
30
0.04000000000009306
 70
     32
  0
VERTEX
  8
MY3DLAYER
10
378.47689215990823
20
228.9350309973874
30
0.04000000000009306
 70
     32
  0
VERTEX
  8
MY3DLAYER
10
378.2573838585034
20
228.41938604208727
30
0.04000000000009306
 70
     32
  0
VERTEX
  8
MY3DLAYER
10
377.9500722365366
20
227.98356228729796
30
0.04000000000009306
 70
     32
  0
VERTEX
  8
MY3DLAYER
10
377.57092153411
20
227.63713827708085
30
0.04000000000009306
 70
     32
  0
VERTEX
  8
MY3DLAYER
10
377.13589599132587
20
227.38969255549722
30
0.04000000000009306
 70
     32
  0
VERTEX
  8
MY3DLAYER
10
376.6449956081841
20
227.24122512254704
30
0.04000000000009306
 70
     32
  0
VERTEX
  8
MY3DLAYER
10
376.09822038468474
20
227.1917359782303
30
0.04000000000009306
 70
     32
  0
VERTEX
  8
MY3DLAYER
10
375.5496890947741
20
227.24106548014598
30
0.04000000000009306
 70
     32
  0
VERTEX
  8
MY3DLAYER
10
375.05862906923136
20
227.38905398589313
30
0.04000000000009306
 70
     32
  0
VERTEX
  8
MY3DLAYER
10
374.6250403080564
20
227.63570149547164
30
0.04000000000009306
 70
     32
  0
VERTEX
  8
MY3DLAYER
10
374.24892281124926
20
227.9810080088816
30
0.04000000000009306
 70
     32
  0
VERTEX
  8
MY3DLAYER
10
373.9449636797039
20
228.41603355166578
30
0.04000000000009306
 70
     32
  0
VERTEX
  8
MY3DLAYER
10
373.7278500143144
20
228.9318381493669
30
0.04000000000009306
 70
     32
  0
VERTEX
  8
MY3DLAYER
10
373.5975818150807
20
229.52842180198508
30
0.04000000000009306
 70
     32
  0
VERTEX
  8
MY3DLAYER
10
373.55415908200274
20
230.20578450952019
30
0.04000000000009306
 70
     32
  0
SEQEND
  0
POLYLINE
 8
Bottom
 66
     1
70
    8
 10
0.0
 20
 0.0
 30
0.0
  0
VERTEX
  8
MY3DLAYER
10
374.54521910754556
20
230.20578450952019
30
0.04000000000009306
 70
     32
  0
VERTEX
  8
MY3DLAYER
10
374.64611310499123
20
229.23962869853676
30
0.04000000000009306
 70
     32
  0
VERTEX
  8
MY3DLAYER
10
374.7722306017984
20
228.8633515593286
30
0.04000000000009306
 70
     32
  0
VERTEX
  8
MY3DLAYER
10
374.94879509732846
20
228.55827493097613
30
0.04000000000009306
 70
     32
  0
VERTEX
  8
MY3DLAYER
10
375.17197517395675
20
228.32248310466707
30
0.04000000000009306
 70
     32
  0
VERTEX
  8
MY3DLAYER
10
375.437939414059
20
228.15406037158914
30
0.04000000000009306
 70
     32
  0
VERTEX
  8
MY3DLAYER
10
375.74668781763495
20
228.05300673174239
30
0.04000000000009306
 70
     32
  0
VERTEX
  8
MY3DLAYER
10
376.09822038468474
20
228.0193221851268
30
0.04000000000009306
 70
     32
  0
VERTEX
  8
MY3DLAYER
10
376.4521475877499
20
228.05300673174239
30
0.04000000000009306
 70
     32
  0
VERTEX
  8
MY3DLAYER
10
376.7629713425392
20
228.15406037158917
30
0.04000000000009306
 70
     32
  0
VERTEX
  8
MY3DLAYER
10
377.0306916490526
20
228.32248310466707
30
0.04000000000009306
 70
     32
  0
VERTEX
  8
MY3DLAYER
10
377.2553085072901
20
228.55827493097613
30
0.04000000000009306
 70
     32
  0
VERTEX
  8
MY3DLAYER
10
377.43299049962724
20
228.86335155932863
30
0.04000000000009306
 70
     32
  0
VERTEX
  8
MY3DLAYER
10
377.55990620843954
20
229.23962869853682
30
0.04000000000009306
 70
     32
  0
VERTEX
  8
MY3DLAYER
10
377.66143877548933
20
230.20578450952019
30
0.04000000000009306
 70
     32
  0
VERTEX
  8
MY3DLAYER
10
377.55990620843954
20
231.14895181475646
30
0.04000000000009306
 70
     32
  0
VERTEX
  8
MY3DLAYER
10
377.43299049962724
20
231.52331324515237
30
0.04000000000009306
 70
     32
  0
VERTEX
  8
MY3DLAYER
10
377.25530850729007
20
231.8328598607335
30
0.04000000000009306
 70
     32
  0
VERTEX
  8
MY3DLAYER
10
377.0306916490525
20
232.07535666788544
30
0.04000000000009306
 70
     32
  0
VERTEX
  8
MY3DLAYER
10
376.7629713425391
20
232.248568672994
30
0.04000000000009306
 70
     32
  0
VERTEX
  8
MY3DLAYER
10
376.45214758774983
20
232.35249587605915
30
0.04000000000009306
 70
     32
  0
VERTEX
  8
MY3DLAYER
10
376.09822038468474
20
232.38713827708085
30
0.04000000000009306
 70
     32
  0
VERTEX
  8
MY3DLAYER
10
375.7487631688482
20
232.35313444566322
30
0.04000000000009306
 70
     32
  0
VERTEX
  8
MY3DLAYER
10
375.4411322620794
20
232.25112295141037
30
0.04000000000009306
 70
     32
  0
VERTEX
  8
MY3DLAYER
10
375.1753276643782
20
232.08110379432222
30
0.04000000000009306
 70
     32
  0
VERTEX
  8
MY3DLAYER
10
374.95134937574477
20
231.84307697439883
30
0.04000000000009306
 70
     32
  0
VERTEX
  8
MY3DLAYER
10
374.7736673834076
20
231.5367232068382
30
0.04000000000009306
 70
     32
  0
VERTEX
  8
MY3DLAYER
10
374.64675167459535
20
231.1617232068382
30
0.04000000000009306
 70
     32
  0
VERTEX
  8
MY3DLAYER
10
374.54521910754556
20
230.20578450952019
30
0.04000000000009306
 70
     32
  0
SEQEND
  0
POLYLINE
 8
Bottom
 66
     1
70
    8
 10
0.0
 20
 0.0
 30
0.0
  0
VERTEX
  8
MY3DLAYER
10
370.8415154038418
20
233.16874747248312
30
0.04000000000009306
 70
     32
  0
VERTEX
  8
MY3DLAYER
10
371.2131629134204
20
233.14081005230435
30
0.04000000000009306
 70
     32
  0
VERTEX
  8
MY3DLAYER
10
371.54138768992095
20
233.0569977917679
30
0.04000000000009306
 70
     32
  0
VERTEX
  8
MY3DLAYER
10
371.82618973334377
20
232.9173106908739
30
0.04000000000009306
 70
     32
  0
VERTEX
  8
MY3DLAYER
10
372.06756904368854
20
232.72174874962235
30
0.04000000000009306
 70
     32
  0
VERTEX
  8
MY3DLAYER
10
372.2597784945187
20
232.46584198078455
30
0.04000000000009306
 70
     32
  0
VERTEX
  8
MY3DLAYER
10
372.39707095939735
20
232.14512039713193
30
0.04000000000009306
 70
     32
  0
VERTEX
  8
MY3DLAYER
10
372.47944643832454
20
231.75958399866448
30
0.04000000000009306
 70
     32
  0
VERTEX
  8
MY3DLAYER
10
372.5069049313003
20
231.30923278538222
30
0.04000000000009306
 70
     32
  0
VERTEX
  8
MY3DLAYER
10
372.5069049313003
20
228.14703610594415
30
0.04000000000009306
 70
     32
  0
VERTEX
  8
MY3DLAYER
10
373.1556916490526
20
228.14703610594415
30
0.04000000000009306
 70
     32
  0
VERTEX
  8
MY3DLAYER
10
373.1556916490526
20
227.35010124004378
30
0.04000000000009306
 70
     32
  0
VERTEX
  8
MY3DLAYER
10
372.5069049313003
20
227.35010124004378
30
0.04000000000009306
 70
     32
  0
VERTEX
  8
MY3DLAYER
10
372.5069049313003
20
225.71025449674875
30
0.04000000000009306
 70
     32
  0
VERTEX
  8
MY3DLAYER
10
371.54649624675375
20
225.71025449674875
30
0.04000000000009306
 70
     32
  0
VERTEX
  8
MY3DLAYER
10
371.54649624675375
20
227.35010124004378
30
0.04000000000009306
 70
     32
  0
VERTEX
  8
MY3DLAYER
10
369.77893558264134
20
227.35010124004378
30
0.04000000000009306
 70
     32
  0
VERTEX
  8
MY3DLAYER
10
369.77893558264134
20
228.14703610594415
30
0.04000000000009306
 70
     32
  0
VERTEX
  8
MY3DLAYER
10
371.54649624675375
20
228.14703610594415
30
0.04000000000009306
 70
     32
  0
VERTEX
  8
MY3DLAYER
10
371.54649624675375
20
230.8596797841051
30
0.04000000000009306
 70
     32
  0
VERTEX
  8
MY3DLAYER
10
371.53117057625565
20
231.52890072918814
30
0.04000000000009306
 70
     32
  0
VERTEX
  8
MY3DLAYER
10
371.41367376910364
20
231.96823661679986
30
0.04000000000009306
 70
     32
  0
VERTEX
  8
MY3DLAYER
10
371.3000083795762
20
232.12468616980112
30
0.04000000000009306
 70
     32
  0
VERTEX
  8
MY3DLAYER
10
371.13270314330543
20
232.23643585051633
30
0.04000000000009306
 70
     32
  0
VERTEX
  8
MY3DLAYER
10
370.60652178953785
20
232.3258355950885
30
0.04000000000009306
 70
     32
  0
VERTEX
  8
MY3DLAYER
10
370.15186023142803
20
232.2568700778471
30
0.04000000000009306
 70
     32
  0
VERTEX
  8
MY3DLAYER
10
369.83512970780095
20
232.14192754911144
30
0.04000000000009306
 70
     32
  0
VERTEX
  8
MY3DLAYER
10
369.7789355826413
20
232.14192754911144
30
0.04000000000009306
 70
     32
  0
VERTEX
  8
MY3DLAYER
10
369.7789355826413
20
233.00527365383687
30
0.04000000000009306
 70
     32
  0
VERTEX
  8
MY3DLAYER
10
370.328105442156
20
233.1253247394052
30
0.04000000000009306
 70
     32
  0
VERTEX
  8
MY3DLAYER
10
370.8415154038418
20
233.16874747248312
30
0.04000000000009306
 70
     32
  0
SEQEND
  0
POLYLINE
 8
Bottom
 66
     1
70
    8
 10
0.0
 20
 0.0
 30
0.0
  0
VERTEX
  8
MY3DLAYER
10
367.3421539734459
20
233.16874747248312
30
0.04000000000009306
 70
     32
  0
VERTEX
  8
MY3DLAYER
10
367.71380148302444
20
233.1408100523043
30
0.04000000000009306
 70
     32
  0
VERTEX
  8
MY3DLAYER
10
368.0420262595251
20
233.0569977917679
30
0.04000000000009306
 70
     32
  0
VERTEX
  8
MY3DLAYER
10
368.32682830294783
20
232.9173106908739
30
0.04000000000009306
 70
     32
  0
VERTEX
  8
MY3DLAYER
10
368.56820761329266
20
232.72174874962232
30
0.04000000000009306
 70
     32
  0
VERTEX
  8
MY3DLAYER
10
368.76041706412275
20
232.46584198078452
30
0.04000000000009306
 70
     32
  0
VERTEX
  8
MY3DLAYER
10
368.8977095290015
20
232.14512039713188
30
0.04000000000009306
 70
     32
  0
VERTEX
  8
MY3DLAYER
10
368.98008500792866
20
231.75958399866448
30
0.04000000000009306
 70
     32
  0
VERTEX
  8
MY3DLAYER
10
369.00754350090443
20
231.30923278538222
30
0.04000000000009306
 70
     32
  0
VERTEX
  8
MY3DLAYER
10
369.00754350090443
20
228.14703610594415
30
0.04000000000009306
 70
     32
  0
VERTEX
  8
MY3DLAYER
10
369.65633021865665
20
228.14703610594415
30
0.04000000000009306
 70
     32
  0
VERTEX
  8
MY3DLAYER
10
369.65633021865665
20
227.35010124004378
30
0.04000000000009306
 70
     32
  0
VERTEX
  8
MY3DLAYER
10
369.00754350090443
20
227.35010124004378
30
0.04000000000009306
 70
     32
  0
VERTEX
  8
MY3DLAYER
10
369.00754350090443
20
225.71025449674875
30
0.04000000000009306
 70
     32
  0
VERTEX
  8
MY3DLAYER
10
368.0471348163578
20
225.71025449674875
30
0.04000000000009306
 70
     32
  0
VERTEX
  8
MY3DLAYER
10
368.0471348163578
20
227.35010124004378
30
0.04000000000009306
 70
     32
  0
VERTEX
  8
MY3DLAYER
10
366.2795741522454
20
227.35010124004376
30
0.04000000000009306
 70
     32
  0
VERTEX
  8
MY3DLAYER
10
366.2795741522454
20
228.14703610594415
30
0.04000000000009306
 70
     32
  0
VERTEX
  8
MY3DLAYER
10
368.0471348163578
20
228.14703610594415
30
0.04000000000009306
 70
     32
  0
VERTEX
  8
MY3DLAYER
10
368.0471348163578
20
230.85967978410505
30
0.04000000000009306
 70
     32
  0
VERTEX
  8
MY3DLAYER
10
368.0318091458597
20
231.52890072918808
30
0.04000000000009306
 70
     32
  0
VERTEX
  8
MY3DLAYER
10
367.9143123387077
20
231.96823661679986
30
0.04000000000009306
 70
     32
  0
VERTEX
  8
MY3DLAYER
10
367.80064694918025
20
232.12468616980112
30
0.04000000000009306
 70
     32
  0
VERTEX
  8
MY3DLAYER
10
367.63334171290956
20
232.23643585051633
30
0.04000000000009306
 70
     32
  0
VERTEX
  8
MY3DLAYER
10
367.107160359142
20
232.32583559508845
30
0.04000000000009306
 70
     32
  0
VERTEX
  8
MY3DLAYER
10
366.6524988010321
20
232.25687007784708
30
0.04000000000009306
 70
     32
  0
VERTEX
  8
MY3DLAYER
10
366.335768277405
20
232.14192754911144
30
0.04000000000009306
 70
     32
  0
VERTEX
  8
MY3DLAYER
10
366.2795741522454
20
232.14192754911144
30
0.04000000000009306
 70
     32
  0
VERTEX
  8
MY3DLAYER
10
366.2795741522454
20
233.00527365383687
30
0.04000000000009306
 70
     32
  0
VERTEX
  8
MY3DLAYER
10
366.8287440117601
20
233.1253247394052
30
0.04000000000009306
 70
     32
  0
VERTEX
  8
MY3DLAYER
10
367.3421539734459
20
233.16874747248312
30
0.04000000000009306
 70
     32
  0
SEQEND
  0
POLYLINE
 8
Bottom
 66
     1
70
    8
 10
0.0
 20
 0.0
 30
0.0
  0
VERTEX
  8
MY3DLAYER
10
360.8747210232543
20
230.2057845095201
30
0.04000000000009306
 70
     32
  0
VERTEX
  8
MY3DLAYER
10
360.91814375633226
20
230.88506292586752
30
0.04000000000009306
 70
     32
  0
VERTEX
  8
MY3DLAYER
10
361.04841195556594
20
231.48228514808972
30
0.04000000000009306
 70
     32
  0
VERTEX
  8
MY3DLAYER
10
361.2655256209555
20
231.99745117618676
30
0.04000000000009306
 70
     32
  0
VERTEX
  8
MY3DLAYER
10
361.56948475250084
20
232.43056101015867
30
0.04000000000009306
 70
     32
  0
VERTEX
  8
MY3DLAYER
10
361.94560224930797
20
232.7736325299543
30
0.04000000000009306
 70
     32
  0
VERTEX
  8
MY3DLAYER
10
362.37919101048294
20
233.01868361552266
30
0.04000000000009306
 70
     32
  0
VERTEX
  8
MY3DLAYER
10
362.8702510360257
20
233.1657142668637
30
0.04000000000009306
 70
     32
  0
VERTEX
  8
MY3DLAYER
10
363.4187823259363
20
233.2147244839773
30
0.04000000000009306
 70
     32
  0
VERTEX
  8
MY3DLAYER
10
363.9821603591419
20
233.16411784285347
30
0.04000000000009306
 70
     32
  0
VERTEX
  8
MY3DLAYER
10
364.4820007167409
20
233.0122979194818
30
0.04000000000009306
 70
     32
  0
VERTEX
  8
MY3DLAYER
10
364.91830339873326
20
232.75926471386242
30
0.04000000000009306
 70
     32
  0
VERTEX
  8
MY3DLAYER
10
365.29106840511895
20
232.40501822599524
30
0.04000000000009306
 70
     32
  0
VERTEX
  8
MY3DLAYER
10
365.58944005262856
20
231.9639262719722
30
0.04000000000009306
 70
     32
  0
VERTEX
  8
MY3DLAYER
10
365.80256265799255
20
231.45035666788542
30
0.04000000000009306
 70
     32
  0
VERTEX
  8
MY3DLAYER
10
365.9304362212109
20
230.8643094137347
30
0.04000000000009306
 70
     32
  0
VERTEX
  8
MY3DLAYER
10
365.97306074228374
20
230.20578450952013
30
0.04000000000009306
 70
     32
  0
VERTEX
  8
MY3DLAYER
10
365.92915908200274
20
229.5304971531983
30
0.04000000000009306
 70
     32
  0
VERTEX
  8
MY3DLAYER
10
365.7974541011598
20
228.9350309973873
30
0.04000000000009306
 70
     32
  0
VERTEX
  8
MY3DLAYER
10
365.577945799755
20
228.41938604208718
30
0.04000000000009306
 70
     32
  0
VERTEX
  8
MY3DLAYER
10
365.2706341777882
20
227.98356228729793
30
0.04000000000009306
 70
     32
  0
VERTEX
  8
MY3DLAYER
10
364.89148347536167
20
227.6371382770808
30
0.04000000000009306
 70
     32
  0
VERTEX
  8
MY3DLAYER
10
364.45645793257745
20
227.38969255549713
30
0.04000000000009306
 70
     32
  0
VERTEX
  8
MY3DLAYER
10
363.96555754943574
20
227.24122512254692
30
0.04000000000009306
 70
     32
  0
VERTEX
  8
MY3DLAYER
10
363.4187823259363
20
227.1917359782302
30
0.04000000000009306
 70
     32
  0
VERTEX
  8
MY3DLAYER
10
362.87025103602576
20
227.24106548014592
30
0.04000000000009306
 70
     32
  0
VERTEX
  8
MY3DLAYER
10
362.37919101048294
20
227.389053985893
30
0.04000000000009306
 70
     32
  0
VERTEX
  8
MY3DLAYER
10
361.94560224930797
20
227.63570149547158
30
0.04000000000009306
 70
     32
  0
VERTEX
  8
MY3DLAYER
10
361.56948475250084
20
227.98100800888156
30
0.04000000000009306
 70
     32
  0
VERTEX
  8
MY3DLAYER
10
361.2655256209555
20
228.4160335516657
30
0.04000000000009306
 70
     32
  0
VERTEX
  8
MY3DLAYER
10
361.048411955566
20
228.93183814936685
30
0.04000000000009306
 70
     32
  0
VERTEX
  8
MY3DLAYER
10
360.91814375633226
20
229.528421801985
30
0.04000000000009306
 70
     32
  0
VERTEX
  8
MY3DLAYER
10
360.8747210232543
20
230.2057845095201
30
0.04000000000009306
 70
     32
  0
SEQEND
  0
POLYLINE
 8
Bottom
 66
     1
70
    8
 10
0.0
 20
 0.0
 30
0.0
  0
VERTEX
  8
MY3DLAYER
10
361.8657810487971
20
230.20578450952013
30
0.04000000000009306
 70
     32
  0
VERTEX
  8
MY3DLAYER
10
361.96667504624287
20
229.2396286985367
30
0.04000000000009306
 70
     32
  0
VERTEX
  8
MY3DLAYER
10
362.09279254305
20
228.86335155932855
30
0.04000000000009306
 70
     32
  0
VERTEX
  8
MY3DLAYER
10
362.26935703858004
20
228.55827493097607
30
0.04000000000009306
 70
     32
  0
VERTEX
  8
MY3DLAYER
10
362.4925371152084
20
228.322483104667
30
0.04000000000009306
 70
     32
  0
VERTEX
  8
MY3DLAYER
10
362.75850135531056
20
228.15406037158908
30
0.04000000000009306
 70
     32
  0
VERTEX
  8
MY3DLAYER
10
363.0672497588866
20
228.05300673174236
30
0.04000000000009306
 70
     32
  0
VERTEX
  8
MY3DLAYER
10
363.4187823259363
20
228.01932218512678
30
0.04000000000009306
 70
     32
  0
VERTEX
  8
MY3DLAYER
10
363.7727095290015
20
228.05300673174236
30
0.04000000000009306
 70
     32
  0
VERTEX
  8
MY3DLAYER
10
364.08353328379076
20
228.15406037158908
30
0.04000000000009306
 70
     32
  0
VERTEX
  8
MY3DLAYER
10
364.35125359030417
20
228.322483104667
30
0.04000000000009306
 70
     32
  0
VERTEX
  8
MY3DLAYER
10
364.5758704485417
20
228.55827493097607
30
0.04000000000009306
 70
     32
  0
VERTEX
  8
MY3DLAYER
10
364.7535524408789
20
228.86335155932855
30
0.04000000000009306
 70
     32
  0
VERTEX
  8
MY3DLAYER
10
364.8804681496911
20
229.2396286985367
30
0.04000000000009306
 70
     32
  0
VERTEX
  8
MY3DLAYER
10
364.9820007167409
20
230.20578450952013
30
0.04000000000009306
 70
     32
  0
VERTEX
  8
MY3DLAYER
10
364.8804681496911
20
231.14895181475637
30
0.04000000000009306
 70
     32
  0
VERTEX
  8
MY3DLAYER
10
364.7535524408789
20
231.52331324515234
30
0.04000000000009306
 70
     32
  0
VERTEX
  8
MY3DLAYER
10
364.57587044854165
20
231.8328598607334
30
0.04000000000009306
 70
     32
  0
VERTEX
  8
MY3DLAYER
10
364.3512535903041
20
232.07535666788542
30
0.04000000000009306
 70
     32
  0
VERTEX
  8
MY3DLAYER
10
364.0835332837907
20
232.24856867299394
30
0.04000000000009306
 70
     32
  0
VERTEX
  8
MY3DLAYER
10
363.7727095290015
20
232.35249587605907
30
0.04000000000009306
 70
     32
  0
VERTEX
  8
MY3DLAYER
10
363.4187823259363
20
232.3871382770808
30
0.04000000000009306
 70
     32
  0
VERTEX
  8
MY3DLAYER
10
363.0693251100998
20
232.35313444566316
30
0.04000000000009306
 70
     32
  0
VERTEX
  8
MY3DLAYER
10
362.76169420333093
20
232.25112295141028
30
0.04000000000009306
 70
     32
  0
VERTEX
  8
MY3DLAYER
10
362.4958896056298
20
232.08110379432216
30
0.04000000000009306
 70
     32
  0
VERTEX
  8
MY3DLAYER
10
362.27191131699635
20
231.8430769743988
30
0.04000000000009306
 70
     32
  0
VERTEX
  8
MY3DLAYER
10
362.0942293246592
20
231.5367232068381
30
0.04000000000009306
 70
     32
  0
VERTEX
  8
MY3DLAYER
10
361.96731361584693
20
231.1617232068381
30
0.04000000000009306
 70
     32
  0
VERTEX
  8
MY3DLAYER
10
361.8657810487971
20
230.20578450952013
30
0.04000000000009306
 70
     32
  0
SEQEND
  0
POLYLINE
 8
Bottom
 66
     1
70
    8
 10
0.0
 20
 0.0
 30
0.0
  0
VERTEX
  8
MY3DLAYER
10
353.41111949068727
20
233.05635922216374
30
0.04000000000009306
 70
     32
  0
VERTEX
  8
MY3DLAYER
10
353.41111949068727
20
229.7562315082429
30
0.04000000000009306
 70
     32
  0
VERTEX
  8
MY3DLAYER
10
353.44177083168347
20
229.0282621595839
30
0.04000000000009306
 70
     32
  0
VERTEX
  8
MY3DLAYER
10
353.56948475250084
20
228.50463508423272
30
0.04000000000009306
 70
     32
  0
VERTEX
  8
MY3DLAYER
10
353.6933672556937
20
228.32711273429658
30
0.04000000000009306
 70
     32
  0
VERTEX
  8
MY3DLAYER
10
353.86067249196446
20
228.20323023110373
30
0.04000000000009306
 70
     32
  0
VERTEX
  8
MY3DLAYER
10
354.0828947141867
20
228.1304332962378
30
0.04000000000009306
 70
     32
  0
VERTEX
  8
MY3DLAYER
10
354.37152817523395
20
228.10616765128253
30
0.04000000000009306
 70
     32
  0
VERTEX
  8
MY3DLAYER
10
354.6786801547997
20
228.1515060931727
30
0.04000000000009306
 70
     32
  0
VERTEX
  8
MY3DLAYER
10
355.00754350090443
20
228.2875214188432
30
0.04000000000009306
 70
     32
  0
VERTEX
  8
MY3DLAYER
10
355.70997006539994
20
228.81114849419438
30
0.04000000000009306
 70
     32
  0
VERTEX
  8
MY3DLAYER
10
355.6971986733182
20
229.01804504591857
30
0.04000000000009306
 70
     32
  0
VERTEX
  8
MY3DLAYER
10
355.68953583806916
20
229.3015699501331
30
0.04000000000009306
 70
     32
  0
VERTEX
  8
MY3DLAYER
10
355.68953583806916
20
233.05635922216376
30
0.04000000000009306
 70
     32
  0
VERTEX
  8
MY3DLAYER
10
356.6499445226158
20
233.05635922216376
30
0.04000000000009306
 70
     32
  0
VERTEX
  8
MY3DLAYER
10
356.6499445226158
20
229.75623150824296
30
0.04000000000009306
 70
     32
  0
VERTEX
  8
MY3DLAYER
10
356.680595863612
20
229.02826215958396
30
0.04000000000009306
 70
     32
  0
VERTEX
  8
MY3DLAYER
10
356.8083097844293
20
228.50463508423272
30
0.04000000000009306
 70
     32
  0
VERTEX
  8
MY3DLAYER
10
356.9321922876222
20
228.32711273429658
30
0.04000000000009306
 70
     32
  0
VERTEX
  8
MY3DLAYER
10
357.0994975238929
20
228.20323023110373
30
0.04000000000009306
 70
     32
  0
VERTEX
  8
MY3DLAYER
10
357.32171974611515
20
228.13043329623787
30
0.04000000000009306
 70
     32
  0
VERTEX
  8
MY3DLAYER
10
357.6103532071624
20
228.10616765128253
30
0.04000000000009306
 70
     32
  0
VERTEX
  8
MY3DLAYER
10
357.92963800920586
20
228.15469894119315
30
0.04000000000009306
 70
     32
  0
VERTEX
  8
MY3DLAYER
10
358.26424848174736
20
228.30029281092496
30
0.04000000000009306
 70
     32
  0
VERTEX
  8
MY3DLAYER
10
358.9283608699977
20
228.79582282369634
30
0.04000000000009306
 70
     32
  0
VERTEX
  8
MY3DLAYER
10
358.9283608699976
20
233.05635922216376
30
0.04000000000009306
 70
     32
  0
VERTEX
  8
MY3DLAYER
10
359.88876955454424
20
233.05635922216376
30
0.04000000000009306
 70
     32
  0
VERTEX
  8
MY3DLAYER
10
359.8887695545443
20
227.35010124004376
30
0.04000000000009306
 70
     32
  0
VERTEX
  8
MY3DLAYER
10
358.9283608699977
20
227.3501012400437
30
0.04000000000009306
 70
     32
  0
VERTEX
  8
MY3DLAYER
10
358.9283608699977
20
227.98356228729787
30
0.04000000000009306
 70
     32
  0
VERTEX
  8
MY3DLAYER
10
358.5522433731905
20
227.64831324515225
30
0.04000000000009306
 70
     32
  0
VERTEX
  8
MY3DLAYER
10
358.17995729400786
20
227.3986325299543
30
0.04000000000009306
 70
     32
  0
VERTEX
  8
MY3DLAYER
10
357.791068405119
20
227.2434601161612
30
0.04000000000009306
 70
     32
  0
VERTEX
  8
MY3DLAYER
10
357.3651424791931
20
227.19173597823016
30
0.04000000000009306
 70
     32
  0
VERTEX
  8
MY3DLAYER
10
356.8881309849402
20
227.24920724259798
30
0.04000000000009306
 70
     32
  0
VERTEX
  8
MY3DLAYER
10
356.4685907550551
20
227.42162103570143
30
0.04000000000009306
 70
     32
  0
VERTEX
  8
MY3DLAYER
10
356.1244017384523
20
227.72558016724676
30
0.04000000000009306
 70
     32
  0
VERTEX
  8
MY3DLAYER
10
355.8734438840462
20
228.17768744694027
30
0.04000000000009306
 70
     32
  0
VERTEX
  8
MY3DLAYER
10
355.44432511009984
20
227.75112295141025
30
0.04000000000009306
 70
     32
  0
VERTEX
  8
MY3DLAYER
10
355.0254234498189
20
227.4420552630322
30
0.04000000000009306
 70
     32
  0
VERTEX
  8
MY3DLAYER
10
354.5937503974562
20
227.25431579943066
30
0.04000000000009306
 70
     32
  0
VERTEX
  8
MY3DLAYER
10
354.12631744726457
20
227.19173597823016
30
0.04000000000009306
 70
     32
  0
VERTEX
  8
MY3DLAYER
10
353.77510416501684
20
227.22047161041408
30
0.04000000000009306
 70
     32
  0
VERTEX
  8
MY3DLAYER
10
353.45709650218157
20
227.30667850696577
30
0.04000000000009306
 70
     32
  0
VERTEX
  8
MY3DLAYER
10
353.1748487371752
20
227.4567423639262
30
0.04000000000009306
 70
     32
  0
VERTEX
  8
MY3DLAYER
10
352.930915148414
20
227.67704887733615
30
0.04000000000009306
 70
     32
  0
VERTEX
  8
MY3DLAYER
10
352.72721144471035
20
227.96951375600793
30
0.04000000000009306
 70
     32
  0
VERTEX
  8
MY3DLAYER
10
352.5758704485417
20
228.32583559508836
30
0.04000000000009306
 70
     32
  0
VERTEX
  8
MY3DLAYER
10
352.4820007167409
20
228.76389434349198
30
0.04000000000009306
 70
     32
  0
VERTEX
  8
MY3DLAYER
10
352.4507108061407
20
229.30156995013309
30
0.04000000000009306
 70
     32
  0
VERTEX
  8
MY3DLAYER
10
352.4507108061407
20
233.05635922216374
30
0.04000000000009306
 70
     32
  0
VERTEX
  8
MY3DLAYER
10
353.41111949068727
20
233.05635922216374
30
0.04000000000009306
 70
     32
  0
SEQEND
  0
POLYLINE
 8
Back
 66
     1
70
    8
 10
0.0
 20
 0.0
 30
0.0
  0
VERTEX
  8
MY3DLAYER
10
25.91910383376386
20
232.2428948054772
30
0.04000000000004512
 70
     32
  0
VERTEX
  8
MY3DLAYER
10
25.86546398702056
20
231.7090506164606
30
0.04000000000004512
 70
     32
  0
VERTEX
  8
MY3DLAYER
10
25.70454444679068
20
231.24161766626904
30
0.04000000000004512
 70
     32
  0
VERTEX
  8
MY3DLAYER
10
25.45294802278046
20
230.84570451173516
30
0.04000000000004512
 70
     32
  0
VERTEX
  8
MY3DLAYER
10
25.12727752469617
20
230.52641970969177
30
0.04000000000004512
 70
     32
  0
VERTEX
  8
MY3DLAYER
10
24.682833080251726
20
230.23842481824855
30
0.04000000000004512
 70
     32
  0
VERTEX
  8
MY3DLAYER
10
24.20773729481111
20
230.0487696458348
30
0.04000000000004512
 70
     32
  0
VERTEX
  8
MY3DLAYER
10
23.645796043214688
20
229.94340566116048
30
0.04000000000004512
 70
     32
  0
VERTEX
  8
MY3DLAYER
10
22.94081520030281
20
229.9082843329357
30
0.04000000000004512
 70
     32
  0
VERTEX
  8
MY3DLAYER
10
20.75946143274215
20
229.9082843329357
30
0.04000000000004512
 70
     32
  0
VERTEX
  8
MY3DLAYER
10
20.75946143274215
20
237.5149254568182
30
0.04000000000004512
 70
     32
  0
VERTEX
  8
MY3DLAYER
10
22.777341381656576
20
237.5149254568182
30
0.04000000000004512
 70
     32
  0
VERTEX
  8
MY3DLAYER
10
23.99573218625428
20
237.46128561007492
30
0.04000000000004512
 70
     32
  0
VERTEX
  8
MY3DLAYER
10
24.393561049600386
20
237.37124729589863
30
0.04000000000004512
 70
     32
  0
VERTEX
  8
MY3DLAYER
10
24.77478710324023
20
237.2084120468565
30
0.04000000000004512
 70
     32
  0
VERTEX
  8
MY3DLAYER
10
25.128554663904346
20
236.95489991403403
30
0.04000000000004512
 70
     32
  0
VERTEX
  8
MY3DLAYER
10
25.37248825266552
20
236.63369940317835
30
0.04000000000004512
 70
     32
  0
VERTEX
  8
MY3DLAYER
10
25.514250704772802
20
236.24736479270578
30
0.04000000000004512
 70
     32
  0
VERTEX
  8
MY3DLAYER
10
25.561504855475224
20
235.79845036103276
30
0.04000000000004512
 70
     32
  0
VERTEX
  8
MY3DLAYER
10
25.490623629421584
20
235.2901489561796
30
0.04000000000004512
 70
     32
  0
VERTEX
  8
MY3DLAYER
10
25.277979951260665
20
234.83804167648614
30
0.04000000000004512
 70
     32
  0
VERTEX
  8
MY3DLAYER
10
24.940176630698723
20
234.4600084708667
30
0.04000000000004512
 70
     32
  0
VERTEX
  8
MY3DLAYER
10
24.49381647744202
20
234.17392928823583
30
0.04000000000004512
 70
     32
  0
VERTEX
  8
MY3DLAYER
10
24.49381647744202
20
234.13306083357426
30
0.04000000000004512
 70
     32
  0
VERTEX
  8
MY3DLAYER
10
25.096626183700003
20
233.87316300471088
30
0.04000000000004512
 70
     32
  0
VERTEX
  8
MY3DLAYER
10
25.54617918497714
20
233.46128561007487
30
0.04000000000004512
 70
     32
  0
VERTEX
  8
MY3DLAYER
10
25.825872671567176
20
232.91275432016428
30
0.04000000000004512
 70
     32
  0
VERTEX
  8
MY3DLAYER
10
25.91910383376386
20
232.2428948054772
30
0.04000000000004512
 70
     32
  0
SEQEND
  0
POLYLINE
 8
Back
 66
     1
70
    8
 10
0.0
 20
 0.0
 30
0.0
  0
VERTEX
  8
MY3DLAYER
10
24.509142147940103
20
235.65541076971732
30
0.04000000000004512
 70
     32
  0
VERTEX
  8
MY3DLAYER
10
24.417188124951597
20
236.13306083357426
30
0.04000000000004512
 70
     32
  0
VERTEX
  8
MY3DLAYER
10
24.29713703938327
20
236.31377603153084
30
0.04000000000004512
 70
     32
  0
VERTEX
  8
MY3DLAYER
10
24.120891828655303
20
236.4523456356177
30
0.04000000000004512
 70
     32
  0
VERTEX
  8
MY3DLAYER
10
23.574276247556963
20
236.62092801109662
30
0.04000000000004512
 70
     32
  0
VERTEX
  8
MY3DLAYER
10
22.741581483827716
20
236.65157935209277
30
0.04000000000004512
 70
     32
  0
VERTEX
  8
MY3DLAYER
10
21.77095568561571
20
236.65157935209277
30
0.04000000000004512
 70
     32
  0
VERTEX
  8
MY3DLAYER
10
21.77095568561571
20
234.42424857303786
30
0.04000000000004512
 70
     32
  0
VERTEX
  8
MY3DLAYER
10
22.920380972972033
20
234.42424857303786
30
0.04000000000004512
 70
     32
  0
VERTEX
  8
MY3DLAYER
10
23.620253259051214
20
234.47277986294844
30
0.04000000000004512
 70
     32
  0
VERTEX
  8
MY3DLAYER
10
24.08513193082644
20
234.6745678578399
30
0.04000000000004512
 70
     32
  0
VERTEX
  8
MY3DLAYER
10
24.281811368885187
20
234.84570451173516
30
0.04000000000004512
 70
     32
  0
VERTEX
  8
MY3DLAYER
10
24.412079568118905
20
235.06281817712468
30
0.04000000000004512
 70
     32
  0
VERTEX
  8
MY3DLAYER
10
24.509142147940103
20
235.65541076971732
30
0.04000000000004512
 70
     32
  0
SEQEND
  0
POLYLINE
 8
Back
 66
     1
70
    8
 10
0.0
 20
 0.0
 30
0.0
  0
VERTEX
  8
MY3DLAYER
10
24.86674112622874
20
232.20202635081566
30
0.04000000000004512
 70
     32
  0
VERTEX
  8
MY3DLAYER
10
24.83608978523257
20
232.59346951812086
30
0.04000000000004512
 70
     32
  0
VERTEX
  8
MY3DLAYER
10
24.744135762244063
20
232.90956147214385
30
0.04000000000004512
 70
     32
  0
VERTEX
  8
MY3DLAYER
10
24.558950577058877
20
233.16690502259084
30
0.04000000000004512
 70
     32
  0
VERTEX
  8
MY3DLAYER
10
24.24860574947267
20
233.3821029791681
30
0.04000000000004512
 70
     32
  0
VERTEX
  8
MY3DLAYER
10
23.72497867412146
20
233.54557679781433
30
0.04000000000004512
 70
     32
  0
VERTEX
  8
MY3DLAYER
10
22.920380972972033
20
233.5813366956432
30
0.04000000000004512
 70
     32
  0
VERTEX
  8
MY3DLAYER
10
21.77095568561571
20
233.5813366956432
30
0.04000000000004512
 70
     32
  0
VERTEX
  8
MY3DLAYER
10
21.77095568561571
20
230.7716304376611
30
0.04000000000004512
 70
     32
  0
VERTEX
  8
MY3DLAYER
10
22.593433335679567
20
230.7716304376611
30
0.04000000000004512
 70
     32
  0
VERTEX
  8
MY3DLAYER
10
23.640687486381992
20
230.83293311965346
30
0.04000000000004512
 70
     32
  0
VERTEX
  8
MY3DLAYER
10
24.000840743086975
20
230.92871856026647
30
0.04000000000004512
 70
     32
  0
VERTEX
  8
MY3DLAYER
10
24.315016988297703
20
231.09346951812088
30
0.04000000000004512
 70
     32
  0
VERTEX
  8
MY3DLAYER
10
24.5627819946834
20
231.30611319628176
30
0.04000000000004512
 70
     32
  0
VERTEX
  8
MY3DLAYER
10
24.733918648578673
20
231.54557679781433
30
0.04000000000004512
 70
     32
  0
VERTEX
  8
MY3DLAYER
10
24.833535506816222
20
231.83612596767387
30
0.04000000000004512
 70
     32
  0
VERTEX
  8
MY3DLAYER
10
24.86674112622874
20
232.20202635081566
30
0.04000000000004512
 70
     32
  0
SEQEND
  0
POLYLINE
 8
Back
 66
     1
70
    8
 10
0.0
 20
 0.0
 30
0.0
  0
VERTEX
  8
MY3DLAYER
10
30.036600640915836
20
230.51620259602637
30
0.04000000000004512
 70
     32
  0
VERTEX
  8
MY3DLAYER
10
29.72242439570511
20
230.27354614647334
30
0.04000000000004512
 70
     32
  0
VERTEX
  8
MY3DLAYER
10
29.34183691166935
20
230.02578114008767
30
0.04000000000004512
 70
     32
  0
VERTEX
  8
MY3DLAYER
10
28.848861177314305
20
229.82143886677989
30
0.04000000000004512
 70
     32
  0
VERTEX
  8
MY3DLAYER
10
28.18219451064764
20
229.74991907112215
30
0.04000000000004512
 70
     32
  0
VERTEX
  8
MY3DLAYER
10
27.838644063648914
20
229.78312469053466
30
0.04000000000004512
 70
     32
  0
VERTEX
  8
MY3DLAYER
10
27.51297356556462
20
229.8827415487722
30
0.04000000000004512
 70
     32
  0
VERTEX
  8
MY3DLAYER
10
27.215400130060157
20
230.0423839497939
30
0.04000000000004512
 70
     32
  0
VERTEX
  8
MY3DLAYER
10
26.956140870800894
20
230.25566619755892
30
0.04000000000004512
 70
     32
  0
VERTEX
  8
MY3DLAYER
10
26.74924431907676
20
230.51811830483862
30
0.04000000000004512
 70
     32
  0
VERTEX
  8
MY3DLAYER
10
26.58832477884687
20
230.83548739806977
30
0.04000000000004512
 70
     32
  0
VERTEX
  8
MY3DLAYER
10
26.4848765029848
20
231.189893528338
30
0.04000000000004512
 70
     32
  0
VERTEX
  8
MY3DLAYER
10
26.450393744364114
20
231.56345674672878
30
0.04000000000004512
 70
     32
  0
VERTEX
  8
MY3DLAYER
10
26.512973565564625
20
232.11198803663936
30
0.04000000000004512
 70
     32
  0
VERTEX
  8
MY3DLAYER
10
26.700713029166156
20
232.572396721186
30
0.04000000000004512
 70
     32
  0
VERTEX
  8
MY3DLAYER
10
27.023829248834105
20
232.9459599395768
30
0.04000000000004512
 70
     32
  0
VERTEX
  8
MY3DLAYER
10
27.492539338233847
20
233.23395483101996
30
0.04000000000004512
 70
     32
  0
VERTEX
  8
MY3DLAYER
10
28.016166413585058
20
233.41977858580927
30
0.04000000000004512
 70
     32
  0
VERTEX
  8
MY3DLAYER
10
28.626638955092083
20
233.5379139625653
30
0.04000000000004512
 70
     32
  0
VERTEX
  8
MY3DLAYER
10
30.036600640915836
20
233.66307360496634
30
0.04000000000004512
 70
     32
  0
VERTEX
  8
MY3DLAYER
10
30.036600640915836
20
233.84698165094332
30
0.04000000000004512
 70
     32
  0
VERTEX
  8
MY3DLAYER
10
30.011057856752362
20
234.15157935209274
30
0.04000000000004512
 70
     32
  0
VERTEX
  8
MY3DLAYER
10
29.93442950426194
20
234.39104295362534
30
0.04000000000004512
 70
     32
  0
VERTEX
  8
MY3DLAYER
10
29.81182414027727
20
234.57431242999826
30
0.04000000000004512
 70
     32
  0
VERTEX
  8
MY3DLAYER
10
29.64835032163104
20
234.71032775566874
30
0.04000000000004512
 70
     32
  0
VERTEX
  8
MY3DLAYER
10
29.198797320353894
20
234.86613873906597
30
0.04000000000004512
 70
     32
  0
VERTEX
  8
MY3DLAYER
10
28.652181739255557
20
234.90445291531114
30
0.04000000000004512
 70
     32
  0
VERTEX
  8
MY3DLAYER
10
27.870572543853257
20
234.80483605707363
30
0.04000000000004512
 70
     32
  0
VERTEX
  8
MY3DLAYER
10
26.97146654129898
20
234.51620259602635
30
0.04000000000004512
 70
     32
  0
VERTEX
  8
MY3DLAYER
10
26.915272416139338
20
234.51620259602635
30
0.04000000000004512
 70
     32
  0
VERTEX
  8
MY3DLAYER
10
26.915272416139338
20
235.49193695107107
30
0.04000000000004512
 70
     32
  0
VERTEX
  8
MY3DLAYER
10
27.67644738421086
20
235.66051932654997
30
0.04000000000004512
 70
     32
  0
VERTEX
  8
MY3DLAYER
10
28.657290296088252
20
235.7524733495385
30
0.04000000000004512
 70
     32
  0
VERTEX
  8
MY3DLAYER
10
29.64835032163104
20
235.66051932654997
30
0.04000000000004512
 70
     32
  0
VERTEX
  8
MY3DLAYER
10
30.031492084083148
20
235.53152826652445
30
0.04000000000004512
 70
     32
  0
VERTEX
  8
MY3DLAYER
10
30.37376539187369
20
235.32846313242482
30
0.04000000000004512
 70
     32
  0
VERTEX
  8
MY3DLAYER
10
30.645796043214688
20
235.0589867595002
30
0.04000000000004512
 70
     32
  0
VERTEX
  8
MY3DLAYER
10
30.838644063648914
20
234.72054486933413
30
0.04000000000004512
 70
     32
  0
VERTEX
  8
MY3DLAYER
10
30.95358659238455
20
234.30675176588585
30
0.04000000000004512
 70
     32
  0
VERTEX
  8
MY3DLAYER
10
30.99190076862976
20
233.8112217531145
30
0.04000000000004512
 70
     32
  0
VERTEX
  8
MY3DLAYER
10
30.99190076862976
20
229.9082843329357
30
0.04000000000004512
 70
     32
  0
VERTEX
  8
MY3DLAYER
10
30.036600640915836
20
229.9082843329357
30
0.04000000000004512
 70
     32
  0
VERTEX
  8
MY3DLAYER
10
30.036600640915836
20
230.51620259602637
30
0.04000000000004512
 70
     32
  0
SEQEND
  0
POLYLINE
 8
Back
 66
     1
70
    8
 10
0.0
 20
 0.0
 30
0.0
  0
VERTEX
  8
MY3DLAYER
10
30.036600640915836
20
231.31313746192674
30
0.04000000000004512
 70
     32
  0
VERTEX
  8
MY3DLAYER
10
30.036600640915836
20
232.89679008006212
30
0.04000000000004512
 70
     32
  0
VERTEX
  8
MY3DLAYER
10
29.170700257774076
20
232.81249889232265
30
0.04000000000004512
 70
     32
  0
VERTEX
  8
MY3DLAYER
10
28.32523410196309
20
232.6617964657582
30
0.04000000000004512
 70
     32
  0
VERTEX
  8
MY3DLAYER
10
27.975297958923502
20
232.5130097480059
30
0.04000000000004512
 70
     32
  0
VERTEX
  8
MY3DLAYER
10
27.69177305470894
20
232.30164320905317
30
0.04000000000004512
 70
     32
  0
VERTEX
  8
MY3DLAYER
10
27.504033591107408
20
232.0110940391937
30
0.04000000000004512
 70
     32
  0
VERTEX
  8
MY3DLAYER
10
27.4414537699069
20
231.62475942872112
30
0.04000000000004512
 70
     32
  0
VERTEX
  8
MY3DLAYER
10
27.510419287148277
20
231.19436351556658
30
0.04000000000004512
 70
     32
  0
VERTEX
  8
MY3DLAYER
10
27.717315838872413
20
230.8840186879804
30
0.04000000000004512
 70
     32
  0
VERTEX
  8
MY3DLAYER
10
28.057034868246618
20
230.69627922437886
30
0.04000000000004512
 70
     32
  0
VERTEX
  8
MY3DLAYER
10
28.52446781843819
20
230.63369940317835
30
0.04000000000004512
 70
     32
  0
VERTEX
  8
MY3DLAYER
10
28.957418010009064
20
230.68286926269303
30
0.04000000000004512
 70
     32
  0
VERTEX
  8
MY3DLAYER
10
29.346945468502042
20
230.83037884123706
30
0.04000000000004512
 70
     32
  0
VERTEX
  8
MY3DLAYER
10
30.036600640915836
20
231.31313746192674
30
0.04000000000004512
 70
     32
  0
SEQEND
  0
POLYLINE
 8
Back
 66
     1
70
    8
 10
0.0
 20
 0.0
 30
0.0
  0
VERTEX
  8
MY3DLAYER
10
34.60875900617766
20
229.7805704121183
30
0.04000000000004512
 70
     32
  0
VERTEX
  8
MY3DLAYER
10
34.04554061537305
20
229.82590885400847
30
0.04000000000004512
 70
     32
  0
VERTEX
  8
MY3DLAYER
10
33.530853514479055
20
229.96192417967896
30
0.04000000000004512
 70
     32
  0
VERTEX
  8
MY3DLAYER
10
33.074914817161044
20
230.189893528338
30
0.04000000000004512
 70
     32
  0
VERTEX
  8
MY3DLAYER
10
32.68794163708442
20
230.51109403919367
30
0.04000000000004512
 70
     32
  0
VERTEX
  8
MY3DLAYER
10
32.37504253108187
20
230.92680285145423
30
0.04000000000004512
 70
     32
  0
VERTEX
  8
MY3DLAYER
10
32.14132605598608
20
231.43829710432775
30
0.04000000000004512
 70
     32
  0
VERTEX
  8
MY3DLAYER
10
31.995732186254283
20
232.04685393702252
30
0.04000000000004512
 70
     32
  0
VERTEX
  8
MY3DLAYER
10
31.947200896343677
20
232.75375048874668
30
0.04000000000004512
 70
     32
  0
VERTEX
  8
MY3DLAYER
10
31.99764789506654
20
233.45362277482585
30
0.04000000000004512
 70
     32
  0
VERTEX
  8
MY3DLAYER
10
32.14898889123513
20
234.05132392425114
30
0.04000000000004512
 70
     32
  0
VERTEX
  8
MY3DLAYER
10
32.384621075143166
20
234.55451677227157
30
0.04000000000004512
 70
     32
  0
VERTEX
  8
MY3DLAYER
10
32.68794163708442
20
234.9708641541362
30
0.04000000000004512
 70
     32
  0
VERTEX
  8
MY3DLAYER
10
33.06661341230792
20
235.3010046394491
30
0.04000000000004512
 70
     32
  0
VERTEX
  8
MY3DLAYER
10
33.52829923606271
20
235.54557679781433
30
0.04000000000004512
 70
     32
  0
VERTEX
  8
MY3DLAYER
10
34.05001060260166
20
235.69691779398292
30
0.04000000000004512
 70
     32
  0
VERTEX
  8
MY3DLAYER
10
34.60875900617766
20
235.7473647927058
30
0.04000000000004512
 70
     32
  0
VERTEX
  8
MY3DLAYER
10
35.07044482993244
20
235.71415917329327
30
0.04000000000004512
 70
     32
  0
VERTEX
  8
MY3DLAYER
10
35.51552784398097
20
235.6145423150557
30
0.04000000000004512
 70
     32
  0
VERTEX
  8
MY3DLAYER
10
36.294582760966925
20
235.30802890509403
30
0.04000000000004512
 70
     32
  0
VERTEX
  8
MY3DLAYER
10
36.294582760966925
20
234.23012341339546
30
0.04000000000004512
 70
     32
  0
VERTEX
  8
MY3DLAYER
10
36.238388635807276
20
234.23012341339546
30
0.04000000000004512
 70
     32
  0
VERTEX
  8
MY3DLAYER
10
35.9752979589235
20
234.42935712987057
30
0.04000000000004512
 70
     32
  0
VERTEX
  8
MY3DLAYER
10
35.58449336122235
20
234.6592421873418
30
0.04000000000004512
 70
     32
  0
VERTEX
  8
MY3DLAYER
10
35.11450613261444
20
234.83804167648614
30
0.04000000000004512
 70
     32
  0
VERTEX
  8
MY3DLAYER
10
34.59343333567957
20
234.91467002897653
30
0.04000000000004512
 70
     32
  0
VERTEX
  8
MY3DLAYER
10
34.238867563010345
20
234.87938905835074
30
0.04000000000004512
 70
     32
  0
VERTEX
  8
MY3DLAYER
10
33.92101954257612
20
234.77354614647336
30
0.04000000000004512
 70
     32
  0
VERTEX
  8
MY3DLAYER
10
33.639889274376884
20
234.59714129334435
30
0.04000000000004512
 70
     32
  0
VERTEX
  8
MY3DLAYER
10
33.39547675841265
20
234.35017449896378
30
0.04000000000004512
 70
     32
  0
VERTEX
  8
MY3DLAYER
10
33.19767982354674
20
234.0387121745704
30
0.04000000000004512
 70
     32
  0
VERTEX
  8
MY3DLAYER
10
33.056396298642525
20
233.6688207314031
30
0.04000000000004512
 70
     32
  0
VERTEX
  8
MY3DLAYER
10
32.971626183699996
20
233.24050016946188
30
0.04000000000004512
 70
     32
  0
VERTEX
  8
MY3DLAYER
10
32.943369478719156
20
232.75375048874668
30
0.04000000000004512
 70
     32
  0
VERTEX
  8
MY3DLAYER
10
32.97066832929387
20
232.27594078248868
30
0.04000000000004512
 70
     32
  0
VERTEX
  8
MY3DLAYER
10
33.05256488101801
20
231.8540059165883
30
0.04000000000004512
 70
     32
  0
VERTEX
  8
MY3DLAYER
10
33.18905913389157
20
231.48794589104554
30
0.04000000000004512
 70
     32
  0
VERTEX
  8
MY3DLAYER
10
33.38015108791456
20
231.17776070586032
30
0.04000000000004512
 70
     32
  0
VERTEX
  8
MY3DLAYER
10
33.61977433184815
20
230.93079391147975
30
0.04000000000004512
 70
     32
  0
VERTEX
  8
MY3DLAYER
10
33.901862454453514
20
230.75438905835074
30
0.04000000000004512
 70
     32
  0
VERTEX
  8
MY3DLAYER
10
34.22641545573065
20
230.64854614647336
30
0.04000000000004512
 70
     32
  0
VERTEX
  8
MY3DLAYER
10
34.59343333567957
20
230.61326517584754
30
0.04000000000004512
 70
     32
  0
VERTEX
  8
MY3DLAYER
10
35.05192631141392
20
230.6617964657582
30
0.04000000000004512
 70
     32
  0
VERTEX
  8
MY3DLAYER
10
35.48743078140115
20
230.80739033548994
30
0.04000000000004512
 70
     32
  0
VERTEX
  8
MY3DLAYER
10
35.88717535355951
20
231.02961255771217
30
0.04000000000004512
 70
     32
  0
VERTEX
  8
MY3DLAYER
10
36.238388635807276
20
231.30802890509403
30
0.04000000000004512
 70
     32
  0
VERTEX
  8
MY3DLAYER
10
36.294582760966925
20
231.30802890509403
30
0.04000000000004512
 70
     32
  0
VERTEX
  8
MY3DLAYER
10
36.294582760966925
20
230.23012341339546
30
0.04000000000004512
 70
     32
  0
VERTEX
  8
MY3DLAYER
10
35.93698378267829
20
230.06920387316555
30
0.04000000000004512
 70
     32
  0
VERTEX
  8
MY3DLAYER
10
35.54873346339349
20
229.92871856026645
30
0.04000000000004512
 70
     32
  0
VERTEX
  8
MY3DLAYER
10
35.109397575781735
20
229.81888458836352
30
0.04000000000004512
 70
     32
  0
VERTEX
  8
MY3DLAYER
10
34.60875900617766
20
229.7805704121183
30
0.04000000000004512
 70
     32
  0
SEQEND
  0
POLYLINE
 8
Back
 66
     1
70
    8
 10
0.0
 20
 0.0
 30
0.0
  0
VERTEX
  8
MY3DLAYER
10
41.89866960643308
20
229.9082843329357
30
0.04000000000004512
 70
     32
  0
VERTEX
  8
MY3DLAYER
10
40.636856068757474
20
229.9082843329357
30
0.04000000000004512
 70
     32
  0
VERTEX
  8
MY3DLAYER
10
38.506587869523756
20
232.6617964657582
30
0.04000000000004512
 70
     32
  0
VERTEX
  8
MY3DLAYER
10
38.12855466390434
20
232.29398037380415
30
0.04000000000004512
 70
     32
  0
VERTEX
  8
MY3DLAYER
10
38.12855466390434
20
229.9082843329357
30
0.04000000000004512
 70
     32
  0
VERTEX
  8
MY3DLAYER
10
37.168145979357725
20
229.9082843329357
30
0.04000000000004512
 70
     32
  0
VERTEX
  8
MY3DLAYER
10
37.168145979357725
20
237.8571987646087
30
0.04000000000004512
 70
     32
  0
VERTEX
  8
MY3DLAYER
10
38.12855466390434
20
237.8571987646087
30
0.04000000000004512
 70
     32
  0
VERTEX
  8
MY3DLAYER
10
38.12855466390434
20
233.2033034900238
30
0.04000000000004512
 70
     32
  0
VERTEX
  8
MY3DLAYER
10
40.38653678395543
20
235.6145423150557
30
0.04000000000004512
 70
     32
  0
VERTEX
  8
MY3DLAYER
10
41.581939082806
20
235.6145423150557
30
0.04000000000004512
 70
     32
  0
VERTEX
  8
MY3DLAYER
10
39.237111496599105
20
233.22884627418725
30
0.04000000000004512
 70
     32
  0
VERTEX
  8
MY3DLAYER
10
41.89866960643308
20
229.9082843329357
30
0.04000000000004512
 70
     32
  0
SEQEND
  0
POLYLINE
 8
Layer0
 66
     1
70
    8
 10
0.0
 20
 0.0
 30
0.0
  0
VERTEX
  8
MY3DLAYER
10
208.64949203941396
20
81.16666666666659
30
1.51258598414382e-13
 70
     32
  0
VERTEX
  8
MY3DLAYER
10
208.64949203941342
20
77.47734272980306
30
1.6485568890025335e-13
 70
     32
  0
VERTEX
  8
MY3DLAYER
10
212.14949203941333
20
78.64400939647143
30
1.8000331152622248e-13
 70
     32
  0
VERTEX
  8
MY3DLAYER
10
318.14949203941444
20
113.97734272980469
30
3.1755754029623014e-13
 70
     32
  0
VERTEX
  8
MY3DLAYER
10
321.64949203941444
20
115.14400939646892
30
8.250961427137746e-13
 70
     32
  0
VERTEX
  8
MY3DLAYER
10
321.6494920394137
20
118.8333333333324
30
3.2093876937787703e-13
 70
     32
  0
VERTEX
  8
MY3DLAYER
10
208.64949203941396
20
81.16666666666659
30
1.51258598414382e-13
 70
     32
  0
SEQEND
  0
POLYLINE
 8
Layer0
 66
     1
70
    8
 10
0.0
 20
 0.0
 30
0.0
  0
VERTEX
  8
MY3DLAYER
10
200.00000000000108
20
338.4046205472331
30
-1.5210686303855007e-12
 70
     32
  0
VERTEX
  8
MY3DLAYER
10
185.0000000000007
20
338.4046205472331
30
-1.4020340154794368e-13
 70
     32
  0
VERTEX
  8
MY3DLAYER
10
185.0000000000007
20
334.904620547233
30
-1.5554141618896446e-13
 70
     32
  0
VERTEX
  8
MY3DLAYER
10
170.00000000000114
20
334.904620547233
30
9.058939996662826e-14
 70
     32
  0
VERTEX
  8
MY3DLAYER
10
170.00000000000114
20
338.4046205472331
30
1.3430723159569632e-13
 70
     32
  0
VERTEX
  8
MY3DLAYER
10
107.50000000000048
20
338.4046205472331
30
1.717469406669583e-13
 70
     32
  0
VERTEX
  8
MY3DLAYER
10
107.50000000000048
20
334.904620547233
30
-1.6169586058794825e-13
 70
     32
  0
VERTEX
  8
MY3DLAYER
10
92.5000000000003
20
334.904620547233
30
2.6661184717060233e-13
 70
     32
  0
VERTEX
  8
MY3DLAYER
10
92.5000000000003
20
338.4046205472331
30
2.925019118469216e-13
 70
     32
  0
VERTEX
  8
MY3DLAYER
10
30.000000000000274
20
338.4046205472331
30
-1.525122903459164e-13
 70
     32
  0
VERTEX
  8
MY3DLAYER
10
30.000000000000274
20
334.904620547233
30
-1.6785030498693205e-13
 70
     32
  0
VERTEX
  8
MY3DLAYER
10
15.000000000000513
20
334.904620547233
30
-1.5567882630861488e-13
 70
     32
  0
VERTEX
  8
MY3DLAYER
10
15.000000000000513
20
338.4046205472331
30
-1.5489465591971658e-13
 70
     32
  0
VERTEX
  8
MY3DLAYER
10
4.511946372076636e-13
20
338.4046205472331
30
-1.5528335047028352e-12
 70
     32
  0
VERTEX
  8
MY3DLAYER
10
4.511946372076636e-13
20
325.9046205472326
30
-1.6758495428447517e-12
 70
     32
  0
VERTEX
  8
MY3DLAYER
10
3.500000000000332
20
325.9046205472326
30
-1.6752936575441985e-12
 70
     32
  0
VERTEX
  8
MY3DLAYER
10
3.500000000000332
20
310.90462054723304
30
-1.5702439064782158e-12
 70
     32
  0
VERTEX
  8
MY3DLAYER
10
3.6095570976613087e-13
20
310.9046205472332
30
-1.570799791778769e-12
 70
     32
  0
VERTEX
  8
MY3DLAYER
10
2.7071678232459813e-13
20
288.40462054723343
30
-1.633182550818521e-12
 70
     32
  0
VERTEX
  8
MY3DLAYER
10
3.4999999999997904
20
288.4046205472336
30
-1.6326266655179678e-12
 70
     32
  0
VERTEX
  8
MY3DLAYER
10
3.499999999999971
20
273.4046205472339
30
-1.614995875410967e-12
 70
     32
  0
VERTEX
  8
MY3DLAYER
10
-9.023892744153272e-14
20
273.40462054723406
30
-1.6155517607115201e-12
 70
     32
  0
VERTEX
  8
MY3DLAYER
10
0.0
20
258.4046205472334
30
-1.6120208030172605e-12
 70
     32
  0
VERTEX
  8
MY3DLAYER
10
15.000000000000153
20
258.4046205472334
30
-1.6096384374434604e-12
 70
     32
  0
VERTEX
  8
MY3DLAYER
10
15.000000000000153
20
261.90462054723304
30
-1.6147862761786925e-12
 70
     32
  0
VERTEX
  8
MY3DLAYER
10
30.000000000000092
20
261.90462054723287
30
-1.6124039106048924e-12
 70
     32
  0
VERTEX
  8
MY3DLAYER
10
29.99999999999991
20
258.40462054723315
30
-1.607256071869661e-12
 70
     32
  0
VERTEX
  8
MY3DLAYER
10
92.49999999999976
20
258.4046205472334
30
-1.5973295486454935e-12
 70
     32
  0
VERTEX
  8
MY3DLAYER
10
92.49999999999994
20
261.9046205472328
30
-1.6024773873807282e-12
 70
     32
  0
VERTEX
  8
MY3DLAYER
10
107.5000000000003
20
261.9046205472325
30
-1.600095021806928e-12
 70
     32
  0
VERTEX
  8
MY3DLAYER
10
107.49999999999957
20
258.40462054723366
30
-1.5949471830716932e-12
 70
     32
  0
VERTEX
  8
MY3DLAYER
10
170.00000000000094
20
258.4046205472332
30
-1.5850206598475258e-12
 70
     32
  0
VERTEX
  8
MY3DLAYER
10
170.00000000000094
20
261.90462054723287
30
-1.5901684985827605e-12
 70
     32
  0
VERTEX
  8
MY3DLAYER
10
185.00000000000125
20
261.90462054723235
30
-1.587786133008961e-12
 70
     32
  0
VERTEX
  8
MY3DLAYER
10
185.00000000000088
20
258.40462054723275
30
-1.5826382942737263e-12
 70
     32
  0
VERTEX
  8
MY3DLAYER
10
200.00000000000037
20
258.40462054723315
30
-1.5802559286999262e-12
 70
     32
  0
VERTEX
  8
MY3DLAYER
10
200.00000000000125
20
273.40462054723287
30
-1.5837868863941882e-12
 70
     32
  0
VERTEX
  8
MY3DLAYER
10
196.50000000000136
20
273.4046205472328
30
-1.5843427716947414e-12
 70
     32
  0
VERTEX
  8
MY3DLAYER
10
196.5000000000012
20
288.40462054723235
30
-1.6019735618017436e-12
 70
     32
  0
VERTEX
  8
MY3DLAYER
10
200.00000000000145
20
288.404620547232
30
-1.6014176765011904e-12
 70
     32
  0
VERTEX
  8
MY3DLAYER
10
200.00000000000125
20
310.9046205472323
30
-1.5390349174614345e-12
 70
     32
  0
VERTEX
  8
MY3DLAYER
10
196.5000000000012
20
310.9046205472321
30
-1.539590802761988e-12
 70
     32
  0
VERTEX
  8
MY3DLAYER
10
196.50000000000156
20
325.9046205472324
30
-1.655920419758162e-12
 70
     32
  0
VERTEX
  8
MY3DLAYER
10
200.00000000000125
20
325.904620547232
30
-1.6553645344576088e-12
 70
     32
  0
VERTEX
  8
MY3DLAYER
10
200.00000000000108
20
338.4046205472331
30
-1.5210686303855007e-12
 70
     32
  0
SEQEND
  0
POLYLINE
 8
Layer0
 66
     1
70
    8
 10
0.0
 20
 0.0
 30
0.0
  0
VERTEX
  8
MY3DLAYER
10
335.92680036455874
20
105.00000000000006
30
3.033905818764161e-13
 70
     32
  0
VERTEX
  8
MY3DLAYER
10
335.9268003645589
20
115.14400939647045
30
3.26897191110884e-13
 70
     32
  0
VERTEX
  8
MY3DLAYER
10
448.92680036455914
20
77.4773427298035
30
3.485777353881822e-13
 70
     32
  0
VERTEX
  8
MY3DLAYER
10
448.92680036455965
20
67.50000000000034
30
2.9565979892747644e-13
 70
     32
  0
VERTEX
  8
MY3DLAYER
10
452.42680036455926
20
67.50000000000007
30
4.345376895816676e-13
 70
     32
  0
VERTEX
  8
MY3DLAYER
10
452.426800364559
20
52.50000000000014
30
4.423928840434718e-13
 70
     32
  0
VERTEX
  8
MY3DLAYER
10
448.92680036455965
20
52.500000000000504
30
3.486344571100483e-13
 70
     32
  0
VERTEX
  8
MY3DLAYER
10
448.92680036455914
20
30.00000000000019
30
3.886169136282352e-13
 70
     32
  0
VERTEX
  8
MY3DLAYER
10
452.42680036455926
20
30.000000000000277
30
5.049350724220427e-13
 70
     32
  0
VERTEX
  8
MY3DLAYER
10
452.426800364559
20
15.000000000000215
30
5.353499987442313e-13
 70
     32
  0
VERTEX
  8
MY3DLAYER
10
448.9268003645595
20
15.000000000000306
30
3.287929125088914e-13
 70
     32
  0
VERTEX
  8
MY3DLAYER
10
448.9268003645595
20
2.7036428651427967e-13
30
4.2688703441222895e-13
 70
     32
  0
VERTEX
  8
MY3DLAYER
10
437.42680036455886
20
4.508421413973451e-13
30
5.394014898852629e-13
 70
     32
  0
VERTEX
  8
MY3DLAYER
10
437.4268003645592
20
3.5000000000007865
30
6.928547654831429e-13
 70
     32
  0
VERTEX
  8
MY3DLAYER
10
422.42680036455863
20
3.500000000000516
30
7.454503918133271e-13
 70
     32
  0
VERTEX
  8
MY3DLAYER
10
422.42680036455886
20
4.508421413973451e-13
30
5.35597786564488e-13
 70
     32
  0
VERTEX
  8
MY3DLAYER
10
399.9268003645588
20
6.313199962804105e-13
30
3.212147118747835e-13
 70
     32
  0
VERTEX
  8
MY3DLAYER
10
399.92680036455846
20
3.500000000000426
30
6.100263786349628e-13
 70
     32
  0
VERTEX
  8
MY3DLAYER
10
384.9268003645591
20
3.500000000000426
30
1.5502803810652657e-13
 70
     32
  0
VERTEX
  8
MY3DLAYER
10
384.92680036455926
20
2.7036428651427967e-13
30
1.7077275146151814e-13
 70
     32
  0
VERTEX
  8
MY3DLAYER
10
362.4268003645583
20
1.8012535907274695e-13
30
1.2558766572468575e-13
 70
     32
  0
VERTEX
  8
MY3DLAYER
10
362.4268003645585
20
3.5000000000007865
30
3.1288053911314384e-13
 70
     32
  0
VERTEX
  8
MY3DLAYER
10
347.4268003645581
20
3.500000000000606
30
2.639573720716034e-13
 70
     32
  0
VERTEX
  8
MY3DLAYER
10
347.4268003645581
20
7.215589237219432e-13
30
8.794436461333699e-14
 70
     32
  0
VERTEX
  8
MY3DLAYER
10
335.9268003645591
20
5.410810688388779e-13
30
4.824554683411614e-13
 70
     32
  0
VERTEX
  8
MY3DLAYER
10
335.9268003645589
20
15.000000000000124
30
2.9412241899629115e-13
 70
     32
  0
VERTEX
  8
MY3DLAYER
10
332.4268003645592
20
15.000000000000124
30
3.0188278543459076e-13
 70
     32
  0
VERTEX
  8
MY3DLAYER
10
332.4268003645589
20
30.000000000000277
30
3.842665184143176e-13
 70
     32
  0
VERTEX
  8
MY3DLAYER
10
335.9268003645591
20
30.00000000000037
30
4.441853475571667e-13
 70
     32
  0
VERTEX
  8
MY3DLAYER
10
335.926800364559
20
52.50000000000041
30
4.154827569691726e-13
 70
     32
  0
VERTEX
  8
MY3DLAYER
10
332.4268003645592
20
52.50000000000059
30
2.991645981753645e-13
 70
     32
  0
VERTEX
  8
MY3DLAYER
10
332.4268003645594
20
67.49999999999997
30
2.800295377833679e-13
 70
     32
  0
VERTEX
  8
MY3DLAYER
10
335.92680036455886
20
67.4999999999997
30
4.1890742843755786e-13
 70
     32
  0
VERTEX
  8
MY3DLAYER
10
335.9268003645584
20
90.00000000000007
30
3.67645105989179e-13
 70
     32
  0
VERTEX
  8
MY3DLAYER
10
332.4268003645589
20
89.99999999999999
30
3.0772627684632934e-13
 70
     32
  0
VERTEX
  8
MY3DLAYER
10
332.4268003645591
20
105.00000000000006
30
3.3371068017509923e-13
 70
     32
  0
VERTEX
  8
MY3DLAYER
10
335.92680036455874
20
105.00000000000006
30
3.033905818764161e-13
 70
     32
  0
SEQEND
  0
POLYLINE
 8
Front
 66
     1
70
    8
 10
0.0
 20
 0.0
 30
0.0
  0
VERTEX
  8
MY3DLAYER
10
17.03159306720563
20
324.07559189184514
30
0.03999999999846477
 70
     32
  0
VERTEX
  8
MY3DLAYER
10
17.03159306720563
20
327.6158217769026
30
0.03999999999846527
 70
     32
  0
VERTEX
  8
MY3DLAYER
10
14.885999197473827
20
327.6158217769026
30
0.03999999999846493
 70
     32
  0
VERTEX
  8
MY3DLAYER
10
14.885999197473827
20
324.22374003999323
30
0.03999999999846445
 70
     32
  0
VERTEX
  8
MY3DLAYER
10
13.986893194919551
20
324.22374003999323
30
0.03999999999846431
 70
     32
  0
VERTEX
  8
MY3DLAYER
10
13.986893194919551
20
327.6158217769026
30
0.03999999999846479
 70
     32
  0
VERTEX
  8
MY3DLAYER
10
10.324057945877405
20
327.6158217769026
30
0.03999999999846421
 70
     32
  0
VERTEX
  8
MY3DLAYER
10
10.324057945877405
20
328.6273160297761
30
0.03999999999846435
 70
     32
  0
VERTEX
  8
MY3DLAYER
10
17.930699069759907
20
328.6273160297761
30
0.039999999998465555
 70
     32
  0
VERTEX
  8
MY3DLAYER
10
17.930699069759907
20
324.07559189184514
30
0.039999999998464916
 70
     32
  0
VERTEX
  8
MY3DLAYER
10
17.03159306720563
20
324.07559189184514
30
0.03999999999846477
 70
     32
  0
SEQEND
  0
POLYLINE
 8
Front
 66
     1
70
    8
 10
0.0
 20
 0.0
 30
0.0
  0
VERTEX
  8
MY3DLAYER
10
14.998387447793114
20
320.2237400399933
30
0.03999999999846391
 70
     32
  0
VERTEX
  8
MY3DLAYER
10
14.998387447793114
20
320.2748256083202
30
0.03999999999846392
 70
     32
  0
VERTEX
  8
MY3DLAYER
10
15.036701624038324
20
320.5021563873751
30
0.03999999999846395
 70
     32
  0
VERTEX
  8
MY3DLAYER
10
15.044364459287365
20
320.7907898484224
30
0.03999999999846399
 70
     32
  0
VERTEX
  8
MY3DLAYER
10
15.002218865417635
20
321.177763028499
30
0.03999999999846405
 70
     32
  0
VERTEX
  8
MY3DLAYER
10
14.87578208380844
20
321.5621819301593
30
0.03999999999846408
 70
     32
  0
VERTEX
  8
MY3DLAYER
10
14.666331253667956
20
321.935106578946
30
0.0399999999984641
 70
     32
  0
VERTEX
  8
MY3DLAYER
10
14.375143514204353
20
322.28759700040195
30
0.039999999998464104
 70
     32
  0
VERTEX
  8
MY3DLAYER
10
10.324057945877405
20
322.28759700040195
30
0.03999999999846346
 70
     32
  0
VERTEX
  8
MY3DLAYER
10
10.324057945877405
20
323.24800568494857
30
0.0399999999984636
 70
     32
  0
VERTEX
  8
MY3DLAYER
10
16.030315927997457
20
323.24800568494857
30
0.0399999999984645
 70
     32
  0
VERTEX
  8
MY3DLAYER
10
16.030315927997457
20
322.28759700040195
30
0.03999999999846437
 70
     32
  0
VERTEX
  8
MY3DLAYER
10
15.182295493770125
20
322.28759700040195
30
0.03999999999846423
 70
     32
  0
VERTEX
  8
MY3DLAYER
10
15.578847217908056
20
321.795259835651
30
0.03999999999846422
 70
     32
  0
VERTEX
  8
MY3DLAYER
10
15.838745046771402
20
321.37061104893326
30
0.03999999999846421
 70
     32
  0
VERTEX
  8
MY3DLAYER
10
15.98242320769094
20
320.98555357766884
30
0.039999999998464174
 70
     32
  0
VERTEX
  8
MY3DLAYER
10
16.030315927997457
20
320.611990359278
30
0.03999999999846413
 70
     32
  0
VERTEX
  8
MY3DLAYER
10
16.022653092748413
20
320.38976813705585
30
0.0399999999984641
 70
     32
  0
VERTEX
  8
MY3DLAYER
10
15.999664587001288
20
320.2237400399933
30
0.03999999999846407
 70
     32
  0
VERTEX
  8
MY3DLAYER
10
14.998387447793114
20
320.2237400399933
30
0.03999999999846391
 70
     32
  0
SEQEND
  0
POLYLINE
 8
Front
 66
     1
70
    8
 10
0.0
 20
 0.0
 30
0.0
  0
VERTEX
  8
MY3DLAYER
10
13.174632658521082
20
314.7831270131733
30
0.039999999998462855
 70
     32
  0
VERTEX
  8
MY3DLAYER
10
12.495354242173702
20
314.82654974625126
30
0.03999999999846275
 70
     32
  0
VERTEX
  8
MY3DLAYER
10
11.898132019951479
20
314.95681794548494
30
0.039999999998462675
 70
     32
  0
VERTEX
  8
MY3DLAYER
10
11.382965991854416
20
315.1739316108745
30
0.039999999998462626
 70
     32
  0
VERTEX
  8
MY3DLAYER
10
10.949856157882513
20
315.4778907424198
30
0.0399999999984626
 70
     32
  0
VERTEX
  8
MY3DLAYER
10
10.606784638086856
20
315.85400823922697
30
0.0399999999984626
 70
     32
  0
VERTEX
  8
MY3DLAYER
10
10.361733552518528
20
316.28759700040195
30
0.03999999999846262
 70
     32
  0
VERTEX
  8
MY3DLAYER
10
10.214702901177533
20
316.7786570259447
30
0.03999999999846266
 70
     32
  0
VERTEX
  8
MY3DLAYER
10
10.165692684063867
20
317.3271883158553
30
0.03999999999846274
 70
     32
  0
VERTEX
  8
MY3DLAYER
10
10.21629932518775
20
317.8905663490609
30
0.03999999999846282
 70
     32
  0
VERTEX
  8
MY3DLAYER
10
10.368119248559397
20
318.3904067066599
30
0.03999999999846292
 70
     32
  0
VERTEX
  8
MY3DLAYER
10
10.62115245417881
20
318.82670938865226
30
0.039999999998463015
 70
     32
  0
VERTEX
  8
MY3DLAYER
10
10.975398942045986
20
319.19947439503795
30
0.039999999998463126
 70
     32
  0
VERTEX
  8
MY3DLAYER
10
11.416490896068975
20
319.4978460425475
30
0.03999999999846324
 70
     32
  0
VERTEX
  8
MY3DLAYER
10
11.930060500155822
20
319.7109686479115
30
0.039999999998463355
 70
     32
  0
VERTEX
  8
MY3DLAYER
10
12.516107754306523
20
319.83884221112993
30
0.03999999999846346
 70
     32
  0
VERTEX
  8
MY3DLAYER
10
13.174632658521082
20
319.88146673220274
30
0.03999999999846357
 70
     32
  0
VERTEX
  8
MY3DLAYER
10
13.849920014842922
20
319.83756507192174
30
0.039999999998463674
 70
     32
  0
VERTEX
  8
MY3DLAYER
10
14.445386170653904
20
319.7058600910788
30
0.03999999999846375
 70
     32
  0
VERTEX
  8
MY3DLAYER
10
14.961031125954033
20
319.48635178967396
30
0.0399999999984638
 70
     32
  0
VERTEX
  8
MY3DLAYER
10
15.396854880743305
20
319.17904016770717
30
0.03999999999846383
 70
     32
  0
VERTEX
  8
MY3DLAYER
10
15.743278890960418
20
318.7998894652806
30
0.03999999999846383
 70
     32
  0
VERTEX
  8
MY3DLAYER
10
15.99072461254407
20
318.36486392249645
30
0.039999999998463806
 70
     32
  0
VERTEX
  8
MY3DLAYER
10
16.139192045494262
20
317.8739635393547
30
0.03999999999846376
 70
     32
  0
VERTEX
  8
MY3DLAYER
10
16.188681189810996
20
317.3271883158553
30
0.039999999998463695
 70
     32
  0
VERTEX
  8
MY3DLAYER
10
16.13935168789528
20
316.7786570259447
30
0.039999999998463605
 70
     32
  0
VERTEX
  8
MY3DLAYER
10
15.99136318214816
20
316.28759700040195
30
0.039999999998463515
 70
     32
  0
VERTEX
  8
MY3DLAYER
10
15.744715672569614
20
315.85400823922697
30
0.03999999999846341
 70
     32
  0
VERTEX
  8
MY3DLAYER
10
15.399409159159651
20
315.4778907424198
30
0.039999999998463306
 70
     32
  0
VERTEX
  8
MY3DLAYER
10
14.964383616375489
20
315.1739316108745
30
0.039999999998463195
 70
     32
  0
VERTEX
  8
MY3DLAYER
10
14.448579018674339
20
314.95681794548494
30
0.039999999998463084
 70
     32
  0
VERTEX
  8
MY3DLAYER
10
13.851995366056205
20
314.82654974625126
30
0.039999999998462966
 70
     32
  0
VERTEX
  8
MY3DLAYER
10
13.174632658521082
20
314.7831270131733
30
0.039999999998462855
 70
     32
  0
SEQEND
  0
POLYLINE
 8
Front
 66
     1
70
    8
 10
0.0
 20
 0.0
 30
0.0
  0
VERTEX
  8
MY3DLAYER
10
13.174632658521082
20
315.77418703871615
30
0.039999999998462994
 70
     32
  0
VERTEX
  8
MY3DLAYER
10
14.140788469504479
20
315.8750810361618
30
0.03999999999846316
 70
     32
  0
VERTEX
  8
MY3DLAYER
10
14.517065608712652
20
316.001198532969
30
0.03999999999846324
 70
     32
  0
VERTEX
  8
MY3DLAYER
10
14.822142237065142
20
316.17776302849904
30
0.03999999999846331
 70
     32
  0
VERTEX
  8
MY3DLAYER
10
15.05793406337421
20
316.40094310512734
30
0.03999999999846338
 70
     32
  0
VERTEX
  8
MY3DLAYER
10
15.226356796452118
20
316.66690734522956
30
0.039999999998463445
 70
     32
  0
VERTEX
  8
MY3DLAYER
10
15.327410436298862
20
316.9756557488055
30
0.03999999999846351
 70
     32
  0
VERTEX
  8
MY3DLAYER
10
15.361094982914441
20
317.3271883158553
30
0.03999999999846356
 70
     32
  0
VERTEX
  8
MY3DLAYER
10
15.327410436298862
20
317.6811155189205
30
0.039999999998463605
 70
     32
  0
VERTEX
  8
MY3DLAYER
10
15.226356796452118
20
317.9919392737097
30
0.03999999999846363
 70
     32
  0
VERTEX
  8
MY3DLAYER
10
15.057934063374214
20
318.2596595802231
30
0.039999999998463646
 70
     32
  0
VERTEX
  8
MY3DLAYER
10
14.822142237065142
20
318.4842764384607
30
0.03999999999846364
 70
     32
  0
VERTEX
  8
MY3DLAYER
10
14.517065608712652
20
318.6619584307978
30
0.03999999999846361
 70
     32
  0
VERTEX
  8
MY3DLAYER
10
14.140788469504482
20
318.78887413961013
30
0.03999999999846357
 70
     32
  0
VERTEX
  8
MY3DLAYER
10
13.174632658521082
20
318.8904067066599
30
0.03999999999846344
 70
     32
  0
VERTEX
  8
MY3DLAYER
10
12.231465353284813
20
318.78887413961013
30
0.03999999999846327
 70
     32
  0
VERTEX
  8
MY3DLAYER
10
11.857103922888898
20
318.6619584307978
30
0.039999999998463195
 70
     32
  0
VERTEX
  8
MY3DLAYER
10
11.5475573073078
20
318.4842764384607
30
0.03999999999846311
 70
     32
  0
VERTEX
  8
MY3DLAYER
10
11.30506050015582
20
318.2596595802231
30
0.03999999999846305
 70
     32
  0
VERTEX
  8
MY3DLAYER
10
11.131848495047263
20
317.9919392737097
30
0.03999999999846298
 70
     32
  0
VERTEX
  8
MY3DLAYER
10
11.02792129198213
20
317.6811155189205
30
0.039999999998462925
 70
     32
  0
VERTEX
  8
MY3DLAYER
10
10.993278890960418
20
317.3271883158553
30
0.03999999999846287
 70
     32
  0
VERTEX
  8
MY3DLAYER
10
11.027282722378043
20
316.97773110001884
30
0.03999999999846282
 70
     32
  0
VERTEX
  8
MY3DLAYER
10
11.129294216630917
20
316.67010019325
30
0.03999999999846279
 70
     32
  0
VERTEX
  8
MY3DLAYER
10
11.29931337371904
20
316.40429559554883
30
0.039999999998462786
 70
     32
  0
VERTEX
  8
MY3DLAYER
10
11.537340193642411
20
316.18031730691536
30
0.03999999999846279
 70
     32
  0
VERTEX
  8
MY3DLAYER
10
11.843693961203074
20
316.0026353145782
30
0.039999999998462814
 70
     32
  0
VERTEX
  8
MY3DLAYER
10
12.218693961203074
20
315.87571960576594
30
0.039999999998462855
 70
     32
  0
VERTEX
  8
MY3DLAYER
10
13.174632658521082
20
315.77418703871615
30
0.039999999998462994
 70
     32
  0
SEQEND
  0
POLYLINE
 8
Front
 66
     1
70
    8
 10
0.0
 20
 0.0
 30
0.0
  0
VERTEX
  8
MY3DLAYER
10
10.324057945877405
20
309.3118626453572
30
0.039999999998461634
 70
     32
  0
VERTEX
  8
MY3DLAYER
10
10.324057945877405
20
310.27227132990384
30
0.039999999998461766
 70
     32
  0
VERTEX
  8
MY3DLAYER
10
13.573100091471273
20
310.27227132990384
30
0.039999999998462286
 70
     32
  0
VERTEX
  8
MY3DLAYER
10
14.306177996962973
20
310.3105855061491
30
0.039999999998462404
 70
     32
  0
VERTEX
  8
MY3DLAYER
10
14.850239299644967
20
310.4561793758808
30
0.039999999998462515
 70
     32
  0
VERTEX
  8
MY3DLAYER
10
15.03734019364241
20
310.59666468878
30
0.039999999998462564
 70
     32
  0
VERTEX
  8
MY3DLAYER
10
15.169524101688388
20
310.7831270131733
30
0.039999999998462606
 70
     32
  0
VERTEX
  8
MY3DLAYER
10
15.24806816299107
20
311.030892019559
30
0.03999999999846266
 70
     32
  0
VERTEX
  8
MY3DLAYER
10
15.274249516758632
20
311.35528537843516
30
0.03999999999846271
 70
     32
  0
VERTEX
  8
MY3DLAYER
10
15.226356796452118
20
311.71863148316055
30
0.03999999999846275
 70
     32
  0
VERTEX
  8
MY3DLAYER
10
15.082678635532575
20
312.09347184075955
30
0.03999999999846278
 70
     32
  0
VERTEX
  8
MY3DLAYER
10
14.584594344344836
20
312.8367668599166
30
0.03999999999846281
 70
     32
  0
VERTEX
  8
MY3DLAYER
10
10.324057945877405
20
312.8367668599166
30
0.03999999999846213
 70
     32
  0
VERTEX
  8
MY3DLAYER
10
10.324057945877405
20
313.79717554446324
30
0.03999999999846226
 70
     32
  0
VERTEX
  8
MY3DLAYER
10
16.030315927997453
20
313.79717554446324
30
0.03999999999846317
 70
     32
  0
VERTEX
  8
MY3DLAYER
10
16.030315927997453
20
312.8367668599166
30
0.039999999998463036
 70
     32
  0
VERTEX
  8
MY3DLAYER
10
15.396854880743305
20
312.8367668599166
30
0.03999999999846293
 70
     32
  0
VERTEX
  8
MY3DLAYER
10
15.735296770909331
20
312.4102023643866
30
0.039999999998462925
 70
     32
  0
VERTEX
  8
MY3DLAYER
10
15.984338916503203
20
311.98874642568927
30
0.039999999998462904
 70
     32
  0
VERTEX
  8
MY3DLAYER
10
16.137595621484046
20
311.55835051253473
30
0.039999999998462876
 70
     32
  0
VERTEX
  8
MY3DLAYER
10
16.188681189810993
20
311.1049660936331
30
0.03999999999846282
 70
     32
  0
VERTEX
  8
MY3DLAYER
10
16.154038788789283
20
310.70649866068294
30
0.03999999999846276
 70
     32
  0
VERTEX
  8
MY3DLAYER
10
16.050111585724146
20
310.35400823922697
30
0.03999999999846269
 70
     32
  0
VERTEX
  8
MY3DLAYER
10
15.876899580615591
20
310.0474948292653
30
0.03999999999846262
 70
     32
  0
VERTEX
  8
MY3DLAYER
10
15.634402773463611
20
309.7869584307979
30
0.03999999999846254
 70
     32
  0
VERTEX
  8
MY3DLAYER
10
15.326133297090687
20
309.5791040246676
30
0.03999999999846247
 70
     32
  0
VERTEX
  8
MY3DLAYER
10
14.955603284319293
20
309.4306365917174
30
0.039999999998462384
 70
     32
  0
VERTEX
  8
MY3DLAYER
10
14.522812735149435
20
309.3415561319473
30
0.03999999999846231
 70
     32
  0
VERTEX
  8
MY3DLAYER
10
14.027761649581109
20
309.3118626453572
30
0.039999999998462224
 70
     32
  0
VERTEX
  8
MY3DLAYER
10
10.324057945877405
20
309.3118626453572
30
0.039999999998461634
 70
     32
  0
SEQEND
  0
POLYLINE
 8
Front
 66
     1
70
    8
 10
0.0
 20
 0.0
 30
0.0
  0
VERTEX
  8
MY3DLAYER
10
10.21166969555812
20
306.236511432075
30
0.03999999999846118
 70
     32
  0
VERTEX
  8
MY3DLAYER
10
10.23960711573692
20
306.6081589416535
30
0.03999999999846124
 70
     32
  0
VERTEX
  8
MY3DLAYER
10
10.323419376273318
20
306.93638371815416
30
0.0399999999984613
 70
     32
  0
VERTEX
  8
MY3DLAYER
10
10.463106477167315
20
307.2211857615769
30
0.03999999999846136
 70
     32
  0
VERTEX
  8
MY3DLAYER
10
10.658668418418912
20
307.46256507192174
30
0.039999999998461426
 70
     32
  0
VERTEX
  8
MY3DLAYER
10
10.914575187256714
20
307.6547745227519
30
0.039999999998461495
 70
     32
  0
VERTEX
  8
MY3DLAYER
10
11.235296770909333
20
307.7920669876305
30
0.039999999998461565
 70
     32
  0
VERTEX
  8
MY3DLAYER
10
11.620833169376766
20
307.87444246655775
30
0.03999999999846164
 70
     32
  0
VERTEX
  8
MY3DLAYER
10
12.071184382659014
20
307.9019009595335
30
0.03999999999846171
 70
     32
  0
VERTEX
  8
MY3DLAYER
10
15.23338106209707
20
307.9019009595335
30
0.03999999999846221
 70
     32
  0
VERTEX
  8
MY3DLAYER
10
15.23338106209707
20
308.55068767728574
30
0.03999999999846231
 70
     32
  0
VERTEX
  8
MY3DLAYER
10
16.030315927997453
20
308.55068767728574
30
0.03999999999846243
 70
     32
  0
VERTEX
  8
MY3DLAYER
10
16.030315927997453
20
307.9019009595335
30
0.03999999999846234
 70
     32
  0
VERTEX
  8
MY3DLAYER
10
17.670162671292474
20
307.9019009595335
30
0.039999999998462606
 70
     32
  0
VERTEX
  8
MY3DLAYER
10
17.670162671292474
20
306.9414922749869
30
0.03999999999846247
 70
     32
  0
VERTEX
  8
MY3DLAYER
10
16.030315927997453
20
306.9414922749869
30
0.03999999999846221
 70
     32
  0
VERTEX
  8
MY3DLAYER
10
16.030315927997453
20
305.1739316108745
30
0.03999999999846196
 70
     32
  0
VERTEX
  8
MY3DLAYER
10
15.23338106209707
20
305.1739316108745
30
0.039999999998461835
 70
     32
  0
VERTEX
  8
MY3DLAYER
10
15.23338106209707
20
306.9414922749869
30
0.03999999999846208
 70
     32
  0
VERTEX
  8
MY3DLAYER
10
12.520737383936153
20
306.9414922749869
30
0.03999999999846165
 70
     32
  0
VERTEX
  8
MY3DLAYER
10
11.851516438853139
20
306.9261666044888
30
0.03999999999846154
 70
     32
  0
VERTEX
  8
MY3DLAYER
10
11.412180551241388
20
306.8086697973368
30
0.039999999998461454
 70
     32
  0
VERTEX
  8
MY3DLAYER
10
11.255730998240113
20
306.69500440780934
30
0.03999999999846141
 70
     32
  0
VERTEX
  8
MY3DLAYER
10
11.143981317524913
20
306.5276991715386
30
0.03999999999846137
 70
     32
  0
VERTEX
  8
MY3DLAYER
10
11.054581572952756
20
306.001517817771
30
0.03999999999846128
 70
     32
  0
VERTEX
  8
MY3DLAYER
10
11.123547090194135
20
305.5468562596612
30
0.03999999999846123
 70
     32
  0
VERTEX
  8
MY3DLAYER
10
11.238489618929767
20
305.2301257360341
30
0.039999999998461204
 70
     32
  0
VERTEX
  8
MY3DLAYER
10
11.238489618929767
20
305.1739316108745
30
0.0399999999984612
 70
     32
  0
VERTEX
  8
MY3DLAYER
10
10.375143514204352
20
305.1739316108745
30
0.03999999999846106
 70
     32
  0
VERTEX
  8
MY3DLAYER
10
10.255092428636026
20
305.72310147038917
30
0.039999999998461114
 70
     32
  0
VERTEX
  8
MY3DLAYER
10
10.21166969555812
20
306.236511432075
30
0.03999999999846118
 70
     32
  0
SEQEND
  0
POLYLINE
 8
Side
 66
     1
70
    8
 10
0.0
 20
 0.0
 30
0.0
  0
VERTEX
  8
MY3DLAYER
10
439.55276872416533
20
18.201493939136377
30
0.0400000000004732
 70
     32
  0
VERTEX
  8
MY3DLAYER
10
439.5099845606915
20
17.43584898383625
30
0.04000000000047413
 70
     32
  0
VERTEX
  8
MY3DLAYER
10
439.38163207027003
20
16.79408653172897
30
0.04000000000047482
 70
     32
  0
VERTEX
  8
MY3DLAYER
10
438.9601761315727
20
15.703409647948638
30
0.04000000000047579
 70
     32
  0
VERTEX
  8
MY3DLAYER
10
437.6932540370645
20
15.703409647948638
30
0.04000000000047452
 70
     32
  0
VERTEX
  8
MY3DLAYER
10
437.6932540370645
20
15.774929443606363
30
0.04000000000047443
 70
     32
  0
VERTEX
  8
MY3DLAYER
10
438.1102399885331
20
16.308773632622966
30
0.04000000000047416
 70
     32
  0
VERTEX
  8
MY3DLAYER
10
438.42122338572347
20
16.909029060464604
30
0.040000000000473705
 70
     32
  0
VERTEX
  8
MY3DLAYER
10
438.61470997576174
20
17.53099585484519
30
0.040000000000473115
 70
     32
  0
VERTEX
  8
MY3DLAYER
10
438.6792055057745
20
18.129974143478652
30
0.040000000000472415
 70
     32
  0
VERTEX
  8
MY3DLAYER
10
438.59172147001465
20
18.865606327386693
30
0.04000000000047138
 70
     32
  0
VERTEX
  8
MY3DLAYER
10
438.48236642531475
20
19.1567940668503
30
0.0400000000004709
 70
     32
  0
VERTEX
  8
MY3DLAYER
10
438.329269362735
20
19.39689623798695
30
0.040000000000470444
 70
     32
  0
VERTEX
  8
MY3DLAYER
10
437.92377766413983
20
19.718735318446722
30
0.040000000000469625
 70
     32
  0
VERTEX
  8
MY3DLAYER
10
437.4071748544335
20
19.82601501193331
30
0.04000000000046897
 70
     32
  0
VERTEX
  8
MY3DLAYER
10
436.9946588901935
20
19.769820886773672
30
0.040000000000468626
 70
     32
  0
VERTEX
  8
MY3DLAYER
10
436.6664341136928
20
19.601238511294742
30
0.04000000000046851
 70
     32
  0
VERTEX
  8
MY3DLAYER
10
436.41739196809897
20
19.31005077183114
30
0.040000000000468626
 70
     32
  0
VERTEX
  8
MY3DLAYER
10
436.2424238965791
20
18.886040554717475
30
0.040000000000469
 70
     32
  0
VERTEX
  8
MY3DLAYER
10
436.0738415211002
20
18.242362393797933
30
0.040000000000469646
 70
     32
  0
VERTEX
  8
MY3DLAYER
10
435.8950420319559
20
17.511838766722587
30
0.040000000000470395
 70
     32
  0
VERTEX
  8
MY3DLAYER
10
435.6345056334884
20
16.806857923810707
30
0.040000000000471034
 70
     32
  0
VERTEX
  8
MY3DLAYER
10
435.4518747267196
20
16.51311590593076
30
0.04000000000047123
 70
     32
  0
VERTEX
  8
MY3DLAYER
10
435.2207125300402
20
16.25513378587967
30
0.040000000000471325
 70
     32
  0
VERTEX
  8
MY3DLAYER
10
434.9480433090951
20
16.046321525343274
30
0.04000000000047132
 70
     32
  0
VERTEX
  8
MY3DLAYER
10
434.6306742158639
20
15.889871972341997
30
0.04000000000047119
 70
     32
  0
VERTEX
  8
MY3DLAYER
10
434.26477383272214
20
15.79217082291671
30
0.04000000000047095
 70
     32
  0
VERTEX
  8
MY3DLAYER
10
433.84651074204527
20
15.75960377310828
30
0.040000000000470576
 70
     32
  0
VERTEX
  8
MY3DLAYER
10
433.40286450960593
20
15.804622930196402
30
0.04000000000047007
 70
     32
  0
VERTEX
  8
MY3DLAYER
10
432.9965745990057
20
15.939680401460771
30
0.040000000000469486
 70
     32
  0
VERTEX
  8
MY3DLAYER
10
432.62764101024453
20
16.16477618690138
30
0.040000000000468834
 70
     32
  0
VERTEX
  8
MY3DLAYER
10
432.29606374332235
20
16.47991028651824
30
0.04000000000046809
 70
     32
  0
VERTEX
  8
MY3DLAYER
10
432.02227702557013
20
16.864967757782612
30
0.04000000000046733
 70
     32
  0
VERTEX
  8
MY3DLAYER
10
431.8267150843186
20
17.299833658165753
30
0.04000000000046658
 70
     32
  0
VERTEX
  8
MY3DLAYER
10
431.7093779195676
20
17.784507987667666
30
0.040000000000465843
 70
     32
  0
VERTEX
  8
MY3DLAYER
10
431.6702655313173
20
18.318990746288357
30
0.04000000000046512
 70
     32
  0
VERTEX
  8
MY3DLAYER
10
431.70219401152167
20
18.94031897106486
30
0.04000000000046436
 70
     32
  0
VERTEX
  8
MY3DLAYER
10
431.7979794521347
20
19.52716443722067
30
0.04000000000046371
 70
     32
  0
VERTEX
  8
MY3DLAYER
10
431.95251329632373
20
20.07569572713127
30
0.040000000000463165
 70
     32
  0
VERTEX
  8
MY3DLAYER
10
432.16068698725604
20
20.582081423172134
30
0.04000000000046273
 70
     32
  0
VERTEX
  8
MY3DLAYER
10
433.37141495660467
20
20.582081423172134
30
0.04000000000046395
 70
     32
  0
VERTEX
  8
MY3DLAYER
10
433.37141495660467
20
20.505453070681718
30
0.04000000000046404
 70
     32
  0
VERTEX
  8
MY3DLAYER
10
433.0604315594143
20
20.09165996723344
30
0.040000000000464254
 70
     32
  0
VERTEX
  8
MY3DLAYER
10
432.7915937560938
20
19.57569572713127
30
0.04000000000046465
 70
     32
  0
VERTEX
  8
MY3DLAYER
10
432.6057700013045
20
18.994597387412238
30
0.040000000000465205
 70
     32
  0
VERTEX
  8
MY3DLAYER
10
432.5438287497081
20
18.38540198511339
30
0.04000000000046591
 70
     32
  0
VERTEX
  8
MY3DLAYER
10
432.6262042286353
20
17.748109520234717
30
0.040000000000466815
 70
     32
  0
VERTEX
  8
MY3DLAYER
10
432.8733306654169
20
17.246193811422458
30
0.040000000000467696
 70
     32
  0
VERTEX
  8
MY3DLAYER
10
433.25455671905684
20
16.920523313338165
30
0.040000000000468494
 70
     32
  0
VERTEX
  8
MY3DLAYER
10
433.7392310485586
20
16.8119664806434
30
0.040000000000469126
 70
     32
  0
VERTEX
  8
MY3DLAYER
10
434.1747355185459
20
16.875823441052084
30
0.040000000000469486
 70
     32
  0
VERTEX
  8
MY3DLAYER
10
434.5106231302956
20
17.06739432227814
30
0.04000000000046958
 70
     32
  0
VERTEX
  8
MY3DLAYER
10
434.7583881366813
20
17.380293428280694
30
0.040000000000469424
 70
     32
  0
VERTEX
  8
MY3DLAYER
10
434.9295247905765
20
17.80813506301888
30
0.040000000000469056
 70
     32
  0
VERTEX
  8
MY3DLAYER
10
435.12620422863534
20
18.594852815253873
30
0.040000000000468244
 70
     32
  0
VERTEX
  8
MY3DLAYER
10
435.32799222352673
20
19.366244896990782
30
0.04000000000046746
 70
     32
  0
VERTEX
  8
MY3DLAYER
10
435.6293970766558
20
20.04696009494736
30
0.0400000000004669
 70
     32
  0
VERTEX
  8
MY3DLAYER
10
436.0534072937694
20
20.515670184347105
30
0.04000000000046673
 70
     32
  0
VERTEX
  8
MY3DLAYER
10
436.5949143180351
20
20.7877008356881
30
0.040000000000466926
 70
     32
  0
VERTEX
  8
MY3DLAYER
10
437.24880959262
20
20.878377719468432
30
0.04000000000046747
 70
     32
  0
VERTEX
  8
MY3DLAYER
10
437.69069975864807
20
20.833039277578266
30
0.04000000000046797
 70
     32
  0
VERTEX
  8
MY3DLAYER
10
438.12748136784353
20
20.69702395190777
30
0.04000000000046858
 70
     32
  0
VERTEX
  8
MY3DLAYER
10
438.52850307921
20
20.479271716914155
30
0.040000000000469264
 70
     32
  0
VERTEX
  8
MY3DLAYER
10
438.8631135517515
20
20.188722547054642
30
0.040000000000469965
 70
     32
  0
VERTEX
  8
MY3DLAYER
10
439.15685556963143
20
19.797279379749405
30
0.04000000000047076
 70
     32
  0
VERTEX
  8
MY3DLAYER
10
439.373969235021
20
19.35858206174174
30
0.04000000000047154
 70
     32
  0
VERTEX
  8
MY3DLAYER
10
439.5080688518793
20
18.83814783441096
30
0.04000000000047234
 70
     32
  0
VERTEX
  8
MY3DLAYER
10
439.55276872416533
20
18.201493939136377
30
0.0400000000004732
 70
     32
  0
SEQEND
  0
POLYLINE
 8
Side
 66
     1
70
    8
 10
0.0
 20
 0.0
 30
0.0
  0
VERTEX
  8
MY3DLAYER
10
439.41483768968254
20
22.81452075905975
30
0.040000000000467176
 70
     32
  0
VERTEX
  8
MY3DLAYER
10
439.41483768968254
20
21.854112074513132
30
0.0400000000004684
 70
     32
  0
VERTEX
  8
MY3DLAYER
10
433.70857970756254
20
21.854112074513132
30
0.040000000000462665
 70
     32
  0
VERTEX
  8
MY3DLAYER
10
433.70857970756254
20
22.81452075905975
30
0.04000000000046144
 70
     32
  0
VERTEX
  8
MY3DLAYER
10
439.41483768968254
20
22.81452075905975
30
0.040000000000467176
 70
     32
  0
SEQEND
  0
POLYLINE
 8
Side
 66
     1
70
    8
 10
0.0
 20
 0.0
 30
0.0
  0
VERTEX
  8
MY3DLAYER
10
432.75327957984865
20
22.88093199788478
30
0.04000000000046039
 70
     32
  0
VERTEX
  8
MY3DLAYER
10
432.75327957984865
20
21.7877008356881
30
0.04000000000046179
 70
     32
  0
VERTEX
  8
MY3DLAYER
10
431.7571109974731
20
21.7877008356881
30
0.040000000000460785
 70
     32
  0
VERTEX
  8
MY3DLAYER
10
431.7571109974731
20
22.88093199788478
30
0.04000000000045939
 70
     32
  0
VERTEX
  8
MY3DLAYER
10
432.75327957984865
20
22.88093199788478
30
0.04000000000046039
 70
     32
  0
SEQEND
  0
POLYLINE
 8
Side
 66
     1
70
    8
 10
0.0
 20
 0.0
 30
0.0
  0
VERTEX
  8
MY3DLAYER
10
439.41483768968254
20
28.617841321000995
30
0.04000000000045977
 70
     32
  0
VERTEX
  8
MY3DLAYER
10
439.41483768968254
20
27.657432636454384
30
0.04000000000046099
 70
     32
  0
VERTEX
  8
MY3DLAYER
10
438.8324622107554
20
27.657432636454384
30
0.04000000000046041
 70
     32
  0
VERTEX
  8
MY3DLAYER
10
439.1440841775497
20
27.26918231716958
30
0.04000000000046122
 70
     32
  0
VERTEX
  8
MY3DLAYER
10
439.3688606781883
20
26.88604055471748
30
0.04000000000046194
 70
     32
  0
VERTEX
  8
MY3DLAYER
10
439.51956310475276
20
26.462030337603807
30
0.040000000000462624
 70
     32
  0
VERTEX
  8
MY3DLAYER
10
439.5732029514961
20
25.951174654334334
30
0.04000000000046333
 70
     32
  0
VERTEX
  8
MY3DLAYER
10
439.52467166158556
20
25.50353736186945
30
0.04000000000046385
 70
     32
  0
VERTEX
  8
MY3DLAYER
10
439.3790777918537
20
25.090382828025266
30
0.040000000000464234
 70
     32
  0
VERTEX
  8
MY3DLAYER
10
439.1402527599252
20
24.724482444883503
30
0.04000000000046446
 70
     32
  0
VERTEX
  8
MY3DLAYER
10
438.81202798342457
20
24.418607604525906
30
0.04000000000046452
 70
     32
  0
VERTEX
  8
MY3DLAYER
10
438.3899334751232
20
24.169565458932034
30
0.040000000000464414
 70
     32
  0
VERTEX
  8
MY3DLAYER
10
437.8797163614578
20
23.984380273746847
30
0.04000000000046414
 70
     32
  0
VERTEX
  8
MY3DLAYER
10
437.2839309208448
20
23.869437745011215
30
0.040000000000463685
 70
     32
  0
VERTEX
  8
MY3DLAYER
10
436.6051314317005
20
23.831123568766003
30
0.040000000000463054
 70
     32
  0
VERTEX
  8
MY3DLAYER
10
435.9046205760171
20
23.879654858676606
30
0.040000000000462284
 70
     32
  0
VERTEX
  8
MY3DLAYER
10
435.3050037177796
20
24.02524872840841
30
0.0400000000004615
 70
     32
  0
VERTEX
  8
MY3DLAYER
10
434.79095518648967
20
24.256410925087845
30
0.04000000000046069
 70
     32
  0
VERTEX
  8
MY3DLAYER
10
434.3471493116494
20
24.561647195841356
30
0.04000000000045985
 70
     32
  0
VERTEX
  8
MY3DLAYER
10
434.01445454792014
20
24.905836212444168
30
0.04000000000045908
 70
     32
  0
VERTEX
  8
MY3DLAYER
10
433.7622195543059
20
25.31515932866383
30
0.0400000000004583
 70
     32
  0
VERTEX
  8
MY3DLAYER
10
433.6032157228882
20
25.76790517796141
30
0.040000000000457565
 70
     32
  0
VERTEX
  8
MY3DLAYER
10
433.550214445749
20
26.242362393797933
30
0.040000000000456906
 70
     32
  0
VERTEX
  8
MY3DLAYER
10
433.6447227471538
20
26.988211691371372
30
0.04000000000045605
 70
     32
  0
VERTEX
  8
MY3DLAYER
10
433.93846476503376
20
27.657432636454384
30
0.04000000000045549
 70
     32
  0
VERTEX
  8
MY3DLAYER
10
431.46592325800947
20
27.657432636454384
30
0.040000000000453007
 70
     32
  0
VERTEX
  8
MY3DLAYER
10
431.46592325800947
20
28.617841321000995
30
0.04000000000045178
 70
     32
  0
VERTEX
  8
MY3DLAYER
10
439.41483768968254
20
28.617841321000995
30
0.04000000000045977
 70
     32
  0
SEQEND
  0
POLYLINE
 8
Side
 66
     1
70
    8
 10
0.0
 20
 0.0
 30
0.0
  0
VERTEX
  8
MY3DLAYER
10
438.0253102311896
20
27.657432636454384
30
0.040000000000459605
 70
     32
  0
VERTEX
  8
MY3DLAYER
10
434.7353996309341
20
27.657432636454384
30
0.04000000000045629
 70
     32
  0
VERTEX
  8
MY3DLAYER
10
434.4952974597975
20
27.01630875395119
30
0.04000000000045687
 70
     32
  0
VERTEX
  8
MY3DLAYER
10
434.42888622097246
20
26.400727655611472
30
0.040000000000457586
 70
     32
  0
VERTEX
  8
MY3DLAYER
10
434.46352862199416
20
26.050472227769838
30
0.040000000000458065
 70
     32
  0
VERTEX
  8
MY3DLAYER
10
434.5674558250593
20
25.740446684985674
30
0.040000000000458565
 70
     32
  0
VERTEX
  8
MY3DLAYER
10
434.74066783016787
20
25.47065102725898
30
0.040000000000459085
 70
     32
  0
VERTEX
  8
MY3DLAYER
10
434.9831646373199
20
25.241085254589763
30
0.040000000000459626
 70
     32
  0
VERTEX
  8
MY3DLAYER
10
435.2911148288907
20
25.05781577821684
30
0.04000000000046016
 70
     32
  0
VERTEX
  8
MY3DLAYER
10
435.660686987256
20
24.92690900937903
30
0.0400000000004607
 70
     32
  0
VERTEX
  8
MY3DLAYER
10
436.58469720436966
20
24.82218359430879
30
0.04000000000046176
 70
     32
  0
VERTEX
  8
MY3DLAYER
10
437.47294752365445
20
24.902643364423735
30
0.04000000000046256
 70
     32
  0
VERTEX
  8
MY3DLAYER
10
438.12492708942716
20
25.144022674768557
30
0.04000000000046291
 70
     32
  0
VERTEX
  8
MY3DLAYER
10
438.35848392212193
20
25.329207859953744
30
0.04000000000046291
 70
     32
  0
VERTEX
  8
MY3DLAYER
10
438.5253102311896
20
25.56292433504953
30
0.040000000000462776
 70
     32
  0
VERTEX
  8
MY3DLAYER
10
438.6254060166302
20
25.84517210005592
30
0.04000000000046251
 70
     32
  0
VERTEX
  8
MY3DLAYER
10
438.6587712784438
20
26.175951154972903
30
0.040000000000462124
 70
     32
  0
VERTEX
  8
MY3DLAYER
10
438.61598711496987
20
26.55526149980049
30
0.040000000000461604
 70
     32
  0
VERTEX
  8
MY3DLAYER
10
438.48763462454843
20
26.937126123044425
30
0.040000000000460986
 70
     32
  0
VERTEX
  8
MY3DLAYER
10
438.28648519926105
20
27.308773632622966
30
0.040000000000460306
 70
     32
  0
VERTEX
  8
MY3DLAYER
10
438.0253102311896
20
27.657432636454384
30
0.040000000000459605
 70
     32
  0
SEQEND
  0
POLYLINE
 8
Side
 66
     1
70
    8
 10
0.0
 20
 0.0
 30
0.0
  0
VERTEX
  8
MY3DLAYER
10
439.54766016733265
20
32.485018843350936
30
0.04000000000045497
 70
     32
  0
VERTEX
  8
MY3DLAYER
10
439.49960780462516
20
31.841181040030374
30
0.04000000000045575
 70
     32
  0
VERTEX
  8
MY3DLAYER
10
439.3554507165025
20
31.27365230439819
30
0.04000000000045632
 70
     32
  0
VERTEX
  8
MY3DLAYER
10
439.1151889029648
20
30.782432636454384
30
0.04000000000045671
 70
     32
  0
VERTEX
  8
MY3DLAYER
10
438.77882236401206
20
30.367522036198952
30
0.0400000000004569
 70
     32
  0
VERTEX
  8
MY3DLAYER
10
438.35401393489326
20
30.037860478089126
30
0.04000000000045689
 70
     32
  0
VERTEX
  8
MY3DLAYER
10
437.8484264508575
20
29.8023879365821
30
0.040000000000456684
 70
     32
  0
VERTEX
  8
MY3DLAYER
10
437.2620599119048
20
29.661104411677883
30
0.040000000000456275
 70
     32
  0
VERTEX
  8
MY3DLAYER
10
436.5949143180351
20
29.61400990337648
30
0.040000000000455664
 70
     32
  0
VERTEX
  8
MY3DLAYER
10
435.9331965658001
20
29.65966763006869
30
0.04000000000045494
 70
     32
  0
VERTEX
  8
MY3DLAYER
10
435.34267932442077
20
29.79664081014532
30
0.04000000000045417
 70
     32
  0
VERTEX
  8
MY3DLAYER
10
434.8233625938972
20
30.024929443606364
30
0.04000000000045336
 70
     32
  0
VERTEX
  8
MY3DLAYER
10
434.37524637422916
20
30.344533530451827
30
0.0400000000004525
 70
     32
  0
VERTEX
  8
MY3DLAYER
10
434.0142949055191
20
30.737892406569326
30
0.04000000000045164
 70
     32
  0
VERTEX
  8
MY3DLAYER
10
433.756472427869
20
31.187445407846464
30
0.04000000000045081
 70
     32
  0
VERTEX
  8
MY3DLAYER
10
433.60177894127895
20
31.69319253428325
30
0.04000000000045
 70
     32
  0
VERTEX
  8
MY3DLAYER
10
433.550214445749
20
32.25513378587967
30
0.04000000000044924
 70
     32
  0
VERTEX
  8
MY3DLAYER
10
433.58852862199416
20
32.75577235548376
30
0.040000000000448635
 70
     32
  0
VERTEX
  8
MY3DLAYER
10
433.7034711507298
20
33.19510824309551
30
0.04000000000044819
 70
     32
  0
VERTEX
  8
MY3DLAYER
10
433.9001505887886
20
33.578250005547616
30
0.0400000000004479
 70
     32
  0
VERTEX
  8
MY3DLAYER
10
434.1836754930032
20
33.910306199672775
30
0.04000000000044776
 70
     32
  0
VERTEX
  8
MY3DLAYER
10
434.54702159772853
20
34.1810597118056
30
0.04000000000044778
 70
     32
  0
VERTEX
  8
MY3DLAYER
10
434.9831646373199
20
34.380293428280694
30
0.04000000000044796
 70
     32
  0
VERTEX
  8
MY3DLAYER
10
435.5087074214834
20
34.50289879226536
30
0.04000000000044834
 70
     32
  0
VERTEX
  8
MY3DLAYER
10
436.14025275992526
20
34.543767246926926
30
0.04000000000044892
 70
     32
  0
VERTEX
  8
MY3DLAYER
10
436.6613255568601
20
34.543767246926926
30
0.04000000000044945
 70
     32
  0
VERTEX
  8
MY3DLAYER
10
436.6613255568601
20
30.58974425842118
30
0.040000000000454485
 70
     32
  0
VERTEX
  8
MY3DLAYER
10
437.1300356462598
20
30.621034169021435
30
0.04000000000045492
 70
     32
  0
VERTEX
  8
MY3DLAYER
10
437.5399973320836
20
30.7149039008222
30
0.04000000000045521
 70
     32
  0
VERTEX
  8
MY3DLAYER
10
437.8912106143313
20
30.871353453823478
30
0.040000000000455366
 70
     32
  0
VERTEX
  8
MY3DLAYER
10
438.18367549300314
20
31.090382828025263
30
0.04000000000045538
 70
     32
  0
VERTEX
  8
MY3DLAYER
10
438.4138798352764
20
31.36464847298056
30
0.04000000000045526
 70
     32
  0
VERTEX
  8
MY3DLAYER
10
438.5783115083288
20
31.686806838242376
30
0.04000000000045501
 70
     32
  0
VERTEX
  8
MY3DLAYER
10
438.67697051216015
20
32.05685792381071
30
0.040000000000454644
 70
     32
  0
VERTEX
  8
MY3DLAYER
10
438.7098568467707
20
32.474801729685545
30
0.040000000000454144
 70
     32
  0
VERTEX
  8
MY3DLAYER
10
438.638337051113
20
33.09549138485796
30
0.04000000000045328
 70
     32
  0
VERTEX
  8
MY3DLAYER
10
438.454429005136
20
33.64466124437265
30
0.040000000000452396
 70
     32
  0
VERTEX
  8
MY3DLAYER
10
438.22709822608107
20
34.08399713198439
30
0.040000000000451605
 70
     32
  0
VERTEX
  8
MY3DLAYER
10
438.0202016743569
20
34.380293428280694
30
0.04000000000045102
 70
     32
  0
VERTEX
  8
MY3DLAYER
10
438.0202016743569
20
34.43648755344034
30
0.04000000000045095
 70
     32
  0
VERTEX
  8
MY3DLAYER
10
439.06745582505926
20
34.43648755344034
30
0.040000000000452
 70
     32
  0
VERTEX
  8
MY3DLAYER
10
439.2334839221219
20
34.017585893159364
30
0.0400000000004527
 70
     32
  0
VERTEX
  8
MY3DLAYER
10
439.38929490551914
20
33.568032891882225
30
0.04000000000045344
 70
     32
  0
VERTEX
  8
MY3DLAYER
10
439.5067917126711
20
33.0597314870291
30
0.0400000000004542
 70
     32
  0
VERTEX
  8
MY3DLAYER
10
439.54766016733265
20
32.485018843350936
30
0.04000000000045497
 70
     32
  0
SEQEND
  0
POLYLINE
 8
Side
 66
     1
70
    8
 10
0.0
 20
 0.0
 30
0.0
  0
VERTEX
  8
MY3DLAYER
10
435.925693372952
20
33.60890134654379
30
0.0400000000004499
 70
     32
  0
VERTEX
  8
MY3DLAYER
10
435.256472427869
20
33.51694732355528
30
0.04000000000044934
 70
     32
  0
VERTEX
  8
MY3DLAYER
10
434.7813766424284
20
33.28195370925132
30
0.04000000000044916
 70
     32
  0
VERTEX
  8
MY3DLAYER
10
434.59236003961877
20
33.08974425842118
30
0.04000000000044922
 70
     32
  0
VERTEX
  8
MY3DLAYER
10
434.4544290051359
20
32.85028065688861
30
0.040000000000449384
 70
     32
  0
VERTEX
  8
MY3DLAYER
10
434.3701378173965
20
32.55590006940458
30
0.040000000000449676
 70
     32
  0
VERTEX
  8
MY3DLAYER
10
434.3420407548167
20
32.19893966072003
30
0.0400000000004501
 70
     32
  0
VERTEX
  8
MY3DLAYER
10
434.3707763870006
20
31.84453353045183
30
0.040000000000450585
 70
     32
  0
VERTEX
  8
MY3DLAYER
10
434.45698328355235
20
31.547598664551444
30
0.04000000000045105
 70
     32
  0
VERTEX
  8
MY3DLAYER
10
434.7915937560938
20
31.0597314870291
30
0.04000000000045201
 70
     32
  0
VERTEX
  8
MY3DLAYER
10
435.28967804728154
20
30.73278384973663
30
0.04000000000045293
 70
     32
  0
VERTEX
  8
MY3DLAYER
10
435.925693372952
20
30.58974425842118
30
0.04000000000045375
 70
     32
  0
VERTEX
  8
MY3DLAYER
10
435.925693372952
20
33.60890134654379
30
0.0400000000004499
 70
     32
  0
SEQEND
  0
POLYLINE
 8
Side
 66
     1
70
    8
 10
0.0
 20
 0.0
 30
0.0
  0
VERTEX
  8
MY3DLAYER
10
310.46040891016014
20
15.556656954089503
30
0.04000000000071809
 70
     32
  0
VERTEX
  8
MY3DLAYER
10
310.41762474668633
20
14.791011998789374
30
0.04000000000071809
 70
     32
  0
VERTEX
  8
MY3DLAYER
10
310.28927225626484
20
14.149249546682096
30
0.04000000000071809
 70
     32
  0
VERTEX
  8
MY3DLAYER
10
309.86781631756753
20
13.058572662901764
30
0.04000000000071809
 70
     32
  0
VERTEX
  8
MY3DLAYER
10
308.60089422305924
20
13.058572662901764
30
0.04000000000071809
 70
     32
  0
VERTEX
  8
MY3DLAYER
10
308.60089422305924
20
13.130092458559492
30
0.04000000000071809
 70
     32
  0
VERTEX
  8
MY3DLAYER
10
309.017880174528
20
13.663936647576092
30
0.04000000000071809
 70
     32
  0
VERTEX
  8
MY3DLAYER
10
309.3288635717183
20
14.264192075417728
30
0.04000000000071809
 70
     32
  0
VERTEX
  8
MY3DLAYER
10
309.5223501617566
20
14.886158869798317
30
0.04000000000071809
 70
     32
  0
VERTEX
  8
MY3DLAYER
10
309.5868456917694
20
15.485137158431778
30
0.04000000000071809
 70
     32
  0
VERTEX
  8
MY3DLAYER
10
309.49936165600946
20
16.22076934233982
30
0.04000000000071809
 70
     32
  0
VERTEX
  8
MY3DLAYER
10
309.3900066113096
20
16.511957081803423
30
0.04000000000071809
 70
     32
  0
VERTEX
  8
MY3DLAYER
10
309.2369095487297
20
16.75205925294008
30
0.04000000000071809
 70
     32
  0
VERTEX
  8
MY3DLAYER
10
308.8314178501346
20
17.07389833339985
30
0.04000000000071809
 70
     32
  0
VERTEX
  8
MY3DLAYER
10
308.31481504042836
20
17.18117802688644
30
0.04000000000071809
 70
     32
  0
VERTEX
  8
MY3DLAYER
10
307.9022990761882
20
17.124983901726797
30
0.04000000000071809
 70
     32
  0
VERTEX
  8
MY3DLAYER
10
307.5740742996876
20
16.95640152624787
30
0.04000000000071809
 70
     32
  0
VERTEX
  8
MY3DLAYER
10
307.3250321540937
20
16.665213786784268
30
0.04000000000071809
 70
     32
  0
VERTEX
  8
MY3DLAYER
10
307.150064082574
20
16.241203569670603
30
0.04000000000071809
 70
     32
  0
VERTEX
  8
MY3DLAYER
10
306.981481707095
20
15.597525408751062
30
0.04000000000071809
 70
     32
  0
VERTEX
  8
MY3DLAYER
10
306.8026822179507
20
14.867001781675711
30
0.04000000000071809
 70
     32
  0
VERTEX
  8
MY3DLAYER
10
306.54214581948327
20
14.162020938763835
30
0.04000000000071809
 70
     32
  0
VERTEX
  8
MY3DLAYER
10
306.3595149127145
20
13.868278920883885
30
0.04000000000071809
 70
     32
  0
VERTEX
  8
MY3DLAYER
10
306.128352716035
20
13.610296800832801
30
0.04000000000071809
 70
     32
  0
VERTEX
  8
MY3DLAYER
10
305.85568349508986
20
13.401484540296403
30
0.04000000000071809
 70
     32
  0
VERTEX
  8
MY3DLAYER
10
305.53831440185877
20
13.245034987295124
30
0.04000000000071809
 70
     32
  0
VERTEX
  8
MY3DLAYER
10
305.17241401871695
20
13.147333837869837
30
0.04000000000071809
 70
     32
  0
VERTEX
  8
MY3DLAYER
10
304.7541509280401
20
13.114766788061408
30
0.04000000000071809
 70
     32
  0
VERTEX
  8
MY3DLAYER
10
304.3105046956008
20
13.159785945149531
30
0.04000000000071809
 70
     32
  0
VERTEX
  8
MY3DLAYER
10
303.90421478500053
20
13.2948434164139
30
0.04000000000071809
 70
     32
  0
VERTEX
  8
MY3DLAYER
10
303.53528119623934
20
13.519939201854514
30
0.04000000000071809
 70
     32
  0
VERTEX
  8
MY3DLAYER
10
303.2037039293172
20
13.83507330147137
30
0.04000000000071809
 70
     32
  0
VERTEX
  8
MY3DLAYER
10
302.929917211565
20
14.22013077273574
30
0.04000000000071809
 70
     32
  0
VERTEX
  8
MY3DLAYER
10
302.7343552703134
20
14.654996673118882
30
0.04000000000071809
 70
     32
  0
VERTEX
  8
MY3DLAYER
10
302.61701810556247
20
15.139671002620796
30
0.04000000000071809
 70
     32
  0
VERTEX
  8
MY3DLAYER
10
302.57790571731215
20
15.674153761241488
30
0.04000000000071809
 70
     32
  0
VERTEX
  8
MY3DLAYER
10
302.6098341975164
20
16.29548198601799
30
0.04000000000071809
 70
     32
  0
VERTEX
  8
MY3DLAYER
10
302.70561963812946
20
16.882327452173797
30
0.04000000000071809
 70
     32
  0
VERTEX
  8
MY3DLAYER
10
302.86015348231854
20
17.430858742084396
30
0.04000000000071809
 70
     32
  0
VERTEX
  8
MY3DLAYER
10
303.0683271732508
20
17.937244438125266
30
0.04000000000071809
 70
     32
  0
VERTEX
  8
MY3DLAYER
10
304.2790551425995
20
17.937244438125266
30
0.04000000000071809
 70
     32
  0
VERTEX
  8
MY3DLAYER
10
304.2790551425995
20
17.860616085634845
30
0.04000000000071809
 70
     32
  0
VERTEX
  8
MY3DLAYER
10
303.9680717454092
20
17.446822982186568
30
0.04000000000071809
 70
     32
  0
VERTEX
  8
MY3DLAYER
10
303.6992339420886
20
16.930858742084396
30
0.04000000000071809
 70
     32
  0
VERTEX
  8
MY3DLAYER
10
303.51341018729937
20
16.34976040236537
30
0.04000000000071809
 70
     32
  0
VERTEX
  8
MY3DLAYER
10
303.45146893570296
20
15.740565000066518
30
0.04000000000071809
 70
     32
  0
VERTEX
  8
MY3DLAYER
10
303.53384441463015
20
15.103272535187845
30
0.04000000000071809
 70
     32
  0
VERTEX
  8
MY3DLAYER
10
303.7809708514118
20
14.601356826375586
30
0.04000000000071809
 70
     32
  0
VERTEX
  8
MY3DLAYER
10
304.1621969050516
20
14.275686328291293
30
0.04000000000071809
 70
     32
  0
VERTEX
  8
MY3DLAYER
10
304.6468712345535
20
14.167129495596528
30
0.04000000000071809
 70
     32
  0
VERTEX
  8
MY3DLAYER
10
305.08237570454077
20
14.230986456005214
30
0.04000000000071809
 70
     32
  0
VERTEX
  8
MY3DLAYER
10
305.41826331629045
20
14.422557337231268
30
0.04000000000071809
 70
     32
  0
VERTEX
  8
MY3DLAYER
10
305.6660283226761
20
14.735456443233822
30
0.04000000000071809
 70
     32
  0
VERTEX
  8
MY3DLAYER
10
305.8371649765714
20
15.163298077972009
30
0.04000000000071809
 70
     32
  0
VERTEX
  8
MY3DLAYER
10
306.03384441463015
20
15.950015830207002
30
0.04000000000071809
 70
     32
  0
VERTEX
  8
MY3DLAYER
10
306.2356324095216
20
16.72140791194391
30
0.04000000000071809
 70
     32
  0
VERTEX
  8
MY3DLAYER
10
306.5370372626506
20
17.40212310990049
30
0.04000000000071809
 70
     32
  0
VERTEX
  8
MY3DLAYER
10
306.9610474797642
20
17.870833199300233
30
0.04000000000071809
 70
     32
  0
VERTEX
  8
MY3DLAYER
10
307.5025545040299
20
18.142863850641227
30
0.04000000000071809
 70
     32
  0
VERTEX
  8
MY3DLAYER
10
308.15644977861484
20
18.233540734421563
30
0.04000000000071809
 70
     32
  0
VERTEX
  8
MY3DLAYER
10
308.59833994464293
20
18.188202292531393
30
0.04000000000071809
 70
     32
  0
VERTEX
  8
MY3DLAYER
10
309.03512155383834
20
18.052186966860894
30
0.04000000000071809
 70
     32
  0
VERTEX
  8
MY3DLAYER
10
309.43614326520486
20
17.83443473186728
30
0.04000000000071809
 70
     32
  0
VERTEX
  8
MY3DLAYER
10
309.77075373774636
20
17.543885562007766
30
0.04000000000071809
 70
     32
  0
VERTEX
  8
MY3DLAYER
10
310.0644957556263
20
17.15244239470253
30
0.04000000000071809
 70
     32
  0
VERTEX
  8
MY3DLAYER
10
310.28160942101584
20
16.713745076694867
30
0.04000000000071809
 70
     32
  0
VERTEX
  8
MY3DLAYER
10
310.4157090378741
20
16.193310849364085
30
0.04000000000071809
 70
     32
  0
VERTEX
  8
MY3DLAYER
10
310.46040891016014
20
15.556656954089503
30
0.04000000000071809
 70
     32
  0
SEQEND
  0
POLYLINE
 8
Side
 66
     1
70
    8
 10
0.0
 20
 0.0
 30
0.0
  0
VERTEX
  8
MY3DLAYER
10
310.3224778756774
20
20.169683774012874
30
0.04000000000071809
 70
     32
  0
VERTEX
  8
MY3DLAYER
10
310.3224778756774
20
19.209275089466257
30
0.04000000000071809
 70
     32
  0
VERTEX
  8
MY3DLAYER
10
304.61621989355734
20
19.20927508946626
30
0.04000000000071809
 70
     32
  0
VERTEX
  8
MY3DLAYER
10
304.61621989355734
20
20.169683774012878
30
0.04000000000071809
 70
     32
  0
VERTEX
  8
MY3DLAYER
10
310.3224778756774
20
20.169683774012874
30
0.04000000000071809
 70
     32
  0
SEQEND
  0
POLYLINE
 8
Side
 66
     1
70
    8
 10
0.0
 20
 0.0
 30
0.0
  0
VERTEX
  8
MY3DLAYER
10
303.66091976584346
20
20.236095012837907
30
0.04000000000071809
 70
     32
  0
VERTEX
  8
MY3DLAYER
10
303.66091976584346
20
19.14286385064123
30
0.04000000000071809
 70
     32
  0
VERTEX
  8
MY3DLAYER
10
302.66475118346796
20
19.14286385064123
30
0.04000000000071809
 70
     32
  0
VERTEX
  8
MY3DLAYER
10
302.66475118346796
20
20.23609501283791
30
0.04000000000071809
 70
     32
  0
VERTEX
  8
MY3DLAYER
10
303.66091976584346
20
20.236095012837907
30
0.04000000000071809
 70
     32
  0
SEQEND
  0
POLYLINE
 8
Side
 66
     1
70
    8
 10
0.0
 20
 0.0
 30
0.0
  0
VERTEX
  8
MY3DLAYER
10
310.3224778756774
20
25.973004335954126
30
0.04000000000071809
 70
     32
  0
VERTEX
  8
MY3DLAYER
10
310.3224778756774
20
25.01259565140751
30
0.04000000000071809
 70
     32
  0
VERTEX
  8
MY3DLAYER
10
309.7401023967502
20
25.01259565140751
30
0.04000000000071809
 70
     32
  0
VERTEX
  8
MY3DLAYER
10
310.05172436354457
20
24.624345332122708
30
0.04000000000071809
 70
     32
  0
VERTEX
  8
MY3DLAYER
10
310.2765008641831
20
24.2412035696706
30
0.04000000000071809
 70
     32
  0
VERTEX
  8
MY3DLAYER
10
310.4272032907476
20
23.817193352556934
30
0.04000000000071809
 70
     32
  0
VERTEX
  8
MY3DLAYER
10
310.4808431374909
20
23.30633766928746
30
0.04000000000071809
 70
     32
  0
VERTEX
  8
MY3DLAYER
10
310.43231184758037
20
22.85870037682258
30
0.04000000000071809
 70
     32
  0
VERTEX
  8
MY3DLAYER
10
310.2867179778485
20
22.44554584297839
30
0.04000000000071809
 70
     32
  0
VERTEX
  8
MY3DLAYER
10
310.04789294592007
20
22.07964545983663
30
0.04000000000071809
 70
     32
  0
VERTEX
  8
MY3DLAYER
10
309.7196681694194
20
21.773770619479027
30
0.04000000000071809
 70
     32
  0
VERTEX
  8
MY3DLAYER
10
309.297573661118
20
21.524728473885162
30
0.04000000000071809
 70
     32
  0
VERTEX
  8
MY3DLAYER
10
308.7873565474526
20
21.33954328869998
30
0.04000000000071809
 70
     32
  0
VERTEX
  8
MY3DLAYER
10
308.1915711068396
20
21.224600759964343
30
0.04000000000071809
 70
     32
  0
VERTEX
  8
MY3DLAYER
10
307.5127716176953
20
21.186286583719134
30
0.04000000000071809
 70
     32
  0
VERTEX
  8
MY3DLAYER
10
306.812260762012
20
21.23481787362973
30
0.04000000000071809
 70
     32
  0
VERTEX
  8
MY3DLAYER
10
306.21264390377445
20
21.380411743361535
30
0.04000000000071809
 70
     32
  0
VERTEX
  8
MY3DLAYER
10
305.69859537248453
20
21.611573940040973
30
0.04000000000071809
 70
     32
  0
VERTEX
  8
MY3DLAYER
10
305.2547894976442
20
21.916810210794484
30
0.04000000000071809
 70
     32
  0
VERTEX
  8
MY3DLAYER
10
304.92209473391495
20
22.260999227397296
30
0.04000000000071809
 70
     32
  0
VERTEX
  8
MY3DLAYER
10
304.66985974030064
20
22.670322343616963
30
0.04000000000071809
 70
     32
  0
VERTEX
  8
MY3DLAYER
10
304.510855908883
20
23.123068192914538
30
0.04000000000071809
 70
     32
  0
VERTEX
  8
MY3DLAYER
10
304.4578546317438
20
23.597525408751064
30
0.04000000000071809
 70
     32
  0
VERTEX
  8
MY3DLAYER
10
304.55236293314863
20
24.3433747063245
30
0.04000000000071809
 70
     32
  0
VERTEX
  8
MY3DLAYER
10
304.8461049510286
20
25.012595651407512
30
0.04000000000071809
 70
     32
  0
VERTEX
  8
MY3DLAYER
10
302.37356344400433
20
25.012595651407512
30
0.04000000000071809
 70
     32
  0
VERTEX
  8
MY3DLAYER
10
302.37356344400433
20
25.973004335954126
30
0.04000000000071809
 70
     32
  0
VERTEX
  8
MY3DLAYER
10
310.3224778756774
20
25.973004335954126
30
0.04000000000071809
 70
     32
  0
SEQEND
  0
POLYLINE
 8
Side
 66
     1
70
    8
 10
0.0
 20
 0.0
 30
0.0
  0
VERTEX
  8
MY3DLAYER
10
308.93295041718443
20
25.012595651407512
30
0.04000000000071809
 70
     32
  0
VERTEX
  8
MY3DLAYER
10
305.643039816929
20
25.012595651407512
30
0.04000000000071809
 70
     32
  0
VERTEX
  8
MY3DLAYER
10
305.40293764579235
20
24.371471768904318
30
0.04000000000071809
 70
     32
  0
VERTEX
  8
MY3DLAYER
10
305.33652640696727
20
23.7558906705646
30
0.04000000000071809
 70
     32
  0
VERTEX
  8
MY3DLAYER
10
305.371168807989
20
23.405635242722965
30
0.04000000000071809
 70
     32
  0
VERTEX
  8
MY3DLAYER
10
305.4750960110541
20
23.095609699938805
30
0.04000000000071809
 70
     32
  0
VERTEX
  8
MY3DLAYER
10
305.64830801616273
20
22.825814042212112
30
0.04000000000071809
 70
     32
  0
VERTEX
  8
MY3DLAYER
10
305.8908048233147
20
22.59624826954289
30
0.04000000000071809
 70
     32
  0
VERTEX
  8
MY3DLAYER
10
306.1987550148856
20
22.412978793169962
30
0.04000000000071809
 70
     32
  0
VERTEX
  8
MY3DLAYER
10
306.56832717325085
20
22.28207202433216
30
0.04000000000071809
 70
     32
  0
VERTEX
  8
MY3DLAYER
10
307.49233739036447
20
22.177346609261917
30
0.04000000000071809
 70
     32
  0
VERTEX
  8
MY3DLAYER
10
308.3805877096493
20
22.25780637937686
30
0.04000000000071809
 70
     32
  0
VERTEX
  8
MY3DLAYER
10
309.03256727542197
20
22.49918568972169
30
0.04000000000071809
 70
     32
  0
VERTEX
  8
MY3DLAYER
10
309.26612410811674
20
22.684370874906875
30
0.04000000000071809
 70
     32
  0
VERTEX
  8
MY3DLAYER
10
309.43295041718443
20
22.918087350002658
30
0.04000000000071809
 70
     32
  0
VERTEX
  8
MY3DLAYER
10
309.53304620262503
20
23.20033511500904
30
0.04000000000071809
 70
     32
  0
VERTEX
  8
MY3DLAYER
10
309.56641146443854
20
23.531114169926028
30
0.04000000000071809
 70
     32
  0
VERTEX
  8
MY3DLAYER
10
309.52362730096473
20
23.910424514753615
30
0.04000000000071809
 70
     32
  0
VERTEX
  8
MY3DLAYER
10
309.3952748105433
20
24.292289137997546
30
0.04000000000071809
 70
     32
  0
VERTEX
  8
MY3DLAYER
10
309.1941253852559
20
24.663936647576094
30
0.04000000000071809
 70
     32
  0
VERTEX
  8
MY3DLAYER
10
308.93295041718443
20
25.012595651407512
30
0.04000000000071809
 70
     32
  0
SEQEND
  0
POLYLINE
 8
Side
 66
     1
70
    8
 10
0.0
 20
 0.0
 30
0.0
  0
VERTEX
  8
MY3DLAYER
10
310.45530035332746
20
29.84018185830406
30
0.04000000000071809
 70
     32
  0
VERTEX
  8
MY3DLAYER
10
310.4072479906199
20
29.196344054983495
30
0.04000000000071809
 70
     32
  0
VERTEX
  8
MY3DLAYER
10
310.2630909024973
20
28.628815319351315
30
0.04000000000071809
 70
     32
  0
VERTEX
  8
MY3DLAYER
10
310.02282908895967
20
28.137595651407512
30
0.04000000000071809
 70
     32
  0
VERTEX
  8
MY3DLAYER
10
309.68646255000687
20
27.72268505115208
30
0.04000000000071809
 70
     32
  0
VERTEX
  8
MY3DLAYER
10
309.2616541208881
20
27.39302349304225
30
0.04000000000071809
 70
     32
  0
VERTEX
  8
MY3DLAYER
10
308.7560666368524
20
27.15755095153522
30
0.04000000000071809
 70
     32
  0
VERTEX
  8
MY3DLAYER
10
308.1697000978996
20
27.016267426631007
30
0.04000000000071809
 70
     32
  0
VERTEX
  8
MY3DLAYER
10
307.5025545040299
20
26.969172918329605
30
0.04000000000071809
 70
     32
  0
VERTEX
  8
MY3DLAYER
10
306.8408367517949
20
27.014830645021817
30
0.04000000000071809
 70
     32
  0
VERTEX
  8
MY3DLAYER
10
306.2503195104156
20
27.151803825098447
30
0.04000000000071809
 70
     32
  0
VERTEX
  8
MY3DLAYER
10
305.731002779892
20
27.380092458559492
30
0.04000000000071809
 70
     32
  0
VERTEX
  8
MY3DLAYER
10
305.28288656022403
20
27.699696545404958
30
0.04000000000071809
 70
     32
  0
VERTEX
  8
MY3DLAYER
10
304.92193509151394
20
28.093055421522454
30
0.04000000000071809
 70
     32
  0
VERTEX
  8
MY3DLAYER
10
304.6641126138639
20
28.542608422799592
30
0.04000000000071809
 70
     32
  0
VERTEX
  8
MY3DLAYER
10
304.5094191272738
20
29.048355549236376
30
0.04000000000071809
 70
     32
  0
VERTEX
  8
MY3DLAYER
10
304.4578546317438
20
29.6102968008328
30
0.04000000000071809
 70
     32
  0
VERTEX
  8
MY3DLAYER
10
304.496168807989
20
30.110935370436888
30
0.04000000000071809
 70
     32
  0
VERTEX
  8
MY3DLAYER
10
304.61111133672466
20
30.55027125804864
30
0.04000000000071809
 70
     32
  0
VERTEX
  8
MY3DLAYER
10
304.8077907747834
20
30.93341302050074
30
0.04000000000071809
 70
     32
  0
VERTEX
  8
MY3DLAYER
10
305.09131567899794
20
31.265469214625902
30
0.04000000000071809
 70
     32
  0
VERTEX
  8
MY3DLAYER
10
305.4546617837234
20
31.53622272675873
30
0.04000000000071809
 70
     32
  0
VERTEX
  8
MY3DLAYER
10
305.8908048233147
20
31.735456443233822
30
0.04000000000071809
 70
     32
  0
VERTEX
  8
MY3DLAYER
10
306.41634760747814
20
31.858061807218494
30
0.04000000000071809
 70
     32
  0
VERTEX
  8
MY3DLAYER
10
307.04789294592007
20
31.898930261880054
30
0.04000000000071809
 70
     32
  0
VERTEX
  8
MY3DLAYER
10
307.5689657428549
20
31.898930261880054
30
0.04000000000071809
 70
     32
  0
VERTEX
  8
MY3DLAYER
10
307.5689657428549
20
27.944907273374305
30
0.04000000000071809
 70
     32
  0
VERTEX
  8
MY3DLAYER
10
308.03767583225465
20
27.97619718397456
30
0.04000000000071809
 70
     32
  0
VERTEX
  8
MY3DLAYER
10
308.4476375180784
20
28.070066915775328
30
0.04000000000071809
 70
     32
  0
VERTEX
  8
MY3DLAYER
10
308.7988508003262
20
28.226516468776605
30
0.04000000000071809
 70
     32
  0
VERTEX
  8
MY3DLAYER
10
309.091315678998
20
28.44554584297839
30
0.04000000000071809
 70
     32
  0
VERTEX
  8
MY3DLAYER
10
309.3215200212713
20
28.71981148793369
30
0.04000000000071809
 70
     32
  0
VERTEX
  8
MY3DLAYER
10
309.4859516943236
20
29.041969853195504
30
0.04000000000071809
 70
     32
  0
VERTEX
  8
MY3DLAYER
10
309.584610698155
20
29.41202093876383
30
0.04000000000071809
 70
     32
  0
VERTEX
  8
MY3DLAYER
10
309.6174970327655
20
29.829964744638673
30
0.04000000000071809
 70
     32
  0
VERTEX
  8
MY3DLAYER
10
309.5459772371078
20
30.450654399811086
30
0.04000000000071809
 70
     32
  0
VERTEX
  8
MY3DLAYER
10
309.3620691911308
20
30.999824259325777
30
0.04000000000071809
 70
     32
  0
VERTEX
  8
MY3DLAYER
10
309.1347384120759
20
31.43916014693752
30
0.04000000000071809
 70
     32
  0
VERTEX
  8
MY3DLAYER
10
308.92784186035175
20
31.735456443233822
30
0.04000000000071809
 70
     32
  0
VERTEX
  8
MY3DLAYER
10
308.92784186035175
20
31.791650568393457
30
0.04000000000071809
 70
     32
  0
VERTEX
  8
MY3DLAYER
10
309.9750960110541
20
31.791650568393457
30
0.04000000000071809
 70
     32
  0
VERTEX
  8
MY3DLAYER
10
310.1411241081167
20
31.372748908112488
30
0.04000000000071809
 70
     32
  0
VERTEX
  8
MY3DLAYER
10
310.29693509151394
20
30.923195906835353
30
0.04000000000071809
 70
     32
  0
VERTEX
  8
MY3DLAYER
10
310.4144318986659
20
30.414894501982225
30
0.04000000000071809
 70
     32
  0
VERTEX
  8
MY3DLAYER
10
310.45530035332746
20
29.84018185830406
30
0.04000000000071809
 70
     32
  0
SEQEND
  0
POLYLINE
 8
Side
 66
     1
70
    8
 10
0.0
 20
 0.0
 30
0.0
  0
VERTEX
  8
MY3DLAYER
10
306.8333335589469
20
30.964064361496916
30
0.04000000000071809
 70
     32
  0
VERTEX
  8
MY3DLAYER
10
306.16411261386384
20
30.872110338508406
30
0.04000000000071809
 70
     32
  0
VERTEX
  8
MY3DLAYER
10
305.68901682842323
20
30.637116724204446
30
0.04000000000071809
 70
     32
  0
VERTEX
  8
MY3DLAYER
10
305.5000002256135
20
30.444907273374305
30
0.04000000000071809
 70
     32
  0
VERTEX
  8
MY3DLAYER
10
305.3620691911308
20
30.20544367184174
30
0.04000000000071809
 70
     32
  0
VERTEX
  8
MY3DLAYER
10
305.2777780033913
20
29.911063084357707
30
0.04000000000071809
 70
     32
  0
VERTEX
  8
MY3DLAYER
10
305.24968094081146
20
29.554102675673157
30
0.04000000000071809
 70
     32
  0
VERTEX
  8
MY3DLAYER
10
305.2784165729954
20
29.199696545404958
30
0.04000000000071809
 70
     32
  0
VERTEX
  8
MY3DLAYER
10
305.36462346954715
20
28.90276167950457
30
0.04000000000071809
 70
     32
  0
VERTEX
  8
MY3DLAYER
10
305.6992339420886
20
28.41489450198223
30
0.04000000000071809
 70
     32
  0
VERTEX
  8
MY3DLAYER
10
306.19731823327635
20
28.08794686468976
30
0.04000000000071809
 70
     32
  0
VERTEX
  8
MY3DLAYER
10
306.8333335589469
20
27.94490727337431
30
0.04000000000071809
 70
     32
  0
VERTEX
  8
MY3DLAYER
10
306.8333335589469
20
30.964064361496916
30
0.04000000000071809
 70
     32
  0
SEQEND
  0
POLYLINE
 8
Top
 66
     1
70
    8
 10
0.0
 20
 0.0
 30
0.0
  0
VERTEX
  8
MY3DLAYER
10
8.649651165700625
20
107.2849436120301
30
0.03999999999987477
 70
     32
  0
VERTEX
  8
MY3DLAYER
10
8.649651165700625
20
113.99247873335834
30
0.03999999999987477
 70
     32
  0
VERTEX
  8
MY3DLAYER
10
6.095372749353244
20
113.99247873335834
30
0.03999999999987477
 70
     32
  0
VERTEX
  8
MY3DLAYER
10
6.095372749353244
20
114.8915847359126
30
0.03999999999987477
 70
     32
  0
VERTEX
  8
MY3DLAYER
10
12.215423834921571
20
114.8915847359126
30
0.03999999999987477
 70
     32
  0
VERTEX
  8
MY3DLAYER
10
12.215423834921571
20
113.99247873335834
30
0.03999999999987477
 70
     32
  0
VERTEX
  8
MY3DLAYER
10
9.66114541857419
20
113.99247873335834
30
0.03999999999987477
 70
     32
  0
VERTEX
  8
MY3DLAYER
10
9.66114541857419
20
107.2849436120301
30
0.03999999999987477
 70
     32
  0
VERTEX
  8
MY3DLAYER
10
8.649651165700625
20
107.2849436120301
30
0.03999999999987477
 70
     32
  0
SEQEND
  0
POLYLINE
 8
Top
 66
     1
70
    8
 10
0.0
 20
 0.0
 30
0.0
  0
VERTEX
  8
MY3DLAYER
10
17.599842736581852
20
110.1355183246738
30
0.03999999999987477
 70
     32
  0
VERTEX
  8
MY3DLAYER
10
17.55642000350395
20
109.4562399083264
30
0.03999999999987477
 70
     32
  0
VERTEX
  8
MY3DLAYER
10
17.426151804270226
20
108.85901768610417
30
0.03999999999987477
 70
     32
  0
VERTEX
  8
MY3DLAYER
10
17.2090381388807
20
108.34385165800713
30
0.03999999999987477
 70
     32
  0
VERTEX
  8
MY3DLAYER
10
16.905079007335363
20
107.9107418240352
30
0.03999999999987477
 70
     32
  0
VERTEX
  8
MY3DLAYER
10
16.528961510528212
20
107.56767030423956
30
0.03999999999987477
 70
     32
  0
VERTEX
  8
MY3DLAYER
10
16.095372749353242
20
107.32261921867122
30
0.03999999999987477
 70
     32
  0
VERTEX
  8
MY3DLAYER
10
15.604312723810462
20
107.17558856733024
30
0.03999999999987477
 70
     32
  0
VERTEX
  8
MY3DLAYER
10
15.055781433899858
20
107.12657835021656
30
0.03999999999987477
 70
     32
  0
VERTEX
  8
MY3DLAYER
10
14.492403400694242
20
107.17718499134045
30
0.03999999999987477
 70
     32
  0
VERTEX
  8
MY3DLAYER
10
13.992563043095263
20
107.3290049147121
30
0.03999999999987477
 70
     32
  0
VERTEX
  8
MY3DLAYER
10
13.556260361102924
20
107.5820381203315
30
0.03999999999987477
 70
     32
  0
VERTEX
  8
MY3DLAYER
10
13.183495354717227
20
107.93628460819868
30
0.03999999999987477
 70
     32
  0
VERTEX
  8
MY3DLAYER
10
12.885123707207649
20
108.37737656222168
30
0.03999999999987477
 70
     32
  0
VERTEX
  8
MY3DLAYER
10
12.672001101843668
20
108.89094616630851
30
0.03999999999987477
 70
     32
  0
VERTEX
  8
MY3DLAYER
10
12.544127538625277
20
109.47699342045922
30
0.03999999999987477
 70
     32
  0
VERTEX
  8
MY3DLAYER
10
12.501503017552478
20
110.1355183246738
30
0.03999999999987477
 70
     32
  0
VERTEX
  8
MY3DLAYER
10
12.545404677833448
20
110.81080568099563
30
0.03999999999987477
 70
     32
  0
VERTEX
  8
MY3DLAYER
10
12.677109658676361
20
111.40627183680661
30
0.03999999999987477
 70
     32
  0
VERTEX
  8
MY3DLAYER
10
12.896617960081214
20
111.92191679210673
30
0.03999999999987477
 70
     32
  0
VERTEX
  8
MY3DLAYER
10
13.203929582048007
20
112.35774054689601
30
0.03999999999987477
 70
     32
  0
VERTEX
  8
MY3DLAYER
10
13.58308028447457
20
112.70416455711313
30
0.03999999999987477
 70
     32
  0
VERTEX
  8
MY3DLAYER
10
14.018105827258736
20
112.95161027869676
30
0.03999999999987477
 70
     32
  0
VERTEX
  8
MY3DLAYER
10
14.509006210400498
20
113.10007771164696
30
0.03999999999987477
 70
     32
  0
VERTEX
  8
MY3DLAYER
10
15.055781433899858
20
113.1495668559637
30
0.03999999999987477
 70
     32
  0
VERTEX
  8
MY3DLAYER
10
15.604312723810462
20
113.10023735404799
30
0.03999999999987477
 70
     32
  0
VERTEX
  8
MY3DLAYER
10
16.095372749353242
20
112.95224884830085
30
0.03999999999987477
 70
     32
  0
VERTEX
  8
MY3DLAYER
10
16.528961510528212
20
112.70560133872232
30
0.03999999999987477
 70
     32
  0
VERTEX
  8
MY3DLAYER
10
16.905079007335363
20
112.36029482531235
30
0.03999999999987477
 70
     32
  0
VERTEX
  8
MY3DLAYER
10
17.2090381388807
20
111.92526928252819
30
0.03999999999987477
 70
     32
  0
VERTEX
  8
MY3DLAYER
10
17.426151804270226
20
111.40946468482703
30
0.03999999999987477
 70
     32
  0
VERTEX
  8
MY3DLAYER
10
17.55642000350395
20
110.81288103220889
30
0.03999999999987477
 70
     32
  0
VERTEX
  8
MY3DLAYER
10
17.599842736581852
20
110.1355183246738
30
0.03999999999987477
 70
     32
  0
SEQEND
  0
POLYLINE
 8
Top
 66
     1
70
    8
 10
0.0
 20
 0.0
 30
0.0
  0
VERTEX
  8
MY3DLAYER
10
16.608782711039066
20
110.1355183246738
30
0.03999999999987477
 70
     32
  0
VERTEX
  8
MY3DLAYER
10
16.507888713593346
20
111.10167413565719
30
0.03999999999987477
 70
     32
  0
VERTEX
  8
MY3DLAYER
10
16.381771216786195
20
111.47795127486535
30
0.03999999999987477
 70
     32
  0
VERTEX
  8
MY3DLAYER
10
16.205206721256182
20
111.78302790321786
30
0.03999999999987477
 70
     32
  0
VERTEX
  8
MY3DLAYER
10
15.982026644627831
20
112.0188197295269
30
0.03999999999987477
 70
     32
  0
VERTEX
  8
MY3DLAYER
10
15.716062404525658
20
112.18724246260481
30
0.03999999999987477
 70
     32
  0
VERTEX
  8
MY3DLAYER
10
15.407314000949667
20
112.28829610245155
30
0.03999999999987477
 70
     32
  0
VERTEX
  8
MY3DLAYER
10
15.055781433899858
20
112.32198064906713
30
0.03999999999987477
 70
     32
  0
VERTEX
  8
MY3DLAYER
10
14.701854230834726
20
112.28829610245155
30
0.03999999999987477
 70
     32
  0
VERTEX
  8
MY3DLAYER
10
14.391030476045454
20
112.18724246260481
30
0.03999999999987477
 70
     32
  0
VERTEX
  8
MY3DLAYER
10
14.123310169532044
20
112.0188197295269
30
0.03999999999987477
 70
     32
  0
VERTEX
  8
MY3DLAYER
10
13.898693311294496
20
111.78302790321786
30
0.03999999999987477
 70
     32
  0
VERTEX
  8
MY3DLAYER
10
13.721011318957329
20
111.47795127486535
30
0.03999999999987477
 70
     32
  0
VERTEX
  8
MY3DLAYER
10
13.59409561014507
20
111.10167413565719
30
0.03999999999987477
 70
     32
  0
VERTEX
  8
MY3DLAYER
10
13.492563043095265
20
110.1355183246738
30
0.03999999999987477
 70
     32
  0
VERTEX
  8
MY3DLAYER
10
13.59409561014507
20
109.19235101943752
30
0.03999999999987477
 70
     32
  0
VERTEX
  8
MY3DLAYER
10
13.721011318957329
20
108.8179895890416
30
0.03999999999987477
 70
     32
  0
VERTEX
  8
MY3DLAYER
10
13.898693311294496
20
108.5084429734605
30
0.03999999999987477
 70
     32
  0
VERTEX
  8
MY3DLAYER
10
14.123310169532044
20
108.26594616630852
30
0.03999999999987477
 70
     32
  0
VERTEX
  8
MY3DLAYER
10
14.391030476045454
20
108.09273416119996
30
0.03999999999987477
 70
     32
  0
VERTEX
  8
MY3DLAYER
10
14.701854230834726
20
107.98880695813484
30
0.03999999999987477
 70
     32
  0
VERTEX
  8
MY3DLAYER
10
15.055781433899858
20
107.95416455711313
30
0.03999999999987477
 70
     32
  0
VERTEX
  8
MY3DLAYER
10
15.405238649736386
20
107.98816838853074
30
0.03999999999987477
 70
     32
  0
VERTEX
  8
MY3DLAYER
10
15.712869556505225
20
108.09017988278363
30
0.03999999999987477
 70
     32
  0
VERTEX
  8
MY3DLAYER
10
15.978674154206374
20
108.26019903987174
30
0.03999999999987477
 70
     32
  0
VERTEX
  8
MY3DLAYER
10
16.20265244283983
20
108.49822585979511
30
0.03999999999987477
 70
     32
  0
VERTEX
  8
MY3DLAYER
10
16.380334435176994
20
108.80457962735576
30
0.03999999999987477
 70
     32
  0
VERTEX
  8
MY3DLAYER
10
16.507250143989257
20
109.17957962735578
30
0.03999999999987477
 70
     32
  0
VERTEX
  8
MY3DLAYER
10
16.608782711039066
20
110.1355183246738
30
0.03999999999987477
 70
     32
  0
SEQEND
  0
POLYLINE
 8
Top
 66
     1
70
    8
 10
0.0
 20
 0.0
 30
0.0
  0
VERTEX
  8
MY3DLAYER
10
23.372511957526935
20
110.28877502965463
30
0.03999999999987477
 70
     32
  0
VERTEX
  8
MY3DLAYER
10
23.329887436454133
20
109.61237017652564
30
0.03999999999987477
 70
     32
  0
VERTEX
  8
MY3DLAYER
10
23.202013873235742
20
109.0084429734605
30
0.03999999999987477
 70
     32
  0
VERTEX
  8
MY3DLAYER
10
22.98889126787176
20
108.47699342045922
30
0.03999999999987477
 70
     32
  0
VERTEX
  8
MY3DLAYER
10
22.69051962036218
20
108.0180215175218
30
0.03999999999987477
 70
     32
  0
VERTEX
  8
MY3DLAYER
10
22.327013873235746
20
107.6481300743545
30
0.03999999999987477
 70
     32
  0
VERTEX
  8
MY3DLAYER
10
21.918488969021187
20
107.38392190066357
30
0.03999999999987477
 70
     32
  0
VERTEX
  8
MY3DLAYER
10
21.464944907718504
20
107.22539699644899
30
0.03999999999987477
 70
     32
  0
VERTEX
  8
MY3DLAYER
10
20.9663816893277
20
107.1725553617108
30
0.03999999999987477
 70
     32
  0
VERTEX
  8
MY3DLAYER
10
20.215423834921573
20
107.26961794153203
30
0.03999999999987477
 70
     32
  0
VERTEX
  8
MY3DLAYER
10
19.546202889838558
20
107.57102279466102
30
0.03999999999987477
 70
     32
  0
VERTEX
  8
MY3DLAYER
10
19.546202889838558
20
105.18021819695986
30
0.03999999999987477
 70
     32
  0
VERTEX
  8
MY3DLAYER
10
18.58579420529194
20
105.18021819695986
30
0.03999999999987477
 70
     32
  0
VERTEX
  8
MY3DLAYER
10
18.58579420529194
20
112.99120159415016
30
0.03999999999987477
 70
     32
  0
VERTEX
  8
MY3DLAYER
10
19.546202889838558
20
112.99120159415016
30
0.03999999999987477
 70
     32
  0
VERTEX
  8
MY3DLAYER
10
19.546202889838558
20
112.39350044472488
30
0.03999999999987477
 70
     32
  0
VERTEX
  8
MY3DLAYER
10
19.92359752585388
20
112.68915817141708
30
0.03999999999987477
 70
     32
  0
VERTEX
  8
MY3DLAYER
10
20.340583477322593
20
112.93245319057415
30
0.03999999999987477
 70
     32
  0
VERTEX
  8
MY3DLAYER
10
20.79716074424469
20
113.09528843961631
30
0.03999999999987477
 70
     32
  0
VERTEX
  8
MY3DLAYER
10
21.293329326620167
20
113.1495668559637
30
0.03999999999987477
 70
     32
  0
VERTEX
  8
MY3DLAYER
10
21.7567712167862
20
113.1010355660531
30
0.03999999999987477
 70
     32
  0
VERTEX
  8
MY3DLAYER
10
22.166253975406885
20
112.95544169632129
30
0.03999999999987477
 70
     32
  0
VERTEX
  8
MY3DLAYER
10
22.52177760248224
20
112.71278524676829
30
0.03999999999987477
 70
     32
  0
VERTEX
  8
MY3DLAYER
10
22.823342098012244
20
112.37306621739408
30
0.03999999999987477
 70
     32
  0
VERTEX
  8
MY3DLAYER
10
23.063603911549926
20
111.95161027869678
30
0.03999999999987477
 70
     32
  0
VERTEX
  8
MY3DLAYER
10
23.23521949264826
20
111.46374310117442
30
0.03999999999987477
 70
     32
  0
VERTEX
  8
MY3DLAYER
10
23.338188841307264
20
110.90946468482704
30
0.03999999999987477
 70
     32
  0
VERTEX
  8
MY3DLAYER
10
23.372511957526935
20
110.28877502965463
30
0.03999999999987477
 70
     32
  0
SEQEND
  0
POLYLINE
 8
Top
 66
     1
70
    8
 10
0.0
 20
 0.0
 30
0.0
  0
VERTEX
  8
MY3DLAYER
10
22.38145193198415
20
110.18149533616804
30
0.03999999999987477
 70
     32
  0
VERTEX
  8
MY3DLAYER
10
22.303546440285555
20
111.04803428891388
30
0.03999999999987477
 70
     32
  0
VERTEX
  8
MY3DLAYER
10
22.06982996518977
20
111.69618243706203
30
0.03999999999987477
 70
     32
  0
VERTEX
  8
MY3DLAYER
10
21.889753336837277
20
111.9319742633711
30
0.03999999999987477
 70
     32
  0
VERTEX
  8
MY3DLAYER
10
21.66114541857419
20
112.10039699644899
30
0.03999999999987477
 70
     32
  0
VERTEX
  8
MY3DLAYER
10
21.384006210400496
20
112.20145063629576
30
0.03999999999987477
 70
     32
  0
VERTEX
  8
MY3DLAYER
10
21.058335712316207
20
112.23513518291134
30
0.03999999999987477
 70
     32
  0
VERTEX
  8
MY3DLAYER
10
20.65667543134558
20
112.18979674102117
30
0.03999999999987477
 70
     32
  0
VERTEX
  8
MY3DLAYER
10
20.269063681664864
20
112.05378141535067
30
0.03999999999987477
 70
     32
  0
VERTEX
  8
MY3DLAYER
10
19.546202889838558
20
111.58634846515909
30
0.03999999999987477
 70
     32
  0
VERTEX
  8
MY3DLAYER
10
19.546202889838558
20
108.35263199006332
30
0.03999999999987477
 70
     32
  0
VERTEX
  8
MY3DLAYER
10
20.192435329174444
20
108.10231270526127
30
0.03999999999987477
 70
     32
  0
VERTEX
  8
MY3DLAYER
10
20.80801642751416
20
108.03590146643623
30
0.03999999999987477
 70
     32
  0
VERTEX
  8
MY3DLAYER
10
21.16018756416806
20
108.07006494025488
30
0.03999999999987477
 70
     32
  0
VERTEX
  8
MY3DLAYER
10
21.47085167655631
20
108.17255536171083
30
0.03999999999987477
 70
     32
  0
VERTEX
  8
MY3DLAYER
10
21.740008764678915
20
108.34337273080405
30
0.03999999999987477
 70
     32
  0
VERTEX
  8
MY3DLAYER
10
21.967658828535875
20
108.58251704753458
30
0.03999999999987477
 70
     32
  0
VERTEX
  8
MY3DLAYER
10
22.148693311294494
20
108.88743403348604
30
0.03999999999987477
 70
     32
  0
VERTEX
  8
MY3DLAYER
10
22.27800365612208
20
109.25556941024212
30
0.03999999999987477
 70
     32
  0
VERTEX
  8
MY3DLAYER
10
22.38145193198415
20
110.18149533616804
30
0.03999999999987477
 70
     32
  0
SEQEND
  0
POLYLINE
 8
Layer0
 66
     1
70
    8
 10
0.0
 20
 0.0
 30
0.0
  0
VERTEX
  8
MY3DLAYER
10
321.6494920394139
20
104.9999999999997
30
3.053791862272138e-13
 70
     32
  0
VERTEX
  8
MY3DLAYER
10
321.64949203941444
20
115.14400939646892
30
8.250961427137746e-13
 70
     32
  0
VERTEX
  8
MY3DLAYER
10
318.14949203941444
20
113.97734272980469
30
3.1755754029623014e-13
 70
     32
  0
VERTEX
  8
MY3DLAYER
10
212.14949203941333
20
78.64400939647143
30
1.8000331152622248e-13
 70
     32
  0
VERTEX
  8
MY3DLAYER
10
208.64949203941342
20
77.47734272980306
30
1.6485568890025335e-13
 70
     32
  0
VERTEX
  8
MY3DLAYER
10
208.64949203941313
20
67.50000000000034
30
2.8208305571617815e-13
 70
     32
  0
VERTEX
  8
MY3DLAYER
10
205.1494920394134
20
67.5000000000007
30
2.771442169896153e-13
 70
     32
  0
VERTEX
  8
MY3DLAYER
10
205.14949203941384
20
52.500000000000774
30
2.6054418383661075e-13
 70
     32
  0
VERTEX
  8
MY3DLAYER
10
208.64949203941396
20
52.50000000000005
30
2.654830225631741e-13
 70
     32
  0
VERTEX
  8
MY3DLAYER
10
208.6494920394138
20
30.00000000000091
30
2.8288247007188684e-13
 70
     32
  0
VERTEX
  8
MY3DLAYER
10
205.14949203941313
20
30.00000000000163
30
2.779436313453222e-13
 70
     32
  0
VERTEX
  8
MY3DLAYER
10
205.14949203941313
20
15.000000000001569
30
4.0234192231971104e-13
 70
     32
  0
VERTEX
  8
MY3DLAYER
10
208.6494920394136
20
14.999999999999945
30
4.072807610462747e-13
 70
     32
  0
VERTEX
  8
MY3DLAYER
10
208.64949203941342
20
-3.524958103184872e-16
30
3.230015323121219e-13
 70
     32
  0
VERTEX
  8
MY3DLAYER
10
220.14949203941333
20
1.443470343254205e-12
30
3.392291452708292e-13
 70
     32
  0
VERTEX
  8
MY3DLAYER
10
220.14949203941305
20
3.5000000000013283
30
1.0547331074382664e-13
 70
     32
  0
VERTEX
  8
MY3DLAYER
10
235.14949203941345
20
3.5000000000015086
30
1.2663976242909806e-13
 70
     32
  0
VERTEX
  8
MY3DLAYER
10
235.1494920394127
20
8.11797851163476e-13
30
3.603955969560997e-13
 70
     32
  0
VERTEX
  8
MY3DLAYER
10
257.64949203941273
20
-9.05914232518512e-14
30
3.9214527448400686e-13
 70
     32
  0
VERTEX
  8
MY3DLAYER
10
257.6494920394142
20
3.5000000000009672
30
1.58389439957004e-13
 70
     32
  0
VERTEX
  8
MY3DLAYER
10
272.6494920394134
20
3.500000000000426
30
1.795558916422743e-13
 70
     32
  0
VERTEX
  8
MY3DLAYER
10
272.6494920394127
20
2.7036428651427967e-13
30
4.1331172616927813e-13
 70
     32
  0
VERTEX
  8
MY3DLAYER
10
295.1494920394131
20
4.508421413973451e-13
30
4.4506140369718364e-13
 70
     32
  0
VERTEX
  8
MY3DLAYER
10
295.1494920394136
20
3.5000000000007865
30
2.1130556917018082e-13
 70
     32
  0
VERTEX
  8
MY3DLAYER
10
310.1494920394137
20
3.5000000000018696
30
2.324720208554519e-13
 70
     32
  0
VERTEX
  8
MY3DLAYER
10
310.14949203941336
20
1.1727535609296068e-12
30
4.662278553824545e-13
 70
     32
  0
VERTEX
  8
MY3DLAYER
10
321.64949203941353
20
5.410810688388779e-13
30
4.824554683411614e-13
 70
     32
  0
VERTEX
  8
MY3DLAYER
10
321.6494920394132
20
14.999999999999945
30
5.667346970753139e-13
 70
     32
  0
VERTEX
  8
MY3DLAYER
10
325.1494920394137
20
14.999999999999583
30
5.716735358018777e-13
 70
     32
  0
VERTEX
  8
MY3DLAYER
10
325.14949203941336
20
30.000000000000007
30
4.4727524482748905e-13
 70
     32
  0
VERTEX
  8
MY3DLAYER
10
321.64949203941353
20
29.999999999999826
30
4.423364061009256e-13
 70
     32
  0
VERTEX
  8
MY3DLAYER
10
321.64949203941404
20
52.50000000000005
30
4.2493695859221493e-13
 70
     32
  0
VERTEX
  8
MY3DLAYER
10
325.14949203941353
20
52.50000000000041
30
4.2987579731877793e-13
 70
     32
  0
VERTEX
  8
MY3DLAYER
10
325.1494920394141
20
67.49999999999997
30
4.4647583047178324e-13
 70
     32
  0
VERTEX
  8
MY3DLAYER
10
321.64949203941353
20
67.49999999999997
30
4.4153699174521927e-13
 70
     32
  0
VERTEX
  8
MY3DLAYER
10
321.6494920394128
20
89.99999999999989
30
3.4517848272516695e-13
 70
     32
  0
VERTEX
  8
MY3DLAYER
10
325.14949203941353
20
90.00000000000134
30
3.501173214517306e-13
 70
     32
  0
VERTEX
  8
MY3DLAYER
10
325.1494920394146
20
105.00000000000024
30
3.1031802495377745e-13
 70
     32
  0
VERTEX
  8
MY3DLAYER
10
321.6494920394139
20
104.9999999999997
30
3.053791862272138e-13
 70
     32
  0
SEQEND
  0
POLYLINE
 8
Layer0
 66
     1
70
    8
 10
0.0
 20
 0.0
 30
0.0
  0
VERTEX
  8
MY3DLAYER
10
448.92680036455965
20
81.16666666666676
30
3.5718469430388687e-13
 70
     32
  0
VERTEX
  8
MY3DLAYER
10
448.92680036455914
20
77.4773427298035
30
3.485777353881822e-13
 70
     32
  0
VERTEX
  8
MY3DLAYER
10
335.9268003645589
20
115.14400939647045
30
3.26897191110884e-13
 70
     32
  0
VERTEX
  8
MY3DLAYER
10
335.92680036455886
20
118.83333333333331
30
3.30863267680119e-13
 70
     32
  0
VERTEX
  8
MY3DLAYER
10
448.92680036455965
20
81.16666666666676
30
3.5718469430388687e-13
 70
     32
  0
SEQEND
  0
POLYLINE
 8
Layer0
 66
     1
70
    8
 10
0.0
 20
 0.0
 30
0.0
  0
VERTEX
  8
MY3DLAYER
10
2.4999999999999734
20
122.6
30
1.075731516909394e-13
 70
     32
  0
VERTEX
  8
MY3DLAYER
10
14.999999999999973
20
122.61245853300869
30
8.811984551064423e-13
 70
     32
  0
VERTEX
  8
MY3DLAYER
10
14.999999999999973
20
126.11245853300868
30
8.811984551064423e-13
 70
     32
  0
VERTEX
  8
MY3DLAYER
10
29.999999999999932
20
126.11245853300868
30
8.811984551064423e-13
 70
     32
  0
VERTEX
  8
MY3DLAYER
10
29.999999999999932
20
122.61245853300869
30
8.710465757692701e-13
 70
     32
  0
VERTEX
  8
MY3DLAYER
10
92.4999999999999
20
122.61245853300869
30
8.549727668187471e-13
 70
     32
  0
VERTEX
  8
MY3DLAYER
10
92.4999999999999
20
126.11245853300868
30
8.549727668187471e-13
 70
     32
  0
VERTEX
  8
MY3DLAYER
10
107.5000000000003
20
126.11245853300868
30
8.549727668187471e-13
 70
     32
  0
VERTEX
  8
MY3DLAYER
10
107.5000000000003
20
122.61245853300869
30
8.549727668187471e-13
 70
     32
  0
VERTEX
  8
MY3DLAYER
10
170.00000000000023
20
122.61245853300869
30
9.921800816444627e-13
 70
     32
  0
VERTEX
  8
MY3DLAYER
10
170.00000000000023
20
126.11245853300868
30
9.921800816444627e-13
 70
     32
  0
VERTEX
  8
MY3DLAYER
10
184.9999999999999
20
126.11245853300868
30
9.921800816444627e-13
 70
     32
  0
VERTEX
  8
MY3DLAYER
10
184.9999999999999
20
122.61245853300869
30
8.185951991938802e-13
 70
     32
  0
VERTEX
  8
MY3DLAYER
10
197.4999999999999
20
122.61245853300869
30
5.368648286950988e-13
 70
     32
  0
VERTEX
  8
MY3DLAYER
10
197.4999999999999
20
3.5000000000000195
30
8.386616567788916e-14
 70
     32
  0
VERTEX
  8
MY3DLAYER
10
184.9999999999999
20
3.5000000000000195
30
3.371483641662368e-13
 70
     32
  0
VERTEX
  8
MY3DLAYER
10
184.9999999999999
20
-3.524958103184872e-16
30
3.230015323121219e-13
 70
     32
  0
VERTEX
  8
MY3DLAYER
10
170.00000000000023
20
-3.524958103184872e-16
30
4.1073237184286745e-13
 70
     32
  0
VERTEX
  8
MY3DLAYER
10
170.00000000000023
20
3.5000000000000195
30
4.255274719832807e-13
 70
     32
  0
VERTEX
  8
MY3DLAYER
10
107.5000000000003
20
3.5000000000000195
30
3.371483641662368e-13
 70
     32
  0
VERTEX
  8
MY3DLAYER
10
107.5000000000003
20
-3.524958103184872e-16
30
3.2553950214641425e-13
 70
     32
  0
VERTEX
  8
MY3DLAYER
10
92.4999999999999
20
-3.524958103184872e-16
30
3.2553950214641425e-13
 70
     32
  0
VERTEX
  8
MY3DLAYER
10
92.4999999999999
20
3.5000000000000195
30
3.4284713051909905e-13
 70
     32
  0
VERTEX
  8
MY3DLAYER
10
29.999999999999932
20
3.5000000000000195
30
3.371483641662368e-13
 70
     32
  0
VERTEX
  8
MY3DLAYER
10
29.999999999999932
20
-3.524958103184872e-16
30
3.517651904341099e-13
 70
     32
  0
VERTEX
  8
MY3DLAYER
10
14.999999999999973
20
-3.524958103184872e-16
30
3.517651904341099e-13
 70
     32
  0
VERTEX
  8
MY3DLAYER
10
14.999999999999973
20
3.5000000000000195
30
3.785430189082163e-13
 70
     32
  0
VERTEX
  8
MY3DLAYER
10
2.4999999999999734
20
3.5000000000000195
30
1.075731516909394e-13
 70
     32
  0
VERTEX
  8
MY3DLAYER
10
2.4999999999999734
20
122.6
30
1.075731516909394e-13
 70
     32
  0
SEQEND
  0
POLYLINE
 8
Layer0
 66
     1
70
    8
 10
0.0
 20
 0.0
 30
0.0
  0
VERTEX
  8
MY3DLAYER
10
177.4999999999997
20
72.65629403338076
30
2.773779049248492e-13
 70
     32
  0
VERTEX
  8
MY3DLAYER
10
177.4999999999997
20
107.15629403338065
30
2.773779049248492e-13
 70
     32
  0
VERTEX
  8
MY3DLAYER
10
119.4999999999998
20
107.15629403338069
30
2.773779049248492e-13
 70
     32
  0
VERTEX
  8
MY3DLAYER
10
119.49999999999983
20
89.90629403338072
30
2.773779049248492e-13
 70
     32
  0
VERTEX
  8
MY3DLAYER
10
119.49999999999999
20
72.65629403338053
30
2.773779049248492e-13
 70
     32
  0
VERTEX
  8
MY3DLAYER
10
177.4999999999997
20
72.65629403338076
30
2.773779049248492e-13
 70
     32
  0
SEQEND
  0
POLYLINE
 8
Layer0
 66
     1
70
    8
 10
0.0
 20
 0.0
 30
0.0
  0
VERTEX
  8
MY3DLAYER
10
149.99999999999991
20
52.50042847377747
30
2.773779049248492e-13
 70
     32
  0
VERTEX
  8
MY3DLAYER
10
149.9327484814112
20
53.183244600833966
30
2.773779049248492e-13
 70
     32
  0
VERTEX
  8
MY3DLAYER
10
149.73357836378943
20
53.83982048705531
30
2.773779049248492e-13
 70
     32
  0
VERTEX
  8
MY3DLAYER
10
149.4101436430588
20
54.44492428934608
30
2.773779049248492e-13
 70
     32
  0
VERTEX
  8
MY3DLAYER
10
148.9748737341528
20
54.97530220793039
30
2.773779049248492e-13
 70
     32
  0
VERTEX
  8
MY3DLAYER
10
148.4444958155685
20
55.410572116836406
30
2.773779049248492e-13
 70
     32
  0
VERTEX
  8
MY3DLAYER
10
147.83939201327772
20
55.73400683756697
30
2.773779049248492e-13
 70
     32
  0
VERTEX
  8
MY3DLAYER
10
147.18281612705633
20
55.93317695518878
30
2.773779049248492e-13
 70
     32
  0
VERTEX
  8
MY3DLAYER
10
146.4999999999999
20
56.00042847377746
30
2.773779049248492e-13
 70
     32
  0
VERTEX
  8
MY3DLAYER
10
145.81718387294342
20
55.93317695518878
30
2.773779049248492e-13
 70
     32
  0
VERTEX
  8
MY3DLAYER
10
145.16060798672206
20
55.73400683756697
30
2.773779049248492e-13
 70
     32
  0
VERTEX
  8
MY3DLAYER
10
144.55550418443127
20
55.41057211683636
30
2.773779049248492e-13
 70
     32
  0
VERTEX
  8
MY3DLAYER
10
144.02512626584695
20
54.97530220793039
30
2.773779049248492e-13
 70
     32
  0
VERTEX
  8
MY3DLAYER
10
143.58985635694097
20
54.44492428934608
30
2.773779049248492e-13
 70
     32
  0
VERTEX
  8
MY3DLAYER
10
143.26642163621037
20
53.83982048705531
30
2.773779049248492e-13
 70
     32
  0
VERTEX
  8
MY3DLAYER
10
143.06725151858856
20
53.18324460083392
30
2.773779049248492e-13
 70
     32
  0
VERTEX
  8
MY3DLAYER
10
142.9999999999999
20
52.50042847377747
30
2.773779049248492e-13
 70
     32
  0
VERTEX
  8
MY3DLAYER
10
143.06725151858856
20
51.81761234672103
30
2.773779049248492e-13
 70
     32
  0
VERTEX
  8
MY3DLAYER
10
143.26642163621037
20
51.16103646049964
30
2.773779049248492e-13
 70
     32
  0
VERTEX
  8
MY3DLAYER
10
143.58985635694097
20
50.555932658208846
30
2.773779049248492e-13
 70
     32
  0
VERTEX
  8
MY3DLAYER
10
144.02512626584695
20
50.02555473962457
30
2.773779049248492e-13
 70
     32
  0
VERTEX
  8
MY3DLAYER
10
144.55550418443127
20
49.590284830718545
30
2.773779049248492e-13
 70
     32
  0
VERTEX
  8
MY3DLAYER
10
145.16060798672206
20
49.26685010998795
30
2.773779049248492e-13
 70
     32
  0
VERTEX
  8
MY3DLAYER
10
145.81718387294345
20
49.067679992366145
30
2.773779049248492e-13
 70
     32
  0
VERTEX
  8
MY3DLAYER
10
146.4999999999999
20
49.00042847377747
30
2.773779049248492e-13
 70
     32
  0
VERTEX
  8
MY3DLAYER
10
147.18281612705633
20
49.067679992366145
30
2.773779049248492e-13
 70
     32
  0
VERTEX
  8
MY3DLAYER
10
147.83939201327772
20
49.26685010998795
30
2.773779049248492e-13
 70
     32
  0
VERTEX
  8
MY3DLAYER
10
148.4444958155685
20
49.590284830718545
30
2.773779049248492e-13
 70
     32
  0
VERTEX
  8
MY3DLAYER
10
148.97487373415282
20
50.02555473962457
30
2.773779049248492e-13
 70
     32
  0
VERTEX
  8
MY3DLAYER
10
149.4101436430588
20
50.555932658208896
30
2.773779049248492e-13
 70
     32
  0
VERTEX
  8
MY3DLAYER
10
149.73357836378943
20
51.16103646049968
30
2.773779049248492e-13
 70
     32
  0
VERTEX
  8
MY3DLAYER
10
149.9327484814112
20
51.81761234672103
30
2.773779049248492e-13
 70
     32
  0
VERTEX
  8
MY3DLAYER
10
149.99999999999991
20
52.50042847377747
30
2.773779049248492e-13
 70
     32
  0
SEQEND
  0
POLYLINE
 8
Layer0
 66
     1
70
    8
 10
0.0
 20
 0.0
 30
0.0
  0
VERTEX
  8
MY3DLAYER
10
89.07867656732884
20
61.25042847377748
30
3.6095570976613087e-13
 70
     32
  0
VERTEX
  8
MY3DLAYER
10
89.07867656732884
20
90.00042847377746
30
3.6095570976613087e-13
 70
     32
  0
VERTEX
  8
MY3DLAYER
10
14.07867656732885
20
90.00042847377746
30
3.6095570976613087e-13
 70
     32
  0
VERTEX
  8
MY3DLAYER
10
14.07867656732885
20
61.25042847377747
30
3.6095570976613087e-13
 70
     32
  0
VERTEX
  8
MY3DLAYER
10
14.11075833717706
20
60.76095525295227
30
3.6095570976613087e-13
 70
     32
  0
VERTEX
  8
MY3DLAYER
10
14.206454718744844
20
60.27985705464302
30
3.6095570976613087e-13
 70
     32
  0
VERTEX
  8
MY3DLAYER
10
14.364128320411522
20
59.815365602408384
30
3.6095570976613087e-13
 70
     32
  0
VERTEX
  8
MY3DLAYER
10
14.581081303137202
20
59.37542847377747
30
3.6095570976613087e-13
 70
     32
  0
VERTEX
  8
MY3DLAYER
10
14.853601541236714
20
58.96757311499476
30
3.6095570976613087e-13
 70
     32
  0
VERTEX
  8
MY3DLAYER
10
15.177026137879292
20
58.598778044327915
30
3.6095570976613087e-13
 70
     32
  0
VERTEX
  8
MY3DLAYER
10
15.545821208546144
20
58.27535344768533
30
3.6095570976613087e-13
 70
     32
  0
VERTEX
  8
MY3DLAYER
10
15.953676567328847
20
58.00283320958582
30
3.6095570976613087e-13
 70
     32
  0
VERTEX
  8
MY3DLAYER
10
16.39361369595976
20
57.78588022686014
30
3.6095570976613087e-13
 70
     32
  0
VERTEX
  8
MY3DLAYER
10
16.858105148194394
20
57.62820662519346
30
3.6095570976613087e-13
 70
     32
  0
VERTEX
  8
MY3DLAYER
10
17.339203346503655
20
57.53251024362567
30
3.6095570976613087e-13
 70
     32
  0
VERTEX
  8
MY3DLAYER
10
17.82867656732885
20
57.500428473777454
30
3.6095570976613087e-13
 70
     32
  0
VERTEX
  8
MY3DLAYER
10
21.57867656732885
20
57.500428473777475
30
3.6095570976613087e-13
 70
     32
  0
VERTEX
  8
MY3DLAYER
10
22.22572418008515
20
57.41524303950015
30
3.6095570976613087e-13
 70
     32
  0
VERTEX
  8
MY3DLAYER
10
22.535385148241577
20
57.310127305055694
30
3.6095570976613087e-13
 70
     32
  0
VERTEX
  8
MY3DLAYER
10
22.82867656732885
20
57.16549198323857
30
3.6095570976613087e-13
 70
     32
  0
VERTEX
  8
MY3DLAYER
10
23.100580139850653
20
56.98381182450556
30
3.6095570976613087e-13
 70
     32
  0
VERTEX
  8
MY3DLAYER
10
23.346443520295217
20
56.76819542674383
30
3.6095570976613087e-13
 70
     32
  0
VERTEX
  8
MY3DLAYER
10
23.56205991805694
20
56.52233204629926
30
3.6095570976613087e-13
 70
     32
  0
VERTEX
  8
MY3DLAYER
10
23.743740076789948
20
56.25042847377747
30
3.6095570976613087e-13
 70
     32
  0
VERTEX
  8
MY3DLAYER
10
23.888375398607067
20
55.95713705469019
30
3.6095570976613087e-13
 70
     32
  0
VERTEX
  8
MY3DLAYER
10
23.99349113305152
20
55.64747608653377
30
3.6095570976613087e-13
 70
     32
  0
VERTEX
  8
MY3DLAYER
10
24.07867656732885
20
55.00042847377746
30
3.6095570976613087e-13
 70
     32
  0
VERTEX
  8
MY3DLAYER
10
24.07867656732885
20
50.00042847377746
30
3.6095570976613087e-13
 70
     32
  0
VERTEX
  8
MY3DLAYER
10
23.99349113305152
20
49.353380861021165
30
3.6095570976613087e-13
 70
     32
  0
VERTEX
  8
MY3DLAYER
10
23.888375398607067
20
49.043719892864736
30
3.6095570976613087e-13
 70
     32
  0
VERTEX
  8
MY3DLAYER
10
23.743740076789948
20
48.75042847377746
30
3.6095570976613087e-13
 70
     32
  0
VERTEX
  8
MY3DLAYER
10
23.56205991805694
20
48.47852490125566
30
3.6095570976613087e-13
 70
     32
  0
VERTEX
  8
MY3DLAYER
10
23.346443520295217
20
48.2326615208111
30
3.6095570976613087e-13
 70
     32
  0
VERTEX
  8
MY3DLAYER
10
23.100580139850653
20
48.01704512304937
30
3.6095570976613087e-13
 70
     32
  0
VERTEX
  8
MY3DLAYER
10
22.82867656732885
20
47.83536496431636
30
3.6095570976613087e-13
 70
     32
  0
VERTEX
  8
MY3DLAYER
10
22.535385148241577
20
47.69072964249924
30
3.6095570976613087e-13
 70
     32
  0
VERTEX
  8
MY3DLAYER
10
22.22572418008515
20
47.58561390805479
30
3.6095570976613087e-13
 70
     32
  0
VERTEX
  8
MY3DLAYER
10
21.57867656732885
20
47.500428473777454
30
3.6095570976613087e-13
 70
     32
  0
VERTEX
  8
MY3DLAYER
10
17.82867656732885
20
47.500428473777454
30
3.6095570976613087e-13
 70
     32
  0
VERTEX
  8
MY3DLAYER
10
17.339203346503655
20
47.46834670392925
30
3.6095570976613087e-13
 70
     32
  0
VERTEX
  8
MY3DLAYER
10
16.858105148194397
20
47.372650322361466
30
3.6095570976613087e-13
 70
     32
  0
VERTEX
  8
MY3DLAYER
10
16.39361369595976
20
47.214976720694786
30
3.6095570976613087e-13
 70
     32
  0
VERTEX
  8
MY3DLAYER
10
15.953676567328847
20
46.998023737969106
30
3.6095570976613087e-13
 70
     32
  0
VERTEX
  8
MY3DLAYER
10
15.545821208546148
20
46.725503499869596
30
3.6095570976613087e-13
 70
     32
  0
VERTEX
  8
MY3DLAYER
10
15.177026137879295
20
46.40207890322702
30
3.6095570976613087e-13
 70
     32
  0
VERTEX
  8
MY3DLAYER
10
14.853601541236719
20
46.033283832560166
30
3.6095570976613087e-13
 70
     32
  0
VERTEX
  8
MY3DLAYER
10
14.581081303137204
20
45.62542847377747
30
3.6095570976613087e-13
 70
     32
  0
VERTEX
  8
MY3DLAYER
10
14.364128320411522
20
45.18549134514655
30
3.6095570976613087e-13
 70
     32
  0
VERTEX
  8
MY3DLAYER
10
14.206454718744844
20
44.72099989291191
30
3.6095570976613087e-13
 70
     32
  0
VERTEX
  8
MY3DLAYER
10
14.11075833717706
20
44.23990169460266
30
3.6095570976613087e-13
 70
     32
  0
VERTEX
  8
MY3DLAYER
10
14.07867656732885
20
43.75042847377746
30
3.6095570976613087e-13
 70
     32
  0
VERTEX
  8
MY3DLAYER
10
14.07867656732885
20
15.000428473777466
30
3.6095570976613087e-13
 70
     32
  0
VERTEX
  8
MY3DLAYER
10
89.07867656732884
20
15.000428473777477
30
3.6095570976613087e-13
 70
     32
  0
VERTEX
  8
MY3DLAYER
10
89.07867656732884
20
43.75042847377746
30
3.6095570976613087e-13
 70
     32
  0
VERTEX
  8
MY3DLAYER
10
89.04659479748064
20
44.23990169460265
30
3.6095570976613087e-13
 70
     32
  0
VERTEX
  8
MY3DLAYER
10
88.95089841591285
20
44.72099989291191
30
3.6095570976613087e-13
 70
     32
  0
VERTEX
  8
MY3DLAYER
10
88.79322481424617
20
45.185491345146545
30
3.6095570976613087e-13
 70
     32
  0
VERTEX
  8
MY3DLAYER
10
88.57627183152049
20
45.62542847377746
30
3.6095570976613087e-13
 70
     32
  0
VERTEX
  8
MY3DLAYER
10
88.30375159342098
20
46.033283832560166
30
3.6095570976613087e-13
 70
     32
  0
VERTEX
  8
MY3DLAYER
10
87.9803269967784
20
46.40207890322702
30
3.6095570976613087e-13
 70
     32
  0
VERTEX
  8
MY3DLAYER
10
87.61153192611154
20
46.725503499869596
30
3.6095570976613087e-13
 70
     32
  0
VERTEX
  8
MY3DLAYER
10
87.20367656732884
20
46.998023737969106
30
3.6095570976613087e-13
 70
     32
  0
VERTEX
  8
MY3DLAYER
10
86.76373943869793
20
47.214976720694786
30
3.6095570976613087e-13
 70
     32
  0
VERTEX
  8
MY3DLAYER
10
86.2992479864633
20
47.37265032236147
30
3.6095570976613087e-13
 70
     32
  0
VERTEX
  8
MY3DLAYER
10
85.81814978815405
20
47.46834670392925
30
3.6095570976613087e-13
 70
     32
  0
VERTEX
  8
MY3DLAYER
10
85.32867656732884
20
47.50042847377746
30
3.6095570976613087e-13
 70
     32
  0
VERTEX
  8
MY3DLAYER
10
81.57867656732884
20
47.50042847377746
30
3.6095570976613087e-13
 70
     32
  0
VERTEX
  8
MY3DLAYER
10
80.93162895457255
20
47.58561390805479
30
3.6095570976613087e-13
 70
     32
  0
VERTEX
  8
MY3DLAYER
10
80.62196798641611
20
47.69072964249924
30
3.6095570976613087e-13
 70
     32
  0
VERTEX
  8
MY3DLAYER
10
80.32867656732883
20
47.83536496431636
30
3.6095570976613087e-13
 70
     32
  0
VERTEX
  8
MY3DLAYER
10
80.05677299480703
20
48.01704512304937
30
3.6095570976613087e-13
 70
     32
  0
VERTEX
  8
MY3DLAYER
10
79.81090961436247
20
48.2326615208111
30
3.6095570976613087e-13
 70
     32
  0
VERTEX
  8
MY3DLAYER
10
79.59529321660074
20
48.47852490125566
30
3.6095570976613087e-13
 70
     32
  0
VERTEX
  8
MY3DLAYER
10
79.41361305786774
20
48.75042847377747
30
3.6095570976613087e-13
 70
     32
  0
VERTEX
  8
MY3DLAYER
10
79.26897773605062
20
49.043719892864736
30
3.6095570976613087e-13
 70
     32
  0
VERTEX
  8
MY3DLAYER
10
79.16386200160616
20
49.353380861021165
30
3.6095570976613087e-13
 70
     32
  0
VERTEX
  8
MY3DLAYER
10
79.07867656732884
20
50.00042847377747
30
3.6095570976613087e-13
 70
     32
  0
VERTEX
  8
MY3DLAYER
10
79.07867656732883
20
55.00042847377747
30
3.6095570976613087e-13
 70
     32
  0
VERTEX
  8
MY3DLAYER
10
79.16386200160616
20
55.64747608653377
30
3.6095570976613087e-13
 70
     32
  0
VERTEX
  8
MY3DLAYER
10
79.26897773605062
20
55.95713705469019
30
3.6095570976613087e-13
 70
     32
  0
VERTEX
  8
MY3DLAYER
10
79.41361305786774
20
56.25042847377747
30
3.6095570976613087e-13
 70
     32
  0
VERTEX
  8
MY3DLAYER
10
79.59529321660074
20
56.52233204629926
30
3.6095570976613087e-13
 70
     32
  0
VERTEX
  8
MY3DLAYER
10
79.81090961436247
20
56.76819542674383
30
3.6095570976613087e-13
 70
     32
  0
VERTEX
  8
MY3DLAYER
10
80.05677299480703
20
56.98381182450556
30
3.6095570976613087e-13
 70
     32
  0
VERTEX
  8
MY3DLAYER
10
80.32867656732883
20
57.16549198323857
30
3.6095570976613087e-13
 70
     32
  0
VERTEX
  8
MY3DLAYER
10
80.62196798641611
20
57.310127305055694
30
3.6095570976613087e-13
 70
     32
  0
VERTEX
  8
MY3DLAYER
10
80.93162895457253
20
57.41524303950013
30
3.6095570976613087e-13
 70
     32
  0
VERTEX
  8
MY3DLAYER
10
81.57867656732883
20
57.50042847377747
30
3.6095570976613087e-13
 70
     32
  0
VERTEX
  8
MY3DLAYER
10
85.32867656732883
20
57.50042847377747
30
3.6095570976613087e-13
 70
     32
  0
VERTEX
  8
MY3DLAYER
10
85.81814978815403
20
57.53251024362567
30
3.6095570976613087e-13
 70
     32
  0
VERTEX
  8
MY3DLAYER
10
86.29924798646329
20
57.62820662519346
30
3.6095570976613087e-13
 70
     32
  0
VERTEX
  8
MY3DLAYER
10
86.76373943869793
20
57.78588022686014
30
3.6095570976613087e-13
 70
     32
  0
VERTEX
  8
MY3DLAYER
10
87.20367656732884
20
58.00283320958582
30
3.6095570976613087e-13
 70
     32
  0
VERTEX
  8
MY3DLAYER
10
87.61153192611154
20
58.27535344768533
30
3.6095570976613087e-13
 70
     32
  0
VERTEX
  8
MY3DLAYER
10
87.98032699677839
20
58.598778044327915
30
3.6095570976613087e-13
 70
     32
  0
VERTEX
  8
MY3DLAYER
10
88.30375159342097
20
58.96757311499477
30
3.6095570976613087e-13
 70
     32
  0
VERTEX
  8
MY3DLAYER
10
88.57627183152049
20
59.37542847377748
30
3.6095570976613087e-13
 70
     32
  0
VERTEX
  8
MY3DLAYER
10
88.79322481424617
20
59.815365602408384
30
3.6095570976613087e-13
 70
     32
  0
VERTEX
  8
MY3DLAYER
10
88.95089841591285
20
60.279857054643024
30
3.6095570976613087e-13
 70
     32
  0
VERTEX
  8
MY3DLAYER
10
89.04659479748062
20
60.760955252952286
30
3.6095570976613087e-13
 70
     32
  0
VERTEX
  8
MY3DLAYER
10
89.07867656732884
20
61.25042847377748
30
3.6095570976613087e-13
 70
     32
  0
SEQEND
  0
POLYLINE
 8
Layer0
 66
     1
70
    8
 10
0.0
 20
 0.0
 30
0.0
  0
VERTEX
  8
MY3DLAYER
10
84.07867656732884
20
52.50042847377747
30
3.6095570976613087e-13
 70
     32
  0
VERTEX
  8
MY3DLAYER
10
84.01052821990699
20
53.01806656398251
30
3.6095570976613087e-13
 70
     32
  0
VERTEX
  8
MY3DLAYER
10
83.81072737489772
20
53.50042847377746
30
3.6095570976613087e-13
 70
     32
  0
VERTEX
  8
MY3DLAYER
10
83.49289012970195
20
53.91464203615056
30
3.6095570976613087e-13
 70
     32
  0
VERTEX
  8
MY3DLAYER
10
83.07867656732884
20
54.23247928134636
30
3.6095570976613087e-13
 70
     32
  0
VERTEX
  8
MY3DLAYER
10
82.5963146575339
20
54.43228012635561
30
3.6095570976613087e-13
 70
     32
  0
VERTEX
  8
MY3DLAYER
10
82.07867656732886
20
54.500428473777475
30
3.6095570976613087e-13
 70
     32
  0
VERTEX
  8
MY3DLAYER
10
81.5610384771238
20
54.43228012635561
30
3.6095570976613087e-13
 70
     32
  0
VERTEX
  8
MY3DLAYER
10
81.07867656732886
20
54.23247928134636
30
3.6095570976613087e-13
 70
     32
  0
VERTEX
  8
MY3DLAYER
10
80.66446300495575
20
53.91464203615056
30
3.6095570976613087e-13
 70
     32
  0
VERTEX
  8
MY3DLAYER
10
80.34662575975997
20
53.500428473777475
30
3.6095570976613087e-13
 70
     32
  0
VERTEX
  8
MY3DLAYER
10
80.14682491475071
20
53.01806656398251
30
3.6095570976613087e-13
 70
     32
  0
VERTEX
  8
MY3DLAYER
10
80.07867656732886
20
52.50042847377747
30
3.6095570976613087e-13
 70
     32
  0
VERTEX
  8
MY3DLAYER
10
80.14682491475071
20
51.98279038357243
30
3.6095570976613087e-13
 70
     32
  0
VERTEX
  8
MY3DLAYER
10
80.34662575975997
20
51.50042847377747
30
3.6095570976613087e-13
 70
     32
  0
VERTEX
  8
MY3DLAYER
10
80.66446300495575
20
51.08621491140437
30
3.6095570976613087e-13
 70
     32
  0
VERTEX
  8
MY3DLAYER
10
81.07867656732886
20
50.76837766620859
30
3.6095570976613087e-13
 70
     32
  0
VERTEX
  8
MY3DLAYER
10
81.5610384771238
20
50.56857682119933
30
3.6095570976613087e-13
 70
     32
  0
VERTEX
  8
MY3DLAYER
10
82.07867656732886
20
50.50042847377747
30
3.6095570976613087e-13
 70
     32
  0
VERTEX
  8
MY3DLAYER
10
82.5963146575339
20
50.56857682119933
30
3.6095570976613087e-13
 70
     32
  0
VERTEX
  8
MY3DLAYER
10
83.07867656732884
20
50.76837766620859
30
3.6095570976613087e-13
 70
     32
  0
VERTEX
  8
MY3DLAYER
10
83.49289012970195
20
51.08621491140437
30
3.6095570976613087e-13
 70
     32
  0
VERTEX
  8
MY3DLAYER
10
83.81072737489772
20
51.50042847377747
30
3.6095570976613087e-13
 70
     32
  0
VERTEX
  8
MY3DLAYER
10
84.01052821990699
20
51.98279038357242
30
3.6095570976613087e-13
 70
     32
  0
VERTEX
  8
MY3DLAYER
10
84.07867656732884
20
52.50042847377747
30
3.6095570976613087e-13
 70
     32
  0
SEQEND
  0
POLYLINE
 8
Layer0
 66
     1
70
    8
 10
0.0
 20
 0.0
 30
0.0
  0
VERTEX
  8
MY3DLAYER
10
23.078676567328852
20
52.50042847377747
30
3.6095570976613087e-13
 70
     32
  0
VERTEX
  8
MY3DLAYER
10
23.010528219906988
20
53.0180665639825
30
3.6095570976613087e-13
 70
     32
  0
VERTEX
  8
MY3DLAYER
10
22.810727374897727
20
53.50042847377746
30
3.6095570976613087e-13
 70
     32
  0
VERTEX
  8
MY3DLAYER
10
22.492890129701944
20
53.91464203615056
30
3.6095570976613087e-13
 70
     32
  0
VERTEX
  8
MY3DLAYER
10
22.07867656732885
20
54.23247928134633
30
3.6095570976613087e-13
 70
     32
  0
VERTEX
  8
MY3DLAYER
10
21.596314657533892
20
54.4322801263556
30
3.6095570976613087e-13
 70
     32
  0
VERTEX
  8
MY3DLAYER
10
21.07867656732885
20
54.50042847377746
30
3.6095570976613087e-13
 70
     32
  0
VERTEX
  8
MY3DLAYER
10
20.561038477123805
20
54.4322801263556
30
3.6095570976613087e-13
 70
     32
  0
VERTEX
  8
MY3DLAYER
10
20.07867656732885
20
54.23247928134633
30
3.6095570976613087e-13
 70
     32
  0
VERTEX
  8
MY3DLAYER
10
19.664463004955753
20
53.91464203615056
30
3.6095570976613087e-13
 70
     32
  0
VERTEX
  8
MY3DLAYER
10
19.34662575975997
20
53.50042847377746
30
3.6095570976613087e-13
 70
     32
  0
VERTEX
  8
MY3DLAYER
10
19.14682491475071
20
53.0180665639825
30
3.6095570976613087e-13
 70
     32
  0
VERTEX
  8
MY3DLAYER
10
19.07867656732885
20
52.50042847377747
30
3.6095570976613087e-13
 70
     32
  0
VERTEX
  8
MY3DLAYER
10
19.14682491475071
20
51.98279038357242
30
3.6095570976613087e-13
 70
     32
  0
VERTEX
  8
MY3DLAYER
10
19.34662575975997
20
51.50042847377747
30
3.6095570976613087e-13
 70
     32
  0
VERTEX
  8
MY3DLAYER
10
19.664463004955753
20
51.08621491140437
30
3.6095570976613087e-13
 70
     32
  0
VERTEX
  8
MY3DLAYER
10
20.07867656732885
20
50.76837766620858
30
3.6095570976613087e-13
 70
     32
  0
VERTEX
  8
MY3DLAYER
10
20.561038477123805
20
50.56857682119932
30
3.6095570976613087e-13
 70
     32
  0
VERTEX
  8
MY3DLAYER
10
21.07867656732885
20
50.500428473777454
30
3.6095570976613087e-13
 70
     32
  0
VERTEX
  8
MY3DLAYER
10
21.59631465753389
20
50.56857682119932
30
3.6095570976613087e-13
 70
     32
  0
VERTEX
  8
MY3DLAYER
10
22.07867656732885
20
50.76837766620858
30
3.6095570976613087e-13
 70
     32
  0
VERTEX
  8
MY3DLAYER
10
22.492890129701944
20
51.08621491140437
30
3.6095570976613087e-13
 70
     32
  0
VERTEX
  8
MY3DLAYER
10
22.810727374897727
20
51.500428473777454
30
3.6095570976613087e-13
 70
     32
  0
VERTEX
  8
MY3DLAYER
10
23.010528219906988
20
51.98279038357242
30
3.6095570976613087e-13
 70
     32
  0
VERTEX
  8
MY3DLAYER
10
23.078676567328852
20
52.50042847377747
30
3.6095570976613087e-13
 70
     32
  0
SEQEND
  0
POLYLINE
 8
Layer0
 66
     1
70
    8
 10
0.0
 20
 0.0
 30
0.0
  0
VERTEX
  8
MY3DLAYER
10
107.50000000000021
20
251.74088957328172
30
6.39711815654888e-13
 70
     32
  0
VERTEX
  8
MY3DLAYER
10
170.0000000000003
20
251.74088957328172
30
6.249646668104014e-13
 70
     32
  0
VERTEX
  8
MY3DLAYER
10
170.0000000000003
20
248.2408895732817
30
6.16482618995639e-13
 70
     32
  0
VERTEX
  8
MY3DLAYER
10
185.00000000000006
20
248.2408895732817
30
5.089099512171471e-13
 70
     32
  0
VERTEX
  8
MY3DLAYER
10
185.00000000000006
20
251.74088957328172
30
5.230567830712629e-13
 70
     32
  0
VERTEX
  8
MY3DLAYER
10
200.0
20
251.74088957328172
30
1.127986593019191e-14
 70
     32
  0
VERTEX
  8
MY3DLAYER
10
200.0
20
236.74088957328206
30
-9.587886040662851e-14
 70
     32
  0
VERTEX
  8
MY3DLAYER
10
196.5000000000002
20
236.74088957328206
30
-9.587886040662851e-14
 70
     32
  0
VERTEX
  8
MY3DLAYER
10
196.5000000000002
20
221.74088957328206
30
-1.8047785488306544e-13
 70
     32
  0
VERTEX
  8
MY3DLAYER
10
200.0
20
221.74088957328206
30
-1.8047785488306544e-13
 70
     32
  0
VERTEX
  8
MY3DLAYER
10
200.0
20
199.24088957328203
30
1.0433875985427252e-13
 70
     32
  0
VERTEX
  8
MY3DLAYER
10
196.5000000000002
20
199.24088957328203
30
1.0433875985427252e-13
 70
     32
  0
VERTEX
  8
MY3DLAYER
10
196.5000000000002
20
184.24088957328206
30
-1.6919798895287383e-14
 70
     32
  0
VERTEX
  8
MY3DLAYER
10
200.0
20
184.24088957328206
30
-1.6919798895287383e-14
 70
     32
  0
VERTEX
  8
MY3DLAYER
10
200.0
20
161.74088957328215
30
-1.2407852523210748e-13
 70
     32
  0
VERTEX
  8
MY3DLAYER
10
196.5000000000002
20
161.74088957328215
30
-1.2407852523210748e-13
 70
     32
  0
VERTEX
  8
MY3DLAYER
10
196.5000000000002
20
146.74088957328206
30
-1.4663825709249067e-13
 70
     32
  0
VERTEX
  8
MY3DLAYER
10
200.0
20
146.74088957328206
30
-1.4663825709249067e-13
 70
     32
  0
VERTEX
  8
MY3DLAYER
10
200.0
20
131.74088957328178
30
0.0
 70
     32
  0
VERTEX
  8
MY3DLAYER
10
185.00000000000006
20
131.74088957328178
30
0.0
 70
     32
  0
VERTEX
  8
MY3DLAYER
10
185.00000000000006
20
135.24088957328152
30
9.305889392408094e-14
 70
     32
  0
VERTEX
  8
MY3DLAYER
10
170.0000000000003
20
135.24088957328152
30
9.305889392408094e-14
 70
     32
  0
VERTEX
  8
MY3DLAYER
10
170.0000000000003
20
131.74088957328178
30
0.0
 70
     32
  0
VERTEX
  8
MY3DLAYER
10
107.50000000000021
20
131.74088957328178
30
0.0
 70
     32
  0
VERTEX
  8
MY3DLAYER
10
107.50000000000021
20
135.24088957328152
30
9.305889392408094e-14
 70
     32
  0
VERTEX
  8
MY3DLAYER
10
92.4999999999999
20
135.24088957328152
30
9.305889392408094e-14
 70
     32
  0
VERTEX
  8
MY3DLAYER
10
92.4999999999999
20
131.74088957328178
30
0.0
 70
     32
  0
VERTEX
  8
MY3DLAYER
10
30.0
20
131.74088957328178
30
0.0
 70
     32
  0
VERTEX
  8
MY3DLAYER
10
30.0
20
135.24088957328152
30
9.305889392408094e-14
 70
     32
  0
VERTEX
  8
MY3DLAYER
10
14.999999999999973
20
135.24088957328152
30
9.305889392408094e-14
 70
     32
  0
VERTEX
  8
MY3DLAYER
10
14.999999999999973
20
131.74088957328178
30
0.0
 70
     32
  0
VERTEX
  8
MY3DLAYER
10
0.0
20
131.74088957328178
30
0.0
 70
     32
  0
VERTEX
  8
MY3DLAYER
10
0.0
20
146.74088957328206
30
-1.4663825709249067e-13
 70
     32
  0
VERTEX
  8
MY3DLAYER
10
3.499999999999971
20
146.74088957328206
30
-1.4663825709249067e-13
 70
     32
  0
VERTEX
  8
MY3DLAYER
10
3.499999999999971
20
161.74088957328215
30
-1.2407852523210748e-13
 70
     32
  0
VERTEX
  8
MY3DLAYER
10
0.0
20
161.74088957328215
30
-1.2407852523210748e-13
 70
     32
  0
VERTEX
  8
MY3DLAYER
10
0.0
20
184.24088957328206
30
-1.6919798895287383e-14
 70
     32
  0
VERTEX
  8
MY3DLAYER
10
3.499999999999971
20
184.24088957328206
30
-1.6919798895287383e-14
 70
     32
  0
VERTEX
  8
MY3DLAYER
10
3.499999999999971
20
199.24088957328203
30
1.0433875985427252e-13
 70
     32
  0
VERTEX
  8
MY3DLAYER
10
0.0
20
199.24088957328203
30
1.0433875985427252e-13
 70
     32
  0
VERTEX
  8
MY3DLAYER
10
0.0
20
221.74088957328206
30
-1.8047785488306544e-13
 70
     32
  0
VERTEX
  8
MY3DLAYER
10
3.499999999999971
20
221.74088957328206
30
-1.8047785488306544e-13
 70
     32
  0
VERTEX
  8
MY3DLAYER
10
3.499999999999971
20
236.74088957328206
30
-9.587886040662851e-14
 70
     32
  0
VERTEX
  8
MY3DLAYER
10
0.0
20
236.74088957328206
30
-9.587886040662851e-14
 70
     32
  0
VERTEX
  8
MY3DLAYER
10
0.0
20
251.74088957328172
30
1.127986593019191e-14
 70
     32
  0
VERTEX
  8
MY3DLAYER
10
14.999999999999973
20
251.74088957328172
30
5.230567830712624e-13
 70
     32
  0
VERTEX
  8
MY3DLAYER
10
14.999999999999973
20
248.2408895732817
30
5.254760383247754e-13
 70
     32
  0
VERTEX
  8
MY3DLAYER
10
30.0
20
248.2408895732817
30
5.089099512171471e-13
 70
     32
  0
VERTEX
  8
MY3DLAYER
10
30.0
20
251.74088957328172
30
5.230567830712624e-13
 70
     32
  0
VERTEX
  8
MY3DLAYER
10
92.49999999999989
20
251.74088957328172
30
6.84868602461454e-13
 70
     32
  0
VERTEX
  8
MY3DLAYER
10
92.49999999999989
20
248.2408895732817
30
6.809744280127613e-13
 70
     32
  0
VERTEX
  8
MY3DLAYER
10
107.50000000000021
20
248.2408895732817
30
5.089099512171471e-13
 70
     32
  0
VERTEX
  8
MY3DLAYER
10
107.50000000000021
20
251.74088957328172
30
6.39711815654888e-13
 70
     32
  0
SEQEND
  0
POLYLINE
 8
Layer0
 66
     1
70
    8
 10
0.0
 20
 0.0
 30
0.0
  0
VERTEX
  8
MY3DLAYER
10
24.5
20
140.24088957328152
30
-6.670787379271784e-14
 70
     32
  0
VERTEX
  8
MY3DLAYER
10
24.5
20
151.24088957328152
30
-3.215363207505019e-14
 70
     32
  0
VERTEX
  8
MY3DLAYER
10
11.500000000000002
20
151.24088957328152
30
-3.2153632075050185e-14
 70
     32
  0
VERTEX
  8
MY3DLAYER
10
11.500000000000002
20
140.24088957328152
30
-6.670787379271784e-14
 70
     32
  0
VERTEX
  8
MY3DLAYER
10
24.5
20
140.24088957328152
30
-6.670787379271784e-14
 70
     32
  0
SEQEND
  0
POLYLINE
 8
Layer0
 66
     1
70
    8
 10
0.0
 20
 0.0
 30
0.0
  0
VERTEX
  8
MY3DLAYER
10
181.32962913144553
20
144.4467943477689
30
-1.0405318799040285e-13
 70
     32
  0
VERTEX
  8
MY3DLAYER
10
181.5000000000002
20
145.74088957328152
30
-9.998268837579625e-14
 70
     32
  0
VERTEX
  8
MY3DLAYER
10
181.32962913144553
20
147.0349847987941
30
-9.592291903984973e-14
 70
     32
  0
VERTEX
  8
MY3DLAYER
10
180.83012701892238
20
148.2408895732815
30
-9.215054655372201e-14
 70
     32
  0
VERTEX
  8
MY3DLAYER
10
180.0355339059329
20
149.27642347921423
30
-8.892265186820237e-14
 70
     32
  0
VERTEX
  8
MY3DLAYER
10
179.0000000000002
20
150.0710165922037
30
-8.645921067176081e-14
 70
     32
  0
VERTEX
  8
MY3DLAYER
10
177.7940952255128
20
150.57051870472682
30
-8.492810241090575e-14
 70
     32
  0
VERTEX
  8
MY3DLAYER
10
176.5000000000002
20
150.7408895732815
30
-8.443366958333845e-14
 70
     32
  0
VERTEX
  8
MY3DLAYER
10
175.2059047744876
20
150.57051870472682
30
-8.50096069691687e-14
 70
     32
  0
VERTEX
  8
MY3DLAYER
10
174.0000000000002
20
150.0710165922037
30
-8.661666538733372e-14
 70
     32
  0
VERTEX
  8
MY3DLAYER
10
172.96446609406746
20
149.27642347921423
30
-8.914532646242519e-14
 70
     32
  0
VERTEX
  8
MY3DLAYER
10
172.16987298107802
20
148.2408895732815
30
-9.242326612098561e-14
 70
     32
  0
VERTEX
  8
MY3DLAYER
10
171.67037086855487
20
147.0349847987941
30
-9.622709819233549e-14
 70
     32
  0
VERTEX
  8
MY3DLAYER
10
171.5000000000002
20
145.74088957328152
30
-1.0029759780694209e-13
 70
     32
  0
VERTEX
  8
MY3DLAYER
10
171.67037086855487
20
144.4467943477689
30
-1.0435736714288861e-13
 70
     32
  0
VERTEX
  8
MY3DLAYER
10
172.16987298107802
20
143.24088957328152
30
-1.0812973962901632e-13
 70
     32
  0
VERTEX
  8
MY3DLAYER
10
172.96446609406746
20
142.20535566734878
30
-1.1135763431453596e-13
 70
     32
  0
VERTEX
  8
MY3DLAYER
10
174.0000000000002
20
141.4107625543593
30
-1.1382107551097752e-13
 70
     32
  0
VERTEX
  8
MY3DLAYER
10
175.2059047744876
20
140.9112604418362
30
-1.1535218377183257e-13
 70
     32
  0
VERTEX
  8
MY3DLAYER
10
176.5000000000002
20
140.74088957328152
30
-1.1584661659939988e-13
 70
     32
  0
VERTEX
  8
MY3DLAYER
10
177.7940952255128
20
140.9112604418362
30
-1.1527067921356965e-13
 70
     32
  0
VERTEX
  8
MY3DLAYER
10
179.0000000000002
20
141.4107625543593
30
-1.1366362079540461e-13
 70
     32
  0
VERTEX
  8
MY3DLAYER
10
180.0355339059329
20
142.20535566734878
30
-1.1113495972031315e-13
 70
     32
  0
VERTEX
  8
MY3DLAYER
10
180.83012701892238
20
143.24088957328152
30
-1.0785702006175273e-13
 70
     32
  0
VERTEX
  8
MY3DLAYER
10
181.32962913144553
20
144.4467943477689
30
-1.0405318799040285e-13
 70
     32
  0
SEQEND
  0
POLYLINE
 8
Layer0
 66
     1
70
    8
 10
0.0
 20
 0.0
 30
0.0
  0
VERTEX
  8
MY3DLAYER
10
64.5
20
143.24088957328155
30
1.748210806205069e-14
 70
     32
  0
VERTEX
  8
MY3DLAYER
10
64.5
20
135.24088957328152
30
-7.648249550798539e-15
 70
     32
  0
VERTEX
  8
MY3DLAYER
10
80.49999999999999
20
135.24088957328152
30
-7.648249550798539e-15
 70
     32
  0
VERTEX
  8
MY3DLAYER
10
80.49999999999999
20
143.24088957328155
30
1.7482108062050664e-14
 70
     32
  0
VERTEX
  8
MY3DLAYER
10
64.5
20
143.24088957328155
30
1.748210806205069e-14
 70
     32
  0
SEQEND
  0
POLYLINE
 8
Layer0
 66
     1
70
    8
 10
0.0
 20
 0.0
 30
0.0
  0
VERTEX
  8
MY3DLAYER
10
188.5
20
202.24088957328203
30
8.885294002991777e-14
 70
     32
  0
VERTEX
  8
MY3DLAYER
10
11.5
20
202.24088957328203
30
8.885294002991775e-14
 70
     32
  0
VERTEX
  8
MY3DLAYER
10
11.5
20
199.24088957328203
30
7.942905592509931e-14
 70
     32
  0
VERTEX
  8
MY3DLAYER
10
188.5
20
199.24088957328203
30
7.942905592509931e-14
 70
     32
  0
VERTEX
  8
MY3DLAYER
10
188.5
20
202.24088957328203
30
8.885294002991777e-14
 70
     32
  0
SEQEND
  0
POLYLINE
 8
Layer0
 66
     1
70
    8
 10
0.0
 20
 0.0
 30
0.0
  0
VERTEX
  8
MY3DLAYER
10
188.5
20
205.20827861232723
30
1.5643271220972415e-13
 70
     32
  0
VERTEX
  8
MY3DLAYER
10
188.5
20
208.20827861232723
30
1.5643271220972415e-13
 70
     32
  0
VERTEX
  8
MY3DLAYER
10
11.5
20
208.20827861232723
30
1.6200660914100285e-13
 70
     32
  0
VERTEX
  8
MY3DLAYER
10
11.5
20
205.20827861232723
30
1.6200660914100285e-13
 70
     32
  0
VERTEX
  8
MY3DLAYER
10
188.5
20
205.20827861232723
30
1.5643271220972415e-13
 70
     32
  0
SEQEND
  0
POLYLINE
 8
Layer0
 66
     1
70
    8
 10
0.0
 20
 0.0
 30
0.0
  0
VERTEX
  8
MY3DLAYER
10
188.5
20
193.27652723014765
30
1.7661008933515062e-13
 70
     32
  0
VERTEX
  8
MY3DLAYER
10
188.5
20
196.27652723014762
30
1.671862052303322e-13
 70
     32
  0
VERTEX
  8
MY3DLAYER
10
11.5
20
196.27652723014762
30
1.7833399909288962e-13
 70
     32
  0
VERTEX
  8
MY3DLAYER
10
11.5
20
193.27652723014765
30
1.8775788319770804e-13
 70
     32
  0
VERTEX
  8
MY3DLAYER
10
188.5
20
193.27652723014765
30
1.7661008933515062e-13
 70
     32
  0
SEQEND
  0
POLYLINE
 8
Layer0
 66
     1
70
    8
 10
0.0
 20
 0.0
 30
0.0
  0
VERTEX
  8
MY3DLAYER
10
119.49999999999983
20
89.90629403338072
30
2.773779049248492e-13
 70
     32
  0
VERTEX
  8
MY3DLAYER
10
119.4999999999998
20
107.15629403338069
30
2.773779049248492e-13
 70
     32
  0
VERTEX
  8
MY3DLAYER
10
177.4999999999997
20
107.15629403338065
30
2.773779049248492e-13
 70
     32
  0
VERTEX
  8
MY3DLAYER
10
177.4999999999997
20
72.65629403338076
30
2.773779049248492e-13
 70
     32
  0
VERTEX
  8
MY3DLAYER
10
119.49999999999999
20
72.65629403338053
30
2.773779049248492e-13
 70
     32
  0
VERTEX
  8
MY3DLAYER
10
119.49999999999983
20
89.90629403338072
30
2.773779049248492e-13
 70
     32
  0
SEQEND
  0
POLYLINE
 8
Layer0
 66
     1
70
    8
 10
0.0
 20
 0.0
 30
0.0
  0
VERTEX
  8
MY3DLAYER
10
120.95451867793723
20
103.74218356121665
30
2.773779049248492e-13
 70
     32
  0
VERTEX
  8
MY3DLAYER
10
121.11435935394492
20
103.3562940333806
30
2.773779049248492e-13
 70
     32
  0
VERTEX
  8
MY3DLAYER
10
121.36862915010128
20
103.02492318348223
30
2.773779049248492e-13
 70
     32
  0
VERTEX
  8
MY3DLAYER
10
121.69999999999986
20
102.77065338732552
30
2.773779049248492e-13
 70
     32
  0
VERTEX
  8
MY3DLAYER
10
122.08588952783583
20
102.61081271131813
30
2.773779049248492e-13
 70
     32
  0
VERTEX
  8
MY3DLAYER
10
122.49999999999982
20
102.55629403338065
30
2.773779049248492e-13
 70
     32
  0
VERTEX
  8
MY3DLAYER
10
122.91411047216393
20
102.61081271131822
30
2.773779049248492e-13
 70
     32
  0
VERTEX
  8
MY3DLAYER
10
123.29999999999984
20
102.77065338732557
30
2.773779049248492e-13
 70
     32
  0
VERTEX
  8
MY3DLAYER
10
123.63137084989837
20
103.0249231834821
30
2.773779049248492e-13
 70
     32
  0
VERTEX
  8
MY3DLAYER
10
123.88564064605492
20
103.35629403338066
30
2.773779049248492e-13
 70
     32
  0
VERTEX
  8
MY3DLAYER
10
124.0454813220625
20
103.74218356121655
30
2.773779049248492e-13
 70
     32
  0
VERTEX
  8
MY3DLAYER
10
124.09999999999971
20
104.15629403338075
30
2.773779049248492e-13
 70
     32
  0
VERTEX
  8
MY3DLAYER
10
124.04548132206237
20
104.57040450554476
30
2.773779049248492e-13
 70
     32
  0
VERTEX
  8
MY3DLAYER
10
123.88564064605508
20
104.95629403338056
30
2.773779049248492e-13
 70
     32
  0
VERTEX
  8
MY3DLAYER
10
123.63137084989847
20
105.28766488327926
30
2.773779049248492e-13
 70
     32
  0
VERTEX
  8
MY3DLAYER
10
123.29999999999998
20
105.54193467943588
30
2.773779049248492e-13
 70
     32
  0
VERTEX
  8
MY3DLAYER
10
122.91411047216397
20
105.70177535544323
30
2.773779049248492e-13
 70
     32
  0
VERTEX
  8
MY3DLAYER
10
122.49999999999977
20
105.75629403338078
30
2.773779049248492e-13
 70
     32
  0
VERTEX
  8
MY3DLAYER
10
122.08588952783582
20
105.70177535544305
30
2.773779049248492e-13
 70
     32
  0
VERTEX
  8
MY3DLAYER
10
121.69999999999985
20
105.54193467943578
30
2.773779049248492e-13
 70
     32
  0
VERTEX
  8
MY3DLAYER
10
121.36862915010137
20
105.28766488327922
30
2.773779049248492e-13
 70
     32
  0
VERTEX
  8
MY3DLAYER
10
121.11435935394493
20
104.95629403338074
30
2.773779049248492e-13
 70
     32
  0
VERTEX
  8
MY3DLAYER
10
120.95451867793732
20
104.5704045055448
30
2.773779049248492e-13
 70
     32
  0
VERTEX
  8
MY3DLAYER
10
120.89999999999989
20
104.15629403338079
30
2.773779049248492e-13
 70
     32
  0
VERTEX
  8
MY3DLAYER
10
120.95451867793723
20
103.74218356121665
30
2.773779049248492e-13
 70
     32
  0
SEQEND
  0
POLYLINE
 8
Layer0
 66
     1
70
    8
 10
0.0
 20
 0.0
 30
0.0
  0
VERTEX
  8
MY3DLAYER
10
120.95451867793736
20
76.07040450554467
30
2.773779049248492e-13
 70
     32
  0
VERTEX
  8
MY3DLAYER
10
120.89999999999989
20
75.65629403338062
30
2.773779049248492e-13
 70
     32
  0
VERTEX
  8
MY3DLAYER
10
120.95451867793739
20
75.24218356121648
30
2.773779049248492e-13
 70
     32
  0
VERTEX
  8
MY3DLAYER
10
121.11435935394485
20
74.85629403338062
30
2.773779049248492e-13
 70
     32
  0
VERTEX
  8
MY3DLAYER
10
121.36862915010148
20
74.52492318348219
30
2.773779049248492e-13
 70
     32
  0
VERTEX
  8
MY3DLAYER
10
121.69999999999993
20
74.27065338732562
30
2.773779049248492e-13
 70
     32
  0
VERTEX
  8
MY3DLAYER
10
122.08588952783595
20
74.110812711318
30
2.773779049248492e-13
 70
     32
  0
VERTEX
  8
MY3DLAYER
10
122.49999999999989
20
74.05629403338062
30
2.773779049248492e-13
 70
     32
  0
VERTEX
  8
MY3DLAYER
10
122.91411047216393
20
74.11081271131805
30
2.773779049248492e-13
 70
     32
  0
VERTEX
  8
MY3DLAYER
10
123.30000000000003
20
74.27065338732544
30
2.773779049248492e-13
 70
     32
  0
VERTEX
  8
MY3DLAYER
10
123.63137084989829
20
74.52492318348219
30
2.773779049248492e-13
 70
     32
  0
VERTEX
  8
MY3DLAYER
10
123.885640646055
20
74.85629403338085
30
2.773779049248492e-13
 70
     32
  0
VERTEX
  8
MY3DLAYER
10
124.04548132206234
20
75.24218356121679
30
2.773779049248492e-13
 70
     32
  0
VERTEX
  8
MY3DLAYER
10
124.09999999999984
20
75.65629403338058
30
2.773779049248492e-13
 70
     32
  0
VERTEX
  8
MY3DLAYER
10
124.04548132206226
20
76.07040450554481
30
2.773779049248492e-13
 70
     32
  0
VERTEX
  8
MY3DLAYER
10
123.88564064605492
20
76.45629403338062
30
2.773779049248492e-13
 70
     32
  0
VERTEX
  8
MY3DLAYER
10
123.63137084989832
20
76.78766488327905
30
2.773779049248492e-13
 70
     32
  0
VERTEX
  8
MY3DLAYER
10
123.29999999999991
20
77.0419346794357
30
2.773779049248492e-13
 70
     32
  0
VERTEX
  8
MY3DLAYER
10
122.91411047216394
20
77.20177535544315
30
2.773779049248492e-13
 70
     32
  0
VERTEX
  8
MY3DLAYER
10
122.49999999999977
20
77.25629403338075
30
2.773779049248492e-13
 70
     32
  0
VERTEX
  8
MY3DLAYER
10
122.08588952783583
20
77.20177535544319
30
2.773779049248492e-13
 70
     32
  0
VERTEX
  8
MY3DLAYER
10
121.69999999999969
20
77.04193467943574
30
2.773779049248492e-13
 70
     32
  0
VERTEX
  8
MY3DLAYER
10
121.3686291501012
20
76.78766488327913
30
2.773779049248492e-13
 70
     32
  0
VERTEX
  8
MY3DLAYER
10
121.11435935394482
20
76.45629403338062
30
2.773779049248492e-13
 70
     32
  0
VERTEX
  8
MY3DLAYER
10
120.95451867793736
20
76.07040450554467
30
2.773779049248492e-13
 70
     32
  0
SEQEND
  0
POLYLINE
 8
Layer0
 66
     1
70
    8
 10
0.0
 20
 0.0
 30
0.0
  0
VERTEX
  8
MY3DLAYER
10
173.69999999999987
20
77.04193467943584
30
2.773779049248492e-13
 70
     32
  0
VERTEX
  8
MY3DLAYER
10
173.36862915010147
20
76.78766488327905
30
2.773779049248492e-13
 70
     32
  0
VERTEX
  8
MY3DLAYER
10
173.11435935394456
20
76.45629403338057
30
2.773779049248492e-13
 70
     32
  0
VERTEX
  8
MY3DLAYER
10
172.9545186779373
20
76.07040450554481
30
2.773779049248492e-13
 70
     32
  0
VERTEX
  8
MY3DLAYER
10
172.8999999999999
20
75.65629403338066
30
2.773779049248492e-13
 70
     32
  0
VERTEX
  8
MY3DLAYER
10
172.95451867793727
20
75.24218356121656
30
2.773779049248492e-13
 70
     32
  0
VERTEX
  8
MY3DLAYER
10
173.1143593539448
20
74.85629403338062
30
2.773779049248492e-13
 70
     32
  0
VERTEX
  8
MY3DLAYER
10
173.36862915010119
20
74.52492318348219
30
2.773779049248492e-13
 70
     32
  0
VERTEX
  8
MY3DLAYER
10
173.6999999999998
20
74.27065338732562
30
2.773779049248492e-13
 70
     32
  0
VERTEX
  8
MY3DLAYER
10
174.08588952783575
20
74.11081271131813
30
2.773779049248492e-13
 70
     32
  0
VERTEX
  8
MY3DLAYER
10
174.4999999999999
20
74.05629403338067
30
2.773779049248492e-13
 70
     32
  0
VERTEX
  8
MY3DLAYER
10
174.91411047216394
20
74.11081271131813
30
2.773779049248492e-13
 70
     32
  0
VERTEX
  8
MY3DLAYER
10
175.29999999999976
20
74.27065338732558
30
2.773779049248492e-13
 70
     32
  0
VERTEX
  8
MY3DLAYER
10
175.63137084989805
20
74.52492318348219
30
2.773779049248492e-13
 70
     32
  0
VERTEX
  8
MY3DLAYER
10
175.88564064605492
20
74.85629403338066
30
2.773779049248492e-13
 70
     32
  0
VERTEX
  8
MY3DLAYER
10
176.04548132206241
20
75.2421835612167
30
2.773779049248492e-13
 70
     32
  0
VERTEX
  8
MY3DLAYER
10
176.09999999999974
20
75.6562940333807
30
2.773779049248492e-13
 70
     32
  0
VERTEX
  8
MY3DLAYER
10
176.04548132206213
20
76.07040450554472
30
2.773779049248492e-13
 70
     32
  0
VERTEX
  8
MY3DLAYER
10
175.885640646055
20
76.45629403338057
30
2.773779049248492e-13
 70
     32
  0
VERTEX
  8
MY3DLAYER
10
175.63137084989827
20
76.78766488327909
30
2.773779049248492e-13
 70
     32
  0
VERTEX
  8
MY3DLAYER
10
175.2999999999997
20
77.0419346794357
30
2.773779049248492e-13
 70
     32
  0
VERTEX
  8
MY3DLAYER
10
174.9141104721637
20
77.20177535544323
30
2.773779049248492e-13
 70
     32
  0
VERTEX
  8
MY3DLAYER
10
174.4999999999999
20
77.25629403338061
30
2.773779049248492e-13
 70
     32
  0
VERTEX
  8
MY3DLAYER
10
174.08588952783566
20
77.20177535544323
30
2.773779049248492e-13
 70
     32
  0
VERTEX
  8
MY3DLAYER
10
173.69999999999987
20
77.04193467943584
30
2.773779049248492e-13
 70
     32
  0
SEQEND
  0
POLYLINE
 8
Layer0
 66
     1
70
    8
 10
0.0
 20
 0.0
 30
0.0
  0
VERTEX
  8
MY3DLAYER
10
173.69999999999962
20
105.54193467943597
30
2.773779049248492e-13
 70
     32
  0
VERTEX
  8
MY3DLAYER
10
173.36862915010136
20
105.28766488327918
30
2.773779049248492e-13
 70
     32
  0
VERTEX
  8
MY3DLAYER
10
173.11435935394476
20
104.95629403338079
30
2.773779049248492e-13
 70
     32
  0
VERTEX
  8
MY3DLAYER
10
172.95451867793727
20
104.57040450554466
30
2.773779049248492e-13
 70
     32
  0
VERTEX
  8
MY3DLAYER
10
172.8999999999998
20
104.15629403338056
30
2.773779049248492e-13
 70
     32
  0
VERTEX
  8
MY3DLAYER
10
172.9545186779373
20
103.74218356121673
30
2.773779049248492e-13
 70
     32
  0
VERTEX
  8
MY3DLAYER
10
173.11435935394476
20
103.35629403338075
30
2.773779049248492e-13
 70
     32
  0
VERTEX
  8
MY3DLAYER
10
173.36862915010147
20
103.02492318348223
30
2.773779049248492e-13
 70
     32
  0
VERTEX
  8
MY3DLAYER
10
173.6999999999998
20
102.77065338732552
30
2.773779049248492e-13
 70
     32
  0
VERTEX
  8
MY3DLAYER
10
174.0858895278357
20
102.61081271131818
30
2.773779049248492e-13
 70
     32
  0
VERTEX
  8
MY3DLAYER
10
174.4999999999998
20
102.55629403338075
30
2.773779049248492e-13
 70
     32
  0
VERTEX
  8
MY3DLAYER
10
174.91411047216386
20
102.61081271131813
30
2.773779049248492e-13
 70
     32
  0
VERTEX
  8
MY3DLAYER
10
175.2999999999997
20
102.77065338732571
30
2.773779049248492e-13
 70
     32
  0
VERTEX
  8
MY3DLAYER
10
175.63137084989816
20
103.02492318348241
30
2.773779049248492e-13
 70
     32
  0
VERTEX
  8
MY3DLAYER
10
175.88564064605478
20
103.35629403338083
30
2.773779049248492e-13
 70
     32
  0
VERTEX
  8
MY3DLAYER
10
176.04548132206236
20
103.74218356121678
30
2.773779049248492e-13
 70
     32
  0
VERTEX
  8
MY3DLAYER
10
176.09999999999974
20
104.15629403338066
30
2.773779049248492e-13
 70
     32
  0
VERTEX
  8
MY3DLAYER
10
176.0454813220622
20
104.57040450554457
30
2.773779049248492e-13
 70
     32
  0
VERTEX
  8
MY3DLAYER
10
175.88564064605484
20
104.9562940333807
30
2.773779049248492e-13
 70
     32
  0
VERTEX
  8
MY3DLAYER
10
175.63137084989822
20
105.28766488327918
30
2.773779049248492e-13
 70
     32
  0
VERTEX
  8
MY3DLAYER
10
175.29999999999987
20
105.54193467943583
30
2.773779049248492e-13
 70
     32
  0
VERTEX
  8
MY3DLAYER
10
174.9141104721637
20
105.70177535544332
30
2.773779049248492e-13
 70
     32
  0
VERTEX
  8
MY3DLAYER
10
174.49999999999983
20
105.75629403338061
30
2.773779049248492e-13
 70
     32
  0
VERTEX
  8
MY3DLAYER
10
174.08588952783592
20
105.70177535544309
30
2.773779049248492e-13
 70
     32
  0
VERTEX
  8
MY3DLAYER
10
173.69999999999962
20
105.54193467943597
30
2.773779049248492e-13
 70
     32
  0
SEQEND
  0
POLYLINE
 8
Layer0
 66
     1
70
    8
 10
0.0
 20
 0.0
 30
0.0
  0
VERTEX
  8
MY3DLAYER
10
164.49999999999986
20
75.65629403338076
30
2.773779049248492e-13
 70
     32
  0
VERTEX
  8
MY3DLAYER
10
164.4999999999998
20
104.15629403338079
30
2.773779049248492e-13
 70
     32
  0
VERTEX
  8
MY3DLAYER
10
128.4999999999996
20
104.15629403338079
30
2.773779049248492e-13
 70
     32
  0
VERTEX
  8
MY3DLAYER
10
128.4999999999998
20
75.65629403338066
30
2.773779049248492e-13
 70
     32
  0
VERTEX
  8
MY3DLAYER
10
164.49999999999986
20
75.65629403338076
30
2.773779049248492e-13
 70
     32
  0
SEQEND
 0
ENDSEC
 0
EOF
